<?xml version="1.0" encoding="utf-8"?>
<!-- Generator: Adobe Illustrator 16.0.4, SVG Export Plug-In . SVG Version: 6.00 Build 0)  -->
<!DOCTYPE svg PUBLIC "-//W3C//DTD SVG 1.1//EN" "http://www.w3.org/Graphics/SVG/1.1/DTD/svg11.dtd">
<svg version="1.1" id="Ebene_1" xmlns="http://www.w3.org/2000/svg" xmlns:xlink="http://www.w3.org/1999/xlink" x="0px" y="0px"
	 width="306px" height="137px" viewBox="-0.416 -0.634 306 137" enable-background="new -0.416 -0.634 306 137"
	 xml:space="preserve">
<g>
	<g>
		<g>
			<rect x="0.636" y="114.068" fill="#55EB73" width="303.562" height="21.664"/>
		</g>
	</g>
	<g>
		<path fill="#FFFFFF" d="M9.641,0.584h15.325l8.775,40.367h-8.072l-1.813-6.786H10.282l-1.521,6.786H0.688L9.641,0.584z
			 M11.979,26.384h10.354L18.532,8.015h-2.633L11.979,26.384z"/>
		<path fill="#FFFFFF" d="M37.659,0h7.84v40.952h-7.84V0z"/>
		<path fill="#FFFFFF" d="M52.167,11.758h7.84v1.346c0,0,3.744-2.047,6.611-2.047c7.721,0,11.523,3.803,11.523,15.034
			c0,12.461-4.328,15.562-13.279,15.562c-2.164,0-4.855-0.468-4.855-0.468v12.052h-7.84V11.758z M60.006,19.364v14.918
			c0,0,2.634,0.292,4.271,0.292c4.682,0,5.91-2.281,5.91-8.482c0-5.908-1.99-7.839-5.09-7.839
			C63.105,18.252,60.006,19.364,60.006,19.364z"/>
		<path fill="#FFFFFF" d="M105.693,33.931l0.117,6.084c0,0-6.728,1.638-12.168,1.638c-8.834,0-12.578-4.388-12.578-14.918
			c0-10.414,4.389-15.679,12.93-15.679c8.601,0,12.754,4.328,12.754,13.162l-0.586,5.499H88.963c0.06,3.334,1.695,4.739,5.908,4.739
			C99.668,34.458,105.693,33.931,105.693,33.931z M99.025,23.693c0-4.153-1.346-5.674-5.031-5.674c-3.744,0-5.031,1.812-5.09,5.674
			H99.025z"/>
		<path fill="#FFFFFF" d="M111.428,40.952V11.758h7.838v1.639c0,0,3.92-2.34,7.256-2.34c8.188,0,10.295,5.147,10.295,14.625v15.269
			h-7.838V25.39c0-4.446-0.586-7.313-4.39-7.313c-2.75,0-5.323,1.053-5.323,1.053v21.821L111.428,40.952L111.428,40.952z"/>
		<path fill="#FFFFFF" d="M149.393,0.584l6.085,32.061h0.877l6.084-32.061h9.187l6.084,32.061h0.877l6.086-32.061h8.481
			l-9.01,40.367H172.15l-5.148-28.491l-5.09,28.491h-11.995L140.91,0.584H149.393z"/>
		<path fill="#FFFFFF" d="M220,26.326c0,9.009-3.271,15.328-13.455,15.328c-10.18,0-13.455-6.318-13.455-15.328
			c0-9.01,3.275-15.269,13.455-15.269C216.729,11.057,220,17.317,220,26.326z M212.043,26.326c0-5.382-1.17-8.19-5.498-8.19
			c-4.33,0-5.5,2.809-5.5,8.19c0,5.381,1.17,8.249,5.5,8.249C210.873,34.575,212.043,31.708,212.043,26.326z"/>
		<path fill="#FFFFFF" d="M244.629,12.286l-0.23,6.729c0,0-4.621-0.469-6.85-0.469c-5.611,0-6.668,1.932-6.668,7.488
			c0,6.26,1.111,8.132,6.73,8.132c2.225,0,6.787-0.468,6.787-0.468l0.229,6.728c0,0-6.26,1.229-9.537,1.229
			c-8.717,0-12.168-4.622-12.168-15.62c0-10.354,3.632-14.977,12.349-14.977C238.66,11.057,244.629,12.286,244.629,12.286z"/>
		<path fill="#FFFFFF" d="M249.131,40.952V0h7.844v12.578c0,0,4.504-1.521,7.254-1.521c8.188,0,10.297,5.147,10.297,14.566v15.328
			h-7.84V25.624c0-4.388-0.584-7.254-4.1-7.254c-1.93,0-5.611,0.702-5.611,0.702v21.88H249.131z"/>
		<path fill="#FFFFFF" d="M303.535,33.931l0.117,6.084c0,0-6.728,1.638-12.168,1.638c-8.834,0-12.578-4.388-12.578-14.918
			c0-10.414,4.389-15.679,12.93-15.679c8.602,0,12.754,4.328,12.754,13.162l-0.586,5.499h-17.195
			c0.06,3.334,1.691,4.739,5.904,4.739C297.51,34.458,303.535,33.931,303.535,33.931z M296.867,23.693
			c0-4.153-1.346-5.674-5.031-5.674c-3.744,0-5.027,1.812-5.09,5.674H296.867z"/>
		<path fill="#FFFFFF" d="M8.5,54.534h5.638l7.659,27.06h-2.411l-2.255-7.348H5.312l-2.176,7.387H0.725L8.5,54.534z M5.896,71.952
			h10.69L12.271,56.75H10.25L5.896,71.952z"/>
		<path fill="#FFFFFF" d="M26.424,53.562h2.334v28.07h-2.334V53.562z"/>
		<path fill="#FFFFFF" d="M35.756,62.194h2.332v1.477c0,0,3.033-1.827,6.146-1.827c4.858,0,6.92,2.994,6.92,9.838
			c0,7.465-2.41,10.342-8.398,10.342c-1.942,0-4.004-0.352-4.666-0.506v8.864h-2.332L35.756,62.194L35.756,62.194z M38.088,65.693
			v13.763c0.662,0.117,2.724,0.466,4.552,0.466c4.549,0,6.104-2.293,6.104-8.318c0-5.64-1.75-7.66-4.744-7.66
			C41.161,63.943,38.088,65.693,38.088,65.693z"/>
		<path fill="#FFFFFF" d="M70.206,79.534l0.078,1.944c0,0-4.395,0.543-7.428,0.543c-5.793-0.039-7.541-3.537-7.541-10.03
			c0-7.504,3.266-10.147,8.008-10.147c5.016,0,7.66,2.646,7.66,9.176l-0.078,1.865H57.688c0,4.59,1.321,6.999,5.403,6.999
			C65.93,79.883,70.206,79.534,70.206,79.534z M68.65,70.941c0-5.132-1.672-7.039-5.328-7.039c-3.537,0-5.637,1.983-5.637,7.039
			H68.65z"/>
		<path fill="#FFFFFF" d="M76.504,81.632V62.194h2.332v1.438c0,0,3.269-1.789,6.3-1.789c5.325,0,6.493,2.449,6.493,9.683v10.106
			h-2.295V71.525c0-5.677-0.621-7.583-4.51-7.583c-3.033,0-5.988,1.633-5.988,1.633v16.057H76.504L76.504,81.632z"/>
		<path fill="#FFFFFF" d="M120.4,60.405c0,3.732-1.828,5.521-6.104,7.309l6.222,6.183c0.428-1.398,0.893-3.459,1.127-5.402
			l2.293,0.039c-0.351,2.604-0.933,5.132-1.633,6.921l5.172,5.015l-1.479,1.635l-4.819-4.666c-2.101,3.306-4.744,4.705-8.748,4.705
			c-6.531,0-9.06-3.188-9.06-8.478c0-4.588,2.14-6.493,6.104-7.854c-1.75-2.022-1.982-3.345-1.982-5.561
			c0-3.46,2.256-5.793,6.453-5.793C118.418,54.457,120.4,56.79,120.4,60.405z M119.43,75.878l-8.398-8.437
			c-3.732,1.127-5.287,2.683-5.287,6.182c0,4.043,1.982,6.298,6.766,6.298C115.657,79.921,117.795,78.755,119.43,75.878z
			 M111.575,64.993l1.205,1.206c3.771-1.478,5.25-2.722,5.25-5.676c0-2.488-1.168-3.889-4.084-3.889
			c-2.643,0-4.121,1.244-4.121,3.811C109.825,62.038,110.139,63.554,111.575,64.993z"/>
		<path fill="#FFFFFF" d="M136.771,54.534h4.354l8.476,23.6l8.517-23.6h4.313v27.099h-2.371V57.216h-0.545l-8.555,23.522h-2.799
			l-8.477-23.522h-0.543v24.416h-2.373L136.771,54.534L136.771,54.534z"/>
		<path fill="#FFFFFF" d="M183.117,79.534l0.078,1.944c0,0-4.396,0.543-7.428,0.543c-5.793-0.039-7.541-3.537-7.541-10.03
			c0-7.504,3.266-10.147,8.008-10.147c5.016,0,7.66,2.646,7.66,9.176l-0.078,1.865H170.6c0,4.59,1.32,6.999,5.402,6.999
			C178.84,79.883,183.117,79.534,183.117,79.534z M181.562,70.941c0-5.132-1.672-7.039-5.328-7.039
			c-3.537,0-5.637,1.983-5.637,7.039H181.562z"/>
		<path fill="#FFFFFF" d="M189.416,81.632V62.194h2.332v1.438c0,0,3.271-1.789,6.299-1.789c5.326,0,6.494,2.449,6.494,9.683v10.106
			h-2.295V71.525c0-5.677-0.621-7.583-4.51-7.583c-3.033,0-5.988,1.633-5.988,1.633v16.057H189.416L189.416,81.632z"/>
		<path fill="#FFFFFF" d="M223.904,64.565c0,0-4.199-0.622-6.728-0.622c-2.448,0-4.588,0.661-4.588,3.305
			c0,2.021,0.974,2.645,5.056,3.268c5.094,0.814,6.998,1.75,6.998,5.48c0,4.549-2.838,6.025-7.504,6.025
			c-2.371,0-6.688-0.699-6.688-0.699l0.155-2.062c0,0,4.354,0.661,6.338,0.661c3.384,0,5.326-0.776,5.326-3.81
			c0-2.334-1.166-2.799-5.326-3.461c-4.666-0.738-6.729-1.594-6.729-5.326c0-4.238,3.466-5.482,6.847-5.482
			c2.955,0,6.922,0.661,6.922,0.661L223.904,64.565z"/>
		<path fill="#FFFFFF" d="M242.062,62.31l-0.078,2.061c0,0-3.111-0.35-4.588-0.35c-4.666,0-6.027,1.982-6.027,7.542
			c0,6.025,0.973,8.28,6.027,8.28c1.477,0,4.627-0.35,4.627-0.35l0.115,2.062c0,0-3.498,0.467-5.171,0.467
			c-6.299,0-7.971-2.799-7.971-10.459c0-7.113,2.217-9.721,8.01-9.721C238.684,61.843,242.062,62.31,242.062,62.31z"/>
		<path fill="#FFFFFF" d="M247.473,81.632v-28.07h2.328v9.642c0,0,3.309-1.361,6.303-1.361c5.322,0,6.488,2.449,6.488,9.683v10.106
			h-2.328V71.562c0-5.679-0.623-7.583-4.438-7.583c-2.916,0-6.025,1.283-6.025,1.283V81.63h-2.328V81.632z"/>
		<path fill="#FFFFFF" d="M282.854,79.534l0.078,1.944c0,0-4.396,0.543-7.43,0.543c-5.793-0.039-7.543-3.537-7.543-10.03
			c0-7.504,3.27-10.147,8.014-10.147c5.017,0,7.654,2.646,7.654,9.176l-0.072,1.865H270.33c0,4.59,1.322,6.999,5.404,6.999
			C278.574,79.883,282.854,79.534,282.854,79.534z M281.295,70.941c0-5.132-1.672-7.039-5.322-7.039
			c-3.539,0-5.643,1.983-5.643,7.039H281.295z"/>
		<path fill="#FFFFFF" d="M289.15,81.632V62.194h2.332v1.438c0,0,3.266-1.789,6.299-1.789c5.326,0,6.492,2.449,6.492,9.683v10.106
			h-2.293V71.525c0-5.677-0.623-7.583-4.51-7.583c-3.033,0-5.988,1.633-5.988,1.633v16.057H289.15L289.15,81.632z"/>
		<path fill="#FFFFFF" d="M4.336,93.445h1.619v11.752H4.229v-9.758l-2.851,1.887l-0.8-1.37L4.336,93.445z"/>
		<path fill="#FFFFFF" d="M13.771,93.445h1.619v11.752h-1.728v-9.758l-2.85,1.887l-0.801-1.371L13.771,93.445z"/>
		<path fill="#FFFFFF" d="M19.678,102.848h1.836v2.352h-1.836V102.848z"/>
		<path fill="#FFFFFF" d="M31.818,99.587v1.531h-8.902v-1.531H31.818z"/>
		<path fill="#FFFFFF" d="M39.631,93.445h1.621v11.752h-1.729v-9.758l-2.849,1.887l-0.803-1.371L39.631,93.445z"/>
		<path fill="#FFFFFF" d="M52.682,93.426v1.676h-5.396l-0.303,3.225c0,0,1.301-0.555,2.299-0.555c2.439,0,3.828,0.998,3.828,3.562
			c0,2.636-1.479,4.042-3.971,4.042c-1.816,0-3.99-0.517-3.99-0.517l0.197-1.566c0,0,2.188,0.43,3.737,0.43
			c1.336,0,2.244-0.839,2.244-2.3c0-1.495-0.908-2.028-2.207-2.028c-1.283,0-2.404,0.554-2.404,0.554l-1.37-0.285l0.372-6.229h6.964
			V93.426L52.682,93.426z"/>
		<path fill="#FFFFFF" d="M54.975,102.848h1.834v2.352h-1.834V102.848z"/>
		<path fill="#FFFFFF" d="M62.913,93.445h1.621v11.752h-1.729v-9.758l-2.849,1.887l-0.803-1.371L62.913,93.445z"/>
		<path fill="#FFFFFF" d="M76.745,99.463c0,4.487-1.621,5.932-4.397,5.932c-2.761,0-4.382-1.427-4.382-5.932
			c0-4.702,1.604-6.215,4.382-6.215C75.161,93.249,76.745,94.764,76.745,99.463z M69.818,99.482c0,3.398,0.836,4.256,2.545,4.256
			c1.711,0,2.529-0.854,2.529-4.273c0-3.562-0.748-4.559-2.529-4.559C70.604,94.905,69.818,95.884,69.818,99.482z"/>
		<path fill="#FFFFFF" d="M78.254,102.848h1.834v2.352h-1.834V102.848z"/>
		<path fill="#FFFFFF" d="M82.475,105.198v-1.585l3.08-3.151c1.461-1.496,2.422-2.476,2.422-3.774c0-1.265-0.767-1.729-2.353-1.729
			c-1.281,0-2.938,0.338-2.938,0.338l-0.125-1.584c0,0,1.78-0.463,3.438-0.463c2.547,0,3.758,1.016,3.758,3.225
			c0,1.779-0.748,2.795-2.422,4.469l-2.547,2.602h5.234v1.656L82.475,105.198L82.475,105.198z"/>
		<path fill="#FFFFFF" d="M100.025,99.463c0,4.487-1.621,5.932-4.398,5.932c-2.76,0-4.381-1.427-4.381-5.932
			c0-4.702,1.604-6.215,4.381-6.215C98.441,93.249,100.025,94.764,100.025,99.463z M93.102,99.482c0,3.398,0.836,4.256,2.545,4.256
			c1.711,0,2.528-0.854,2.528-4.273c0-3.562-0.748-4.559-2.528-4.559C93.883,94.905,93.102,95.884,93.102,99.482z"/>
		<path fill="#FFFFFF" d="M105.062,93.445h1.621v11.752h-1.729v-9.758l-2.848,1.887l-0.803-1.371L105.062,93.445z"/>
		<path fill="#FFFFFF" d="M118.182,95.137c0,0-1.675-0.229-3.168-0.229c-1.906,0-2.904,1.211-2.904,3.489
			c0,0.02,1.568-0.604,2.707-0.604c2.619,0,3.99,1.158,3.99,3.688c0,2.562-1.552,3.918-4.187,3.918c-2.992,0-4.291-2.207-4.291-6.09
			c0-4.451,1.816-6.057,4.685-6.057c1.493,0,3.327,0.305,3.327,0.305L118.182,95.137z M112.09,99.909
			c0.019,2.155,0.679,3.847,2.529,3.847c1.549,0,2.387-0.748,2.387-2.277c0-1.461-0.854-2.104-2.315-2.104
			C113.461,99.427,112.09,99.909,112.09,99.909z"/>
		<path fill="#FFFFFF" d="M128.059,92.199h1.729v15.884h-1.729V92.199z"/>
		<path fill="#FFFFFF" d="M144.223,98.823h3.436v6.144c0,0-2.527,0.43-4.041,0.43c-3.775,0-4.844-2.314-4.844-6.375
			c0-4.203,1.121-6.375,4.789-6.375c1.871,0,4.096,0.498,4.096,0.498l-0.07,1.515c0,0-2.172-0.32-3.793-0.32
			c-2.6,0-3.239,1.354-3.239,4.687c0,3.273,0.551,4.701,3.188,4.701c0.943,0,2.154-0.197,2.207-0.197v-3.151h-1.727L144.223,98.823
			L144.223,98.823z"/>
		<path fill="#FFFFFF" d="M150.109,96.312h1.674v1.051c0,0,1.266-0.944,2.902-1.266v1.779c-1.638,0.32-2.902,1.086-2.902,1.086v6.23
			h-1.674V96.312z"/>
		<path fill="#FFFFFF" d="M162.896,103.275c0.035,0.516,0.338,0.729,0.891,0.801l-0.072,1.3c-1.014,0-1.656-0.144-2.262-0.658
			c0,0-1.494,0.679-3.008,0.679c-1.693,0-2.582-0.979-2.582-2.797c0-1.815,0.979-2.512,2.848-2.651l2.494-0.231v-0.656
			c0-0.998-0.463-1.442-1.406-1.442c-1.23,0-3.348,0.214-3.348,0.214l-0.072-1.282c0,0,2.154-0.427,3.598-0.427
			c1.939,0,2.92,0.926,2.92,2.938V103.275L162.896,103.275z M158.904,101.156c-0.926,0.089-1.336,0.517-1.336,1.406
			c0,0.891,0.373,1.424,1.192,1.424c1.033,0,2.439-0.444,2.439-0.444v-2.617L158.904,101.156z"/>
		<path fill="#FFFFFF" d="M171.85,97.915c0,0-2.053-0.285-3.151-0.285c-1.068,0-1.709,0.269-1.709,1.142
			c0,0.678,0.409,0.873,2.028,1.141c2.353,0.374,3.148,0.906,3.148,2.652c0,2.084-1.336,2.832-3.508,2.832
			c-1.193,0-3.223-0.375-3.223-0.375l0.069-1.44c0,0,2.103,0.284,3.011,0.284c1.354,0,1.959-0.284,1.959-1.246
			c0-0.748-0.375-0.928-1.959-1.176c-2.228-0.375-3.224-0.818-3.224-2.637c0-1.994,1.603-2.688,3.295-2.688
			c1.315,0,3.293,0.374,3.293,0.374L171.85,97.915z"/>
		<path fill="#FFFFFF" d="M180.584,97.915c0,0-2.047-0.285-3.146-0.285c-1.067,0-1.711,0.269-1.711,1.142
			c0,0.678,0.406,0.873,2.027,1.141c2.354,0.374,3.152,0.906,3.152,2.652c0,2.084-1.336,2.832-3.51,2.832
			c-1.191,0-3.224-0.375-3.224-0.375l0.072-1.44c0,0,2.103,0.284,3.01,0.284c1.353,0,1.957-0.284,1.957-1.246
			c0-0.748-0.373-0.928-1.957-1.176c-2.228-0.375-3.226-0.818-3.226-2.637c0-1.994,1.604-2.688,3.296-2.688
			c1.317,0,3.295,0.374,3.295,0.374L180.584,97.915z"/>
		<path fill="#FFFFFF" d="M189.699,103.275c0.035,0.516,0.338,0.729,0.891,0.801l-0.068,1.3c-1.018,0-1.655-0.144-2.266-0.658
			c0,0-1.49,0.679-3.008,0.679c-1.689,0-2.582-0.979-2.582-2.797c0-1.815,0.98-2.512,2.852-2.651l2.49-0.231v-0.656
			c0-0.998-0.463-1.442-1.402-1.442c-1.229,0-3.352,0.214-3.352,0.214l-0.068-1.282c0,0,2.15-0.427,3.599-0.427
			c1.938,0,2.92,0.926,2.92,2.938v4.22H189.7L189.699,103.275L189.699,103.275z M185.711,101.156
			c-0.926,0.089-1.336,0.517-1.336,1.406c0,0.891,0.373,1.424,1.193,1.424c1.033,0,2.438-0.444,2.438-0.444v-2.617L185.711,101.156z
			"/>
		<path fill="#FFFFFF" d="M199.703,96.312v8.886h-1.688v-0.517c0,0-1.394,0.713-2.494,0.713c-2.527,0-3.045-1.248-3.045-4.453
			v-4.629h1.688v4.609c0,2.173,0.16,2.938,1.656,2.938c0.998,0,2.19-0.533,2.19-0.533v-7.018h1.691L199.703,96.312L199.703,96.312z"
			/>
		<path fill="#FFFFFF" d="M202.246,103.115h1.834l-1.016,4.273h-1.674L202.246,103.115z"/>
		<path fill="#FFFFFF" d="M210.166,105.198V92.839h4.273c3.793,0,4.754,2.279,4.754,5.966c0,3.758-0.889,6.395-4.754,6.395
			L210.166,105.198L210.166,105.198z M214.439,94.479h-2.564v9.08h2.564c2.512,0,2.975-2.172,2.975-4.754
			C217.414,96.241,216.951,94.479,214.439,94.479z"/>
		<path fill="#FFFFFF" d="M227.973,103.684l0.031,1.336c0,0-2.025,0.375-3.543,0.375c-2.672-0.021-3.633-1.496-3.633-4.578
			c0-3.312,1.424-4.699,3.793-4.699c2.457,0,3.689,1.264,3.689,4.113l-0.105,1.229h-5.664c0,1.604,0.57,2.386,2.154,2.386
			C226.062,103.843,227.973,103.684,227.973,103.684z M226.633,100.141c0-1.854-0.588-2.529-2.012-2.529
			c-1.389,0-2.084,0.729-2.102,2.529H226.633z"/>
		<path fill="#FFFFFF" d="M237.58,96.312v8.886h-1.688v-0.517c0,0-1.394,0.713-2.492,0.713c-2.529,0-3.045-1.248-3.045-4.453v-4.629
			h1.688v4.609c0,2.173,0.16,2.938,1.656,2.938c0.996,0,2.189-0.533,2.189-0.533v-7.018h1.69L237.58,96.312L237.58,96.312z"/>
		<path fill="#FFFFFF" d="M242.277,97.826v3.882c0,1.604,0.09,2.103,1.104,2.103c0.498,0,1.515-0.088,1.515-0.088l0.088,1.459
			c0,0-1.193,0.215-1.816,0.215c-1.938,0-2.561-0.729-2.561-3.295v-4.272h-1.193v-1.515h1.193v-2.672h1.674v2.672h2.619v1.515
			L242.277,97.826L242.277,97.826z"/>
		<path fill="#FFFFFF" d="M252.869,97.915c0,0-2.047-0.285-3.146-0.285c-1.067,0-1.715,0.269-1.715,1.142
			c0,0.678,0.41,0.873,2.031,1.141c2.354,0.374,3.152,0.906,3.152,2.652c0,2.084-1.336,2.832-3.51,2.832
			c-1.191,0-3.224-0.375-3.224-0.375l0.072-1.44c0,0,2.102,0.284,3.01,0.284c1.353,0,1.957-0.284,1.957-1.246
			c0-0.748-0.373-0.928-1.957-1.176c-2.228-0.375-3.226-0.818-3.226-2.637c0-1.994,1.604-2.688,3.295-2.688
			c1.318,0,3.295,0.374,3.295,0.374L252.869,97.915z"/>
		<path fill="#FFFFFF" d="M261.223,96.4l-0.072,1.461c0,0-1.405-0.16-2.082-0.16c-1.94,0-2.422,0.766-2.422,2.921
			c0,2.368,0.392,3.169,2.438,3.169c0.676,0,2.084-0.143,2.084-0.143l0.056,1.461c0,0-1.729,0.285-2.603,0.285
			c-2.779,0-3.687-1.336-3.687-4.772c0-3.224,1.066-4.505,3.722-4.505C259.545,96.116,261.223,96.4,261.223,96.4z"/>
		<path fill="#FFFFFF" d="M263.334,105.198V92.52h1.674v4.147c0,0,1.443-0.552,2.564-0.552c2.457,0,3.045,1.335,3.045,4.434v4.646
			h-1.674v-4.629c0-2.012-0.23-2.885-1.674-2.885c-0.979,0-2.263,0.406-2.263,0.406v7.104h-1.674L263.334,105.198L263.334,105.198z"
			/>
		<path fill="#FFFFFF" d="M273.307,92.52h1.688v12.68h-1.688V92.52z"/>
		<path fill="#FFFFFF" d="M284.234,103.275c0.035,0.516,0.338,0.729,0.891,0.801l-0.068,1.3c-1.018,0-1.656-0.144-2.266-0.658
			c0,0-1.494,0.679-3.008,0.679c-1.693,0-2.582-0.979-2.582-2.797c0-1.815,0.98-2.512,2.848-2.651l2.494-0.231v-0.656
			c0-0.998-0.463-1.442-1.402-1.442c-1.229,0-3.352,0.214-3.352,0.214l-0.072-1.282c0,0,2.154-0.427,3.602-0.427
			c1.938,0,2.921,0.926,2.921,2.938v4.22h-0.005V103.275L284.234,103.275z M280.246,101.156c-0.926,0.089-1.336,0.517-1.336,1.406
			c0,0.891,0.373,1.424,1.193,1.424c1.032,0,2.438-0.444,2.438-0.444v-2.617L280.246,101.156z"/>
		<path fill="#FFFFFF" d="M287.15,105.198v-8.886h1.674v0.567c0,0,1.355-0.766,2.564-0.766c2.475,0,3.062,1.335,3.062,4.434v4.646
			h-1.691v-4.684c0-2.013-0.229-2.886-1.709-2.886c-1.141,0-2.227,0.534-2.227,0.534v7.033h-1.675v0.007H287.15z"/>
		<path fill="#FFFFFF" d="M304.062,105.198h-1.675v-0.517c0,0-1.315,0.691-2.51,0.691c-2.066,0-3.295-1.032-3.295-4.63
			c0-3.169,1.086-4.629,3.703-4.629c0.729,0,1.924,0.194,2.102,0.214V92.73h1.674L304.062,105.198L304.062,105.198z
			 M302.389,103.311v-5.502c-0.19-0.021-1.246-0.181-1.989-0.181c-1.554,0-2.105,0.998-2.105,3.136c0,2.491,0.748,3.045,1.816,3.062
			C301.143,103.809,302.389,103.311,302.389,103.311z"/>
	</g>
</g>
</svg>
