<?xml version="1.0" encoding="utf-8"?>
<!-- Generator: Adobe Illustrator 16.0.4, SVG Export Plug-In . SVG Version: 6.00 Build 0)  -->
<!DOCTYPE svg PUBLIC "-//W3C//DTD SVG 1.1//EN" "http://www.w3.org/Graphics/SVG/1.1/DTD/svg11.dtd">
<svg version="1.1" id="Ebene_1" xmlns="http://www.w3.org/2000/svg" xmlns:xlink="http://www.w3.org/1999/xlink" x="0px" y="0px"
	 width="307px" height="82px" viewBox="-0.5 -0.594 307 82" enable-background="new -0.5 -0.594 307 82" xml:space="preserve">
<g>
	<g>
		<path fill="#0098BA" d="M22.059,7.996c0,0-6.769-0.77-9.554-0.77c-3.551,0-5.231,1.058-5.231,3.218
			c0,2.062,1.297,2.832,6.77,4.561c7.058,2.257,9.218,4.224,9.218,9.984c0,6.769-4.851,10.081-11.617,10.081
			c-3.648,0-10.082-1.344-10.082-1.344l0.674-5.905c0,0,5.951,0.815,9.359,0.815c3.553,0,5.09-0.959,5.09-3.505
			c0-2.017-1.152-2.977-5.857-4.319C3.485,18.701,0.7,16.204,0.7,10.54c0-6.337,4.512-9.745,11.809-9.745
			c3.697,0,10.082,1.297,10.082,1.297L22.059,7.996z"/>
		<path fill="#0098BA" d="M46.104,28.734l0.098,4.992c0,0-5.521,1.345-9.986,1.345c-7.247,0-10.319-3.601-10.319-12.241
			c0-8.545,3.6-12.865,10.608-12.865c7.058,0,10.466,3.553,10.466,10.801l-0.48,4.515H32.376c0.049,2.735,1.394,3.889,4.849,3.889
			C41.161,29.166,46.104,28.734,46.104,28.734z M40.632,20.333c0-3.407-1.104-4.655-4.127-4.655c-3.071,0-4.129,1.487-4.178,4.655
			H40.632z"/>
		<path fill="#0098BA" d="M51.286,34.495V10.541h6.385v1.152c0,0,1.584-0.771,3.267-1.297c0.815-0.239,1.727-0.434,2.399-0.434
			c2.688,0,4.562,0.674,5.855,1.971c2.449-0.912,5.617-1.971,8.209-1.971c6.529,0,8.449,3.792,8.449,12.001v12.529h-6.435v-9.89
			c0-6.049,0.097-8.642-3.358-8.642c-1.92,0-4.466,0.912-4.466,0.912s0.191,3.312,0.191,5.185v12.435H65.35V22.156
			c0-4.32-0.386-6.192-3.361-6.192c-1.584,0-4.271,0.815-4.271,0.815v17.714L51.286,34.495L51.286,34.495z"/>
		<path fill="#0098BA" d="M110.137,27.966c0.096,1.344,0.239,2.016,1.584,2.256l-0.191,4.85c-3.217,0-4.85-0.336-6.865-1.682
			c0,0-3.457,1.682-7.057,1.682c-5.041,0-7.441-2.784-7.441-7.873c0-5.426,3.121-6.96,8.402-7.346l5.135-0.385V18.22
			c0-1.729-0.912-2.592-2.832-2.592c-3.168,0-8.977,0.385-8.977,0.385l-0.191-4.656c0,0,6.049-1.394,9.984-1.394
			c5.473,0,8.449,2.448,8.449,8.257V27.966z M99.335,24.318c-1.68,0.144-2.688,0.96-2.688,2.688c0,1.68,0.625,2.784,2.354,2.784
			c1.584,0,4.703-0.721,4.703-0.721v-5.136L99.335,24.318z"/>
		<path fill="#0098BA" d="M116.325,0.843h6.434v6.576h-6.434V0.843z M116.325,10.54h6.434v23.954h-6.434V10.54z"/>
		<path fill="#0098BA" d="M128.708,34.495V10.541h6.435v1.344c0,0,3.217-1.92,5.953-1.92c6.721,0,8.446,4.225,8.446,12.002v12.528
			h-6.432V21.724c0-3.646-0.48-6-3.6-6c-2.259,0-4.369,0.863-4.369,0.863v17.905L128.708,34.495L128.708,34.495z"/>
		<path fill="#0098BA" d="M173.829,28.734l0.101,4.992c0,0-5.521,1.345-9.986,1.345c-7.248,0-10.318-3.601-10.318-12.241
			c0-8.545,3.602-12.865,10.607-12.865c7.059,0,10.467,3.553,10.467,10.801l-0.48,4.515h-14.111
			c0.049,2.735,1.394,3.889,4.849,3.889C168.889,29.166,173.829,28.734,173.829,28.734z M168.355,20.333
			c0-3.407-1.104-4.655-4.127-4.655c-3.071,0-4.129,1.487-4.18,4.655H168.355z"/>
		<path fill="#0098BA" d="M186.311,1.371h12.573l7.201,33.123h-6.625l-1.485-5.568h-11.14l-1.248,5.568h-6.625L186.311,1.371z
			 M188.229,22.541h8.496l-3.119-15.072h-2.16L188.229,22.541z"/>
		<path fill="#0098BA" d="M209.777,0.892h6.433v33.603h-6.433V0.892z"/>
		<path fill="#0098BA" d="M222.161,10.54h6.435v1.104c0,0,3.069-1.683,5.426-1.683c6.336,0,9.457,3.12,9.457,12.339
			c0,10.226-3.556,12.77-10.896,12.77c-1.773,0-3.982-0.385-3.982-0.385v9.89h-6.434V10.54H222.161L222.161,10.54z M228.593,16.781
			v12.24c0,0,2.16,0.24,3.509,0.24c3.84,0,4.85-1.871,4.85-6.961c0-4.849-1.635-6.434-4.178-6.434
			C231.141,15.869,228.593,16.781,228.593,16.781z"/>
		<path fill="#0098BA" d="M247.891,0.843h6.436v6.576h-6.436V0.843z M247.891,10.54h6.436v23.954h-6.436V10.54z"/>
		<path fill="#0098BA" d="M259.312,34.495V10.541h6.432v1.344c0,0,3.217-1.92,5.953-1.92c6.721,0,8.449,4.225,8.449,12.002v12.528
			h-6.437V21.724c0-3.646-0.479-6-3.603-6c-2.256,0-4.366,0.863-4.366,0.863v17.905L259.312,34.495L259.312,34.495z"/>
		<path fill="#0098BA" d="M304.433,28.734l0.101,4.992c0,0-5.521,1.345-9.984,1.345c-7.25,0-10.32-3.601-10.32-12.241
			c0-8.545,3.603-12.865,10.607-12.865c7.057,0,10.465,3.553,10.465,10.801l-0.479,4.515H290.71
			c0.047,2.735,1.394,3.889,4.851,3.889C299.487,29.166,304.433,28.734,304.433,28.734z M298.96,20.333
			c0-3.407-1.104-4.655-4.129-4.655c-3.069,0-4.127,1.487-4.177,4.655H298.96z"/>
		<path fill="#0098BA" d="M1.208,72.08V48.735h8.408c6.43,0,8.305,4.989,8.305,11.319c0,6.364-1.842,12.024-8.305,12.024
			L1.208,72.08L1.208,72.08z M9.616,50.677H3.251v19.462h6.365c4.889,0,6.162-5.125,6.162-10.083
			C15.778,55.099,14.505,50.677,9.616,50.677z"/>
		<path fill="#0098BA" d="M34.305,70.271l0.065,1.676c0,0-3.783,0.469-6.396,0.469c-4.99-0.033-6.498-3.049-6.498-8.643
			c0-6.463,2.813-8.74,6.899-8.74c4.32,0,6.599,2.277,6.599,7.904l-0.066,1.606H23.52c0,3.951,1.139,6.029,4.655,6.029
			C30.62,70.574,34.305,70.271,34.305,70.271z M32.964,62.87c0-4.421-1.438-6.062-4.588-6.062c-3.049,0-4.856,1.707-4.856,6.062
			H32.964z"/>
		<path fill="#0098BA" d="M50.352,57.376c0,0-3.617-0.535-5.795-0.535c-2.109,0-3.951,0.568-3.951,2.846
			c0,1.742,0.836,2.277,4.354,2.813c4.39,0.703,6.029,1.507,6.029,4.725c0,3.918-2.445,5.188-6.465,5.188
			c-2.043,0-5.76-0.603-5.76-0.603l0.133-1.774c0,0,3.752,0.567,5.459,0.567c2.914,0,4.59-0.67,4.59-3.28
			c0-2.011-1.006-2.412-4.59-2.98c-4.019-0.637-5.793-1.374-5.793-4.589c0-3.651,2.979-4.723,5.895-4.723
			c2.545,0,5.961,0.569,5.961,0.569L50.352,57.376z"/>
		<path fill="#0098BA" d="M69.212,48.736h4.855l6.598,23.311h-2.076l-1.942-6.328H66.464l-1.875,6.361h-2.075L69.212,48.736z
			 M66.969,63.741h9.209L72.46,50.644h-1.741L66.969,63.741z"/>
		<path fill="#0098BA" d="M84.655,47.898h2.01V72.08h-2.01V47.898z"/>
		<path fill="#0098BA" d="M92.694,55.333h2.01v1.271c0,0,2.611-1.573,5.291-1.573c4.188,0,5.963,2.579,5.963,8.474
			c0,6.433-2.078,8.909-7.233,8.909c-1.677,0-3.451-0.301-4.021-0.436v7.637h-2.01V55.333L92.694,55.333z M94.704,58.347v11.856
			c0.568,0.102,2.344,0.402,3.918,0.402c3.92,0,5.258-1.979,5.258-7.168c0-4.855-1.506-6.599-4.086-6.599
			C97.352,56.841,94.704,58.347,94.704,58.347z"/>
		<path fill="#0098BA" d="M122.372,70.271l0.066,1.676c0,0-3.783,0.469-6.396,0.469c-4.989-0.033-6.498-3.049-6.498-8.643
			c0-6.463,2.814-8.74,6.9-8.74c4.32,0,6.598,2.277,6.598,7.904l-0.065,1.606h-11.39c0,3.951,1.14,6.029,4.656,6.029
			C118.688,70.574,122.372,70.271,122.372,70.271z M121.032,62.87c0-4.421-1.439-6.062-4.588-6.062
			c-3.049,0-4.857,1.707-4.857,6.062H121.032z"/>
		<path fill="#0098BA" d="M138.419,57.376c0,0-3.616-0.535-5.795-0.535c-2.108,0-3.951,0.568-3.951,2.846
			c0,1.742,0.836,2.277,4.354,2.813c4.389,0.703,6.029,1.507,6.029,4.725c0,3.918-2.445,5.188-6.466,5.188
			c-2.043,0-5.76-0.603-5.76-0.603l0.133-1.774c0,0,3.752,0.567,5.459,0.567c2.914,0,4.591-0.67,4.591-3.28
			c0-2.011-1.007-2.412-4.591-2.98c-4.018-0.637-5.793-1.374-5.793-4.589c0-3.651,2.98-4.723,5.896-4.723
			c2.545,0,5.961,0.569,5.961,0.569L138.419,57.376z"/>
		<path fill="#0098BA" d="M163.241,53.792c0,3.215-1.574,4.756-5.259,6.297l5.355,5.325c0.369-1.205,0.771-2.981,0.975-4.655
			l1.976,0.033c-0.302,2.244-0.804,4.42-1.406,5.961l4.455,4.32l-1.271,1.407l-4.152-4.021c-1.809,2.849-4.086,4.056-7.537,4.056
			c-5.628,0-7.804-2.746-7.804-7.306c0-3.95,1.842-5.592,5.259-6.765c-1.509-1.741-1.708-2.882-1.708-4.789
			c0-2.979,1.942-4.991,5.56-4.991C161.532,48.667,163.241,50.677,163.241,53.792z M162.402,67.123l-7.233-7.268
			c-3.215,0.971-4.555,2.311-4.555,5.325c0,3.482,1.707,5.426,5.827,5.426C159.154,70.607,160.997,69.602,162.402,67.123z
			 M155.641,57.745l1.039,1.038c3.245-1.271,4.521-2.346,4.521-4.891c0-2.145-1.008-3.351-3.52-3.351
			c-2.275,0-3.552,1.072-3.552,3.282C154.13,55.2,154.398,56.505,155.641,57.745z"/>
		<path fill="#0098BA" d="M192.284,72.08h-2.011v-1.207c0,0-2.646,1.541-5.358,1.541c-2.812,0-5.858-1.004-5.858-8.573
			c0-5.828,1.739-8.81,7-8.81c1.477,0,3.584,0.302,4.221,0.401v-6.799h2.012v23.444h-0.004L192.284,72.08L192.284,72.08z
			 M190.273,69.133V57.208c-0.67-0.066-2.812-0.367-4.151-0.367c-3.983,0-5.06,2.444-5.06,7.066c0,5.862,2.109,6.631,4.054,6.665
			C187.598,70.539,190.273,69.133,190.273,69.133z"/>
		<path fill="#0098BA" d="M210.005,70.271l0.065,1.676c0,0-3.782,0.469-6.396,0.469c-4.986-0.033-6.494-3.049-6.494-8.643
			c0-6.463,2.812-8.74,6.896-8.74c4.318,0,6.598,2.277,6.598,7.904l-0.062,1.606h-11.389c0,3.951,1.139,6.029,4.652,6.029
			C206.32,70.574,210.005,70.271,210.005,70.271z M208.665,62.87c0-4.421-1.438-6.062-4.588-6.062c-3.05,0-4.854,1.707-4.854,6.062
			H208.665z"/>
		<path fill="#0098BA" d="M226.055,57.376c0,0-3.617-0.535-5.798-0.535c-2.106,0-3.948,0.568-3.948,2.846
			c0,1.742,0.836,2.277,4.354,2.813c4.39,0.703,6.028,1.507,6.028,4.725c0,3.918-2.444,5.188-6.465,5.188
			c-2.043,0-5.764-0.603-5.764-0.603l0.137-1.774c0,0,3.752,0.567,5.459,0.567c2.914,0,4.59-0.67,4.59-3.28
			c0-2.011-1.006-2.412-4.59-2.98c-4.021-0.637-5.793-1.374-5.793-4.589c0-3.651,2.979-4.723,5.896-4.723
			c2.545,0,5.961,0.569,5.961,0.569L226.055,57.376z"/>
		<path fill="#0098BA" d="M238.854,74.861c0-2.043,0.972-2.914,2.746-4.221c-0.604-0.369-0.871-1.24-0.871-2.277
			c0-0.57,1.068-2.613,1.068-2.613c-1.438-0.602-2.713-1.909-2.713-5.057c0-4.086,2.379-5.693,6.029-5.693
			c1.74,0,3.518,0.436,3.518,0.436l4.822-0.101v1.774l-3.283-0.066c0.703,0.703,1.178,1.676,1.178,3.65
			c0,4.288-2.049,5.594-6.332,5.594c-0.305,0-1.342-0.066-1.707-0.135c0,0-0.67,1.641-0.67,2.076c0,1.438,0.269,1.641,4.254,1.641
			c4.556,0,6.297,0.807,6.297,4.857c0,3.752-2.516,5.291-7.336,5.291C240.458,80.018,238.854,78.744,238.854,74.861z
			 M242.973,71.512c-1.605,1.139-2.107,1.773-2.107,3.215c0,2.611,0.902,3.551,5.021,3.551c3.652,0,5.229-1.006,5.229-3.481
			c0-2.848-1.205-3.146-4.355-3.146C245.482,71.645,242.973,71.512,242.973,71.512z M249.3,60.693c0-3.249-1.104-4.021-4.186-4.021
			c-2.681,0-4.021,1.039-4.021,4.021c0,2.646,0.938,3.918,3.919,3.918C248.098,64.611,249.3,63.607,249.3,60.693z"/>
		<path fill="#0098BA" d="M268.964,70.271l0.065,1.676c0,0-3.782,0.469-6.396,0.469c-4.989-0.033-6.497-3.049-6.497-8.643
			c0-6.463,2.812-8.74,6.897-8.74c4.319,0,6.6,2.277,6.6,7.904l-0.065,1.606h-11.387c0,3.951,1.139,6.029,4.652,6.029
			C265.279,70.574,268.964,70.271,268.964,70.271z M267.624,62.87c0-4.421-1.438-6.062-4.588-6.062c-3.05,0-4.854,1.707-4.854,6.062
			H267.624z"/>
		<path fill="#0098BA" d="M274.395,72.08V55.333h2.013v1.239c0,0,2.811-1.541,5.426-1.541c4.588,0,5.594,2.11,5.594,8.34v8.708
			h-1.977v-8.708c0-4.892-0.535-6.531-3.888-6.531c-2.61,0-5.155,1.406-5.155,1.406V72.08H274.395z"/>
		<path fill="#0098BA" d="M304.104,57.376c0,0-3.615-0.535-5.794-0.535c-2.108,0-3.952,0.568-3.952,2.846
			c0,1.742,0.838,2.277,4.354,2.813c4.387,0.703,6.027,1.507,6.027,4.725c0,3.918-2.445,5.188-6.463,5.188
			c-2.044,0-5.763-0.603-5.763-0.603l0.135-1.774c0,0,3.75,0.567,5.46,0.567c2.914,0,4.588-0.67,4.588-3.28
			c0-2.011-1.004-2.412-4.588-2.98c-4.021-0.637-5.796-1.374-5.796-4.589c0-3.651,2.979-4.723,5.896-4.723
			c2.547,0,5.963,0.569,5.963,0.569L304.104,57.376z"/>
	</g>
</g>
</svg>
