<?xml version="1.0" encoding="utf-8"?>
<!-- Generator: Adobe Illustrator 16.0.4, SVG Export Plug-In . SVG Version: 6.00 Build 0)  -->
<!DOCTYPE svg PUBLIC "-//W3C//DTD SVG 1.1//EN" "http://www.w3.org/Graphics/SVG/1.1/DTD/svg11.dtd">
<svg version="1.1" id="Ebene_1" xmlns="http://www.w3.org/2000/svg" xmlns:xlink="http://www.w3.org/1999/xlink" x="0px" y="0px"
	 width="307px" height="85px" viewBox="-0.617 -0.511 307 85" enable-background="new -0.617 -0.511 307 85" xml:space="preserve">
<g>
	<g>
		<path fill="#0098BA" d="M19.555,7.047c0,0-5.979-0.678-8.438-0.678c-3.138,0-4.621,0.934-4.621,2.842
			c0,1.82,1.145,2.502,5.979,4.025c6.234,1.993,8.144,3.73,8.144,8.819c0,5.979-4.283,8.903-10.263,8.903
			c-3.223,0-8.905-1.188-8.905-1.188l0.594-5.216c0,0,5.258,0.722,8.27,0.722c3.14,0,4.494-0.849,4.494-3.096
			c0-1.781-1.018-2.629-5.172-3.816c-6.49-1.863-8.949-4.068-8.949-9.072c0-5.599,3.984-8.606,10.431-8.606
			c3.266,0,8.905,1.146,8.905,1.146L19.555,7.047z"/>
		<path fill="#0098BA" d="M41.221,25.364l0.084,4.41c0,0-4.875,1.188-8.82,1.188c-6.401,0-9.114-3.184-9.114-10.813
			c0-7.548,3.18-11.362,9.371-11.362c6.231,0,9.243,3.14,9.243,9.541l-0.424,3.984H29.094c0.041,2.417,1.229,3.436,4.281,3.436
			C36.854,25.748,41.221,25.364,41.221,25.364z M36.387,17.944c0-3.011-0.975-4.112-3.646-4.112c-2.716,0-3.646,1.313-3.689,4.112
			H36.387z"/>
		<path fill="#0098BA" d="M52.203,14.427v8.014c0,2.12,0,3.097,1.778,3.097c1.188,0,3.226-0.084,3.226-0.084l0.254,4.877
			c0,0-2.842,0.635-4.326,0.635c-5.131,0-6.615-1.948-6.615-8.058v-8.479h-2.503V9.297h2.502V3.358h5.685v5.938h5.215v5.132
			L52.203,14.427L52.203,14.427z"/>
		<path fill="#0098BA" d="M65.346,14.427v8.014c0,2.12,0,3.097,1.779,3.097c1.188,0,3.225-0.084,3.225-0.084l0.254,4.877
			c0,0-2.842,0.635-4.326,0.635c-5.131,0-6.614-1.948-6.614-8.058v-8.479h-2.502V9.297h2.502V3.358h5.684v5.938h5.215v5.132
			L65.346,14.427L65.346,14.427z"/>
		<path fill="#0098BA" d="M74.207,0.729h5.684v5.812h-5.684V0.729z M74.207,9.295h5.684v21.16h-5.684V9.295z"/>
		<path fill="#0098BA" d="M85.568,30.455V9.295h5.64v1.02c0,0,1.399-0.679,2.885-1.146c0.721-0.213,1.525-0.383,2.119-0.383
			c2.375,0,4.029,0.594,5.174,1.738c2.162-0.806,4.961-1.738,7.252-1.738c5.766,0,7.463,3.353,7.463,10.604v11.066h-5.684v-8.734
			c0-5.344,0.086-7.635-2.967-7.635c-1.697,0-3.943,0.808-3.943,0.808s0.168,2.926,0.168,4.58v10.981h-5.682V19.559
			c0-3.816-0.341-5.473-2.97-5.473c-1.397,0-3.772,0.723-3.772,0.723v15.646H85.568z"/>
		<path fill="#0098BA" d="M137.975,24.688c0.086,1.188,0.213,1.78,1.4,1.992l-0.17,4.282c-2.843,0-4.283-0.297-6.064-1.483
			c0,0-3.053,1.483-6.231,1.483c-4.453,0-6.572-2.459-6.572-6.953c0-4.793,2.756-6.148,7.42-6.488l4.537-0.339V16.08
			c0-1.526-0.805-2.291-2.502-2.291c-2.799,0-7.931,0.34-7.931,0.34l-0.17-4.112c0,0,5.345-1.229,8.82-1.229
			c4.834,0,7.463,2.162,7.463,7.295V24.688L137.975,24.688z M128.434,21.465c-1.481,0.127-2.373,0.849-2.373,2.375
			c0,1.481,0.551,2.459,2.076,2.459c1.4,0,4.156-0.637,4.156-0.637v-4.537L128.434,21.465z"/>
		<path fill="#0098BA" d="M143.869,30.455V9.295h5.682v1.188c0,0,2.842-1.694,5.26-1.694c5.938,0,7.463,3.73,7.463,10.603v11.067
			h-5.682V19.18c0-3.223-0.424-5.301-3.182-5.301c-1.995,0-3.859,0.764-3.859,0.764v15.816L143.869,30.455L143.869,30.455z"/>
		<path fill="#0098BA" d="M184.148,24.688c0.084,1.188,0.211,1.78,1.397,1.992l-0.168,4.282c-2.842,0-4.283-0.297-6.063-1.483
			c0,0-3.054,1.483-6.23,1.483c-4.451,0-6.572-2.459-6.572-6.953c0-4.793,2.756-6.148,7.422-6.488l4.537-0.339V16.08
			c0-1.526-0.807-2.291-2.502-2.291c-2.799,0-7.93,0.34-7.93,0.34l-0.17-4.112c0,0,5.344-1.229,8.816-1.229
			c4.834,0,7.463,2.162,7.463,7.295V24.688z M174.607,21.465c-1.48,0.127-2.375,0.849-2.375,2.375c0,1.481,0.555,2.459,2.078,2.459
			c1.397,0,4.155-0.637,4.155-0.637v-4.537L174.607,21.465z"/>
		<path fill="#0098BA" d="M197.082,1.194h11.107l6.358,29.261h-5.854l-1.312-4.92h-9.838l-1.104,4.92h-5.854L197.082,1.194z
			 M198.775,19.896h7.51l-2.762-13.314h-1.904L198.775,19.896z"/>
		<path fill="#0098BA" d="M218.064,0.772h5.688v29.685h-5.688V0.772z"/>
		<path fill="#0098BA" d="M229.258,9.295h5.682v0.976c0,0,2.715-1.483,4.791-1.483c5.603,0,8.355,2.758,8.355,10.897
			c0,9.032-3.141,11.278-9.627,11.278c-1.568,0-3.521-0.338-3.521-0.338v8.732h-5.682V9.295H229.258z M234.939,14.808v10.813
			c0,0,1.908,0.211,3.1,0.211c3.393,0,4.279-1.652,4.279-6.147c0-4.283-1.438-5.683-3.688-5.683
			C237.188,14.002,234.939,14.808,234.939,14.808z"/>
		<path fill="#0098BA" d="M252.238,0.729h5.686v5.812h-5.686V0.729z M252.238,9.295h5.686v21.16h-5.686V9.295z"/>
		<path fill="#0098BA" d="M263.43,30.455V9.295h5.684v1.188c0,0,2.845-1.694,5.263-1.694c5.937,0,7.463,3.73,7.463,10.603v11.067
			h-5.687V19.18c0-3.223-0.424-5.301-3.182-5.301c-1.992,0-3.854,0.764-3.854,0.764v15.816L263.43,30.455L263.43,30.455z"/>
		<path fill="#0098BA" d="M303.541,24.688c0.088,1.188,0.215,1.78,1.4,1.992l-0.171,4.282c-2.842,0-4.282-0.297-6.063-1.483
			c0,0-3.053,1.483-6.23,1.483c-4.453,0-6.572-2.459-6.572-6.953c0-4.793,2.761-6.148,7.425-6.488l4.533-0.339V16.08
			c0-1.526-0.806-2.291-2.503-2.291c-2.799,0-7.93,0.34-7.93,0.34l-0.172-4.112c0,0,5.346-1.229,8.82-1.229
			c4.834,0,7.463,2.162,7.463,7.295V24.688L303.541,24.688z M294,21.465c-1.482,0.127-2.373,0.849-2.373,2.375
			c0,1.481,0.551,2.459,2.076,2.459c1.398,0,4.154-0.637,4.154-0.637v-4.537L294,21.465z"/>
		<path fill="#0098BA" d="M1.535,73.191V43.508h2.598V70.68h13.543v2.512H1.535L1.535,73.191z"/>
		<path fill="#0098BA" d="M38.201,70.895l0.086,2.129c0,0-4.812,0.599-8.136,0.599c-6.346-0.043-8.262-3.875-8.262-10.988
			c0-8.219,3.578-11.113,8.773-11.113c5.494,0,8.389,2.896,8.389,10.051l-0.084,2.044h-14.48c0,5.024,1.449,7.666,5.921,7.666
			C33.516,71.275,38.201,70.895,38.201,70.895z M36.498,61.48c0-5.621-1.83-7.708-5.834-7.708c-3.875,0-6.177,2.172-6.177,7.708
			H36.498z"/>
		<path fill="#0098BA" d="M59.324,43.51h6.174l8.391,29.641h-2.641l-2.472-8.048H55.832l-2.386,8.091h-2.641L59.324,43.51z
			 M56.469,62.588H68.18l-4.727-16.65h-2.216L56.469,62.588z"/>
		<path fill="#0098BA" d="M78.955,42.443h2.555v30.749h-2.555V42.443z"/>
		<path fill="#0098BA" d="M89.173,51.897h2.555v1.618c0,0,3.322-2.001,6.729-2.001c5.324,0,7.58,3.278,7.58,10.774
			c0,8.176-2.64,11.325-9.197,11.325c-2.131,0-4.387-0.383-5.111-0.555v9.711h-2.555L89.173,51.897L89.173,51.897z M91.729,55.73
			v15.077c0.726,0.127,2.98,0.51,4.982,0.51c4.981,0,6.688-2.512,6.688-9.111c0-6.177-1.918-8.391-5.196-8.391
			C95.094,53.814,91.729,55.73,91.729,55.73z"/>
		<path fill="#0098BA" d="M111.873,43.381h2.555v3.192h-2.555V43.381z M111.873,51.897h2.555v21.294h-2.555V51.897z"/>
		<path fill="#0098BA" d="M145.428,49.938c0,4.089-2.002,6.048-6.686,8.007l6.813,6.771c0.469-1.533,0.979-3.791,1.234-5.92
			l2.512,0.043c-0.383,2.853-1.021,5.621-1.787,7.58l5.664,5.494l-1.619,1.785l-5.281-5.107c-2.299,3.619-5.194,5.151-9.582,5.151
			c-7.153,0-9.922-3.491-9.922-9.282c0-5.025,2.343-7.112,6.687-8.604c-1.916-2.215-2.172-3.662-2.172-6.09
			c0-3.79,2.471-6.347,7.069-6.347C143.255,43.424,145.428,45.98,145.428,49.938z M144.363,66.891l-9.198-9.241
			c-4.088,1.233-5.791,2.938-5.791,6.771c0,4.433,2.172,6.897,7.41,6.897C140.232,71.316,142.576,70.041,144.363,66.891z
			 M135.762,54.965l1.32,1.32c4.131-1.617,5.748-2.98,5.748-6.22c0-2.728-1.277-4.259-4.472-4.259c-2.896,0-4.516,1.361-4.516,4.174
			C133.844,51.729,134.186,53.391,135.762,54.965z"/>
		<path fill="#0098BA" d="M165.613,42.443h2.559v30.749h-2.559V42.443z"/>
		<path fill="#0098BA" d="M190.1,69.656c0.129,1.234,1.363,1.703,2.771,1.874l-0.129,2.044c-2.088,0-3.662-0.426-4.812-1.701
			c0,0-4.002,1.746-8.006,1.746c-3.748,0-5.834-2.174-5.834-6.434c0-3.917,1.959-5.792,6.26-6.218l7.24-0.725v-1.916
			c0-3.193-1.447-4.475-4.174-4.475c-3.066,0-8.049,0.6-8.049,0.6l-0.129-2.09c0,0,4.896-0.852,8.348-0.852
			c4.43,0,6.516,2.215,6.516,6.812V69.65H190.1V69.656z M180.646,62.973c-2.854,0.255-3.918,1.617-3.918,4.173
			c0,2.728,1.19,4.259,3.532,4.259c3.365,0,7.326-1.445,7.326-1.445v-7.71L180.646,62.973z"/>
		<path fill="#0098BA" d="M204.496,76.729c0-2.6,1.232-3.705,3.488-5.365c-0.767-0.469-1.104-1.575-1.104-2.896
			c0-0.727,1.361-3.321,1.361-3.321c-1.83-0.767-3.449-2.429-3.449-6.431c0-5.196,3.021-7.24,7.666-7.24
			c2.215,0,4.474,0.554,4.474,0.554l6.133-0.128v2.258l-4.174-0.086c0.896,0.896,1.489,2.131,1.489,4.645
			c0,5.451-2.598,7.111-8.049,7.111c-0.388,0-1.705-0.087-2.172-0.172c0,0-0.854,2.088-0.854,2.643c0,1.83,0.342,2.089,5.408,2.089
			c5.791,0,8.008,1.021,8.008,6.174c0,4.771-3.193,6.729-9.326,6.729C206.541,83.285,204.496,81.668,204.496,76.729z M209.73,72.47
			c-2.043,1.446-2.683,2.257-2.683,4.089c0,3.32,1.146,4.515,6.388,4.515c4.646,0,6.646-1.277,6.646-4.431
			c0-3.619-1.533-4.002-5.537-4.002C212.926,72.641,209.73,72.47,209.73,72.47z M217.785,58.713c0-4.131-1.406-5.109-5.324-5.109
			c-3.406,0-5.111,1.32-5.111,5.109c0,3.365,1.193,4.98,4.984,4.98C216.25,63.694,217.785,62.418,217.785,58.713z"/>
		<path fill="#0098BA" d="M242.777,70.895l0.086,2.129c0,0-4.812,0.599-8.135,0.599c-6.347-0.043-8.263-3.875-8.263-10.988
			c0-8.219,3.578-11.113,8.771-11.113c5.494,0,8.392,2.896,8.392,10.051l-0.084,2.044h-14.479c0,5.024,1.449,7.666,5.92,7.666
			C238.094,71.275,242.777,70.895,242.777,70.895z M241.078,61.48c0-5.621-1.83-7.708-5.834-7.708c-3.875,0-6.18,2.172-6.18,7.708
			H241.078z"/>
		<path fill="#0098BA" d="M249.676,73.191V51.897h2.557v1.576c0,0,3.576-1.959,6.898-1.959c5.834,0,7.111,2.683,7.111,10.604v11.071
			h-2.514v-11.07c0-6.219-0.683-8.306-4.939-8.306c-3.32,0-6.559,1.788-6.559,1.788v17.588L249.676,73.191L249.676,73.191z"/>
		<path fill="#0098BA" d="M277.016,54.24v10.35c0,5.324,0.342,6.688,3.365,6.688c1.189,0,3.961-0.299,3.961-0.299l0.127,2.258
			c0,0-2.811,0.43-4.301,0.43c-4.174,0-5.707-1.576-5.707-7.709V54.243h-3.152V51.9h3.152v-6.688h2.555V51.9h7.113v2.343
			L277.016,54.24L277.016,54.24z"/>
		<path fill="#0098BA" d="M304.229,70.895l0.087,2.129c0,0-4.812,0.599-8.136,0.599c-6.346-0.043-8.262-3.875-8.262-10.988
			c0-8.219,3.578-11.113,8.771-11.113c5.493,0,8.389,2.896,8.389,10.051l-0.084,2.044h-14.479c0,5.024,1.448,7.666,5.92,7.666
			C299.545,71.275,304.229,70.895,304.229,70.895z M302.525,61.48c0-5.621-1.83-7.708-5.834-7.708c-3.875,0-6.176,2.172-6.176,7.708
			H302.525z"/>
	</g>
</g>
</svg>
