<?xml version="1.0" encoding="utf-8"?>
<!-- Generator: Adobe Illustrator 16.0.4, SVG Export Plug-In . SVG Version: 6.00 Build 0)  -->
<!DOCTYPE svg PUBLIC "-//W3C//DTD SVG 1.1//EN" "http://www.w3.org/Graphics/SVG/1.1/DTD/svg11.dtd">
<svg version="1.1" id="Ebene_1" xmlns="http://www.w3.org/2000/svg" xmlns:xlink="http://www.w3.org/1999/xlink" x="0px" y="0px"
	 width="306px" height="165px" viewBox="-0.43 449.299 306 165" enable-background="new -0.43 449.299 306 165"
	 xml:space="preserve">
<g>
	<g>
		<g>
			<rect x="0.636" y="591.777" fill="#55EB73" width="303.562" height="21.664"/>
		</g>
	</g>
	<g>
		<path fill="#55EB73" d="M9.852,450.802h15.381l8.806,40.502h-8.103l-1.819-6.809H10.498l-1.527,6.809h-8.1L9.852,450.802z
			 M12.199,476.689H22.59l-3.814-18.435h-2.643L12.199,476.689z"/>
		<path fill="#55EB73" d="M38.789,450.214h7.867v41.09h-7.867V450.214z"/>
		<path fill="#55EB73" d="M54.168,462.013h7.867v1.353c0,0,3.756-2.058,6.633-2.058c7.748,0,11.563,3.816,11.563,15.086
			c0,12.507-4.344,15.615-13.325,15.615c-2.173,0-4.871-0.471-4.871-0.471v12.094h-7.867V462.013z M62.035,469.644v14.972
			c0,0,2.641,0.293,4.284,0.293c4.695,0,5.929-2.289,5.929-8.515c0-5.928-1.996-7.862-5.107-7.862
			C65.146,468.531,62.035,469.644,62.035,469.644z"/>
		<path fill="#55EB73" d="M107.35,469.351c0,0-7.279-0.938-10.684-0.938c-3.405,0-4.109,0.705-4.109,2.291
			c0,1.35,1.115,1.701,5.519,2.406c7.809,1.229,10.272,3.463,10.272,9.393c0,6.867-4.52,9.508-11.856,9.508
			c-4.345,0-11.271-1.408-11.271-1.408l0.236-6.633c0,0,7.276,0.939,10.271,0.939c3.758,0,4.756-0.705,4.756-2.23
			c0-1.291-0.646-1.762-4.756-2.467c-7.631-1.291-11.035-3.051-11.035-9.332c0-6.811,5.226-9.568,11.388-9.568
			c4.227,0,11.389,1.47,11.389,1.47L107.35,469.351z"/>
		<path fill="#55EB73" d="M114.686,491.304v-41.09h7.865v22.951l2.994-0.586l5.811-10.566h8.808l-7.572,13.854l7.982,15.438h-8.863
			l-5.988-11.035l-3.17,0.589v10.446L114.686,491.304L114.686,491.304z"/>
		<path fill="#55EB73" d="M144.737,450.156h7.867v8.043h-7.867V450.156z M144.737,462.013h7.867v29.291h-7.867V462.013z"/>
		<path fill="#55EB73" d="M160.292,450.802h29.354v7.808H179.08v32.694h-8.102v-32.694h-10.687V450.802z"/>
		<path fill="#55EB73" d="M210.773,484.261l0.117,6.104c0,0-6.75,1.645-12.211,1.645c-8.863,0-12.619-4.401-12.619-14.969
			c0-10.449,4.402-15.732,12.974-15.732c8.629,0,12.797,4.347,12.797,13.209l-0.588,5.519h-17.259
			c0.06,3.346,1.703,4.756,5.931,4.756C204.729,484.791,210.773,484.261,210.773,484.261z M204.081,473.99
			c0-4.168-1.351-5.695-5.047-5.695c-3.759,0-5.05,1.82-5.104,5.695H204.081z"/>
		<path fill="#55EB73" d="M241.825,491.304h-7.865v-1.174c0,0-4.051,1.82-7.045,1.82c-8.863,0-11.442-5.342-11.442-15.615
			c0-10.625,4.168-15.027,12.147-15.027c2.172,0,6.34,0.767,6.34,0.767v-11.859h7.865V491.304z M233.96,483.849v-14.907
			c0,0-3.229-0.529-5.752-0.529c-2.937,0-4.756,2.113-4.756,7.926c0,5.928,1.114,8.217,4.813,8.336
			C230.559,484.615,233.96,483.849,233.96,483.849z"/>
		<path fill="#55EB73" d="M272.173,484.261l0.117,6.104c0,0-6.75,1.645-12.211,1.645c-8.863,0-12.619-4.401-12.619-14.969
			c0-10.449,4.401-15.732,12.976-15.732c8.629,0,12.797,4.347,12.797,13.209l-0.588,5.519h-17.261
			c0.062,3.346,1.703,4.756,5.933,4.756C266.126,484.791,272.173,484.261,272.173,484.261z M265.479,473.99
			c0-4.168-1.35-5.695-5.047-5.695c-3.758,0-5.049,1.82-5.106,5.695H265.479z"/>
		<path fill="#55EB73" d="M278.745,491.304v-29.291h7.864v1.646c0,0,3.935-2.351,7.279-2.351c8.22,0,10.332,5.166,10.332,14.677
			v15.319h-7.867v-15.612c0-4.461-0.586-7.339-4.401-7.339c-2.759,0-5.343,1.058-5.343,1.058v21.896h-7.864V491.304L278.745,491.304
			z"/>
		<path fill="#55EB73" d="M12.422,508.47h8.504l11.551,40.814h-3.635L25.44,538.2H7.612L4.33,549.343H0.692L12.422,508.47z
			 M8.494,534.742h16.125l-6.511-22.928H15.06L8.494,534.742z"/>
		<path fill="#55EB73" d="M39.451,507.005h3.518v42.338h-3.518V507.005z"/>
		<path fill="#55EB73" d="M53.521,520.025h3.521v2.227c0,0,4.574-2.756,9.266-2.756c7.328,0,10.438,4.516,10.438,14.836
			c0,11.26-3.638,15.598-12.666,15.598c-2.935,0-6.041-0.524-7.037-0.762v13.371h-3.521L53.521,520.025L53.521,520.025z
			 M57.041,525.3v20.758c0.996,0.179,4.104,0.705,6.86,0.705c6.859,0,9.205-3.461,9.205-12.549c0-8.504-2.639-11.553-7.153-11.553
			C61.674,522.664,57.041,525.3,57.041,525.3z"/>
		<path fill="#55EB73" d="M105.473,546.175l0.117,2.935c0,0-6.627,0.819-11.199,0.819c-8.738-0.059-11.377-5.336-11.377-15.129
			c0-11.315,4.926-15.305,12.08-15.305c7.564,0,11.551,3.986,11.551,13.838l-0.117,2.814H86.59c0,6.92,1.994,10.557,8.152,10.557
			C99.021,546.705,105.473,546.175,105.473,546.175z M103.127,533.216c0-7.74-2.521-10.612-8.033-10.612
			c-5.336,0-8.504,2.989-8.504,10.612H103.127z"/>
		<path fill="#55EB73" d="M148.508,517.326c0,5.631-2.756,8.328-9.205,11.022l9.381,9.324c0.646-2.111,1.351-5.219,1.701-8.149
			l3.458,0.059c-0.525,3.93-1.405,7.74-2.462,10.438l7.801,7.564l-2.229,2.463l-7.271-7.037c-3.168,4.984-7.154,7.099-13.195,7.099
			c-9.852,0-13.661-4.812-13.661-12.785c0-6.918,3.225-9.791,9.207-11.847c-2.64-3.049-2.992-5.043-2.992-8.385
			c0-5.219,3.401-8.735,9.733-8.735C145.518,508.353,148.508,511.873,148.508,517.326z M147.043,540.666l-12.666-12.725
			c-5.631,1.698-7.978,4.045-7.978,9.321c0,6.101,2.992,9.5,10.203,9.5C141.354,546.763,144.58,545.003,147.043,540.666z
			 M135.197,524.246l1.817,1.815c5.688-2.227,7.916-4.104,7.916-8.561c0-3.752-1.76-5.863-6.158-5.863
			c-3.985,0-6.215,1.875-6.215,5.746C132.559,519.789,133.026,522.076,135.197,524.246z"/>
		<path fill="#55EB73" d="M176.354,507.005h3.521v42.338h-3.521V507.005z"/>
		<path fill="#55EB73" d="M190.777,520.025h3.519v28.791c0,6.92-1.875,9.559-9.612,13.485l-1.47-2.989
			c6.22-3.461,7.563-5.103,7.563-10.556V520.025z M190.777,508.177h3.519v4.398h-3.519V508.177z"/>
		<path fill="#55EB73" d="M226.486,520.025v29.317h-3.459v-2.053c0,0-4.573,2.639-9.03,2.639c-8.147,0-9.793-3.575-9.793-14.602
			v-15.305h3.461v15.188c0,8.797,0.879,11.553,6.742,11.553c4.397,0,8.62-2.463,8.62-2.463v-24.274H226.486L226.486,520.025z"/>
		<path fill="#55EB73" d="M258.27,549.343h-3.521v-2.11c0,0-4.631,2.696-9.381,2.696c-4.926,0-10.262-1.76-10.262-15.012
			c0-10.203,3.049-15.422,12.254-15.422c2.58,0,6.274,0.526,7.389,0.703v-11.904h3.521V549.343z M254.747,544.183v-20.877
			c-1.172-0.114-4.927-0.645-7.271-0.645c-6.979,0-8.854,4.281-8.854,12.373c0,10.262,3.692,11.608,7.096,11.67
			C250.059,546.646,254.747,544.183,254.747,544.183z"/>
		<path fill="#55EB73" d="M269.402,520.025h3.519v28.791c0,6.92-1.875,9.559-9.612,13.485l-1.47-2.989
			c6.22-3.461,7.563-5.103,7.563-10.556V520.025z M269.402,508.177h3.519v4.398h-3.519V508.177z"/>
		<path fill="#55EB73" d="M303.47,546.175l0.119,2.935c0,0-6.627,0.819-11.198,0.819c-8.736-0.059-11.375-5.336-11.375-15.129
			c0-11.315,4.924-15.305,12.075-15.305c7.564,0,11.553,3.986,11.553,13.838l-0.114,2.814H284.59c0,6.92,1.994,10.557,8.15,10.557
			C297.021,546.705,303.47,546.175,303.47,546.175z M301.126,533.216c0-7.74-2.52-10.612-8.035-10.612
			c-5.336,0-8.502,2.989-8.502,10.612H301.126z"/>
		<path fill="#55EB73" d="M4.717,569.726h1.82v13.203H4.598v-10.963l-3.201,2.121l-0.899-1.541L4.717,569.726z"/>
		<path fill="#55EB73" d="M15.315,569.726h1.82v13.203h-1.939v-10.963l-3.2,2.121l-0.9-1.541L15.315,569.726z"/>
		<path fill="#55EB73" d="M21.955,580.289h2.061v2.641h-2.061V580.289z"/>
		<path fill="#55EB73" d="M35.598,576.626v1.721H25.596v-1.721H35.598z"/>
		<path fill="#55EB73" d="M44.377,569.726h1.819v13.203h-1.94v-10.963l-3.201,2.121l-0.897-1.541L44.377,569.726z"/>
		<path fill="#55EB73" d="M59.037,569.707v1.881h-6.062l-0.34,3.621c0,0,1.461-0.621,2.582-0.621c2.74,0,4.301,1.121,4.301,4.002
			c0,2.961-1.66,4.541-4.461,4.541c-2.041,0-4.481-0.58-4.481-0.58l0.221-1.762c0,0,2.461,0.479,4.201,0.479
			c1.5,0,2.52-0.938,2.52-2.582c0-1.68-1.02-2.278-2.479-2.278c-1.439,0-2.699,0.621-2.699,0.621l-1.541-0.32l0.42-7.002H59.037
			L59.037,569.707z"/>
		<path fill="#55EB73" d="M61.615,580.289h2.061v2.641h-2.061V580.289z"/>
		<path fill="#55EB73" d="M70.535,569.726h1.819v13.203h-1.938v-10.963l-3.201,2.121l-0.9-1.541L70.535,569.726z"/>
		<path fill="#55EB73" d="M86.076,576.488c0,5.041-1.82,6.662-4.941,6.662c-3.1,0-4.92-1.603-4.92-6.662
			c0-5.281,1.799-6.98,4.92-6.98C84.295,569.505,86.076,571.207,86.076,576.488z M78.295,576.507c0,3.82,0.938,4.781,2.858,4.781
			c1.923,0,2.843-0.961,2.843-4.801c0-4.002-0.84-5.121-2.843-5.121C79.174,571.367,78.295,572.466,78.295,576.507z"/>
		<path fill="#55EB73" d="M87.772,580.289h2.062v2.641h-2.062V580.289z"/>
		<path fill="#55EB73" d="M92.514,582.929v-1.778l3.461-3.541c1.642-1.683,2.721-2.781,2.721-4.242c0-1.42-0.86-1.939-2.641-1.939
			c-1.44,0-3.301,0.381-3.301,0.381l-0.142-1.778c0,0,2-0.521,3.861-0.521c2.861,0,4.221,1.142,4.221,3.621
			c0,2-0.84,3.141-2.721,5.021l-2.858,2.922h5.881v1.858h-8.482V582.929z"/>
		<path fill="#55EB73" d="M112.235,576.488c0,5.041-1.821,6.662-4.94,6.662c-3.103,0-4.922-1.603-4.922-6.662
			c0-5.281,1.801-6.98,4.922-6.98C110.455,569.505,112.235,571.207,112.235,576.488z M104.453,576.507c0,3.82,0.94,4.781,2.86,4.781
			s2.84-0.961,2.84-4.801c0-4.002-0.84-5.121-2.84-5.121C105.334,571.367,104.453,572.466,104.453,576.507z"/>
		<path fill="#55EB73" d="M117.895,569.726h1.82v13.203h-1.941v-10.963l-3.2,2.121l-0.898-1.541L117.895,569.726z"/>
		<path fill="#55EB73" d="M132.635,571.626c0,0-1.881-0.26-3.561-0.26c-2.142,0-3.263,1.358-3.263,3.92
			c0,0.02,1.763-0.681,3.041-0.681c2.941,0,4.48,1.302,4.48,4.142c0,2.881-1.74,4.399-4.701,4.399c-3.359,0-4.82-2.479-4.82-6.842
			c0-5,2.041-6.801,5.263-6.801c1.68,0,3.739,0.34,3.739,0.34L132.635,571.626z M125.793,576.988c0.02,2.422,0.76,4.319,2.84,4.319
			c1.74,0,2.682-0.84,2.682-2.561c0-1.641-0.961-2.359-2.602-2.359C127.334,576.449,125.793,576.988,125.793,576.988z"/>
		<path fill="#55EB73" d="M143.332,568.326h1.94v17.844h-1.94V568.326z"/>
		<path fill="#55EB73" d="M161.893,575.767h3.858v6.902c0,0-2.84,0.479-4.541,0.479c-4.237,0-5.438-2.603-5.438-7.16
			c0-4.724,1.262-7.162,5.383-7.162c2.1,0,4.6,0.561,4.6,0.561l-0.08,1.699c0,0-2.439-0.359-4.26-0.359
			c-2.922,0-3.641,1.521-3.641,5.263c0,3.682,0.619,5.28,3.58,5.28c1.061,0,2.42-0.221,2.479-0.221v-3.541h-1.939V575.767
			L161.893,575.767z"/>
		<path fill="#55EB73" d="M168.509,572.947h1.884v1.182c0,0,1.42-1.061,3.262-1.422v2.002c-1.842,0.359-3.262,1.219-3.262,1.219
			v7.002h-1.884V572.947z"/>
		<path fill="#55EB73" d="M182.872,580.769c0.039,0.58,0.379,0.82,1,0.898l-0.08,1.461c-1.142,0-1.858-0.16-2.541-0.74
			c0,0-1.681,0.763-3.381,0.763c-1.897,0-2.897-1.103-2.897-3.144c0-2.039,1.1-2.819,3.198-2.979l2.804-0.263v-0.737
			c0-1.121-0.521-1.621-1.582-1.621c-1.379,0-3.763,0.24-3.763,0.24l-0.08-1.439c0,0,2.423-0.479,4.041-0.479
			c2.183,0,3.281,1.038,3.281,3.301V580.769L182.872,580.769z M178.393,578.388c-1.039,0.101-1.5,0.58-1.5,1.58
			s0.42,1.603,1.34,1.603c1.16,0,2.742-0.5,2.742-0.5v-2.941L178.393,578.388z"/>
		<path fill="#55EB73" d="M192.934,574.748c0,0-2.304-0.32-3.541-0.32c-1.199,0-1.92,0.301-1.92,1.281
			c0,0.76,0.459,0.979,2.276,1.279c2.644,0.42,3.541,1.021,3.541,2.979c0,2.34-1.5,3.183-3.938,3.183
			c-1.344,0-3.621-0.42-3.621-0.42l0.08-1.621c0,0,2.357,0.319,3.381,0.319c1.521,0,2.199-0.319,2.199-1.399
			c0-0.84-0.42-1.039-2.199-1.32c-2.502-0.42-3.621-0.92-3.621-2.961c0-2.24,1.802-3.021,3.701-3.021
			c1.479,0,3.699,0.423,3.699,0.423L192.934,574.748z"/>
		<path fill="#55EB73" d="M202.751,574.748c0,0-2.301-0.32-3.541-0.32c-1.196,0-1.92,0.301-1.92,1.281
			c0,0.76,0.459,0.979,2.278,1.279c2.642,0.42,3.541,1.021,3.541,2.979c0,2.34-1.5,3.183-3.938,3.183
			c-1.342,0-3.621-0.42-3.621-0.42l0.08-1.621c0,0,2.359,0.319,3.384,0.319c1.52,0,2.196-0.319,2.196-1.399
			c0-0.84-0.42-1.039-2.196-1.32c-2.505-0.42-3.621-0.92-3.621-2.961c0-2.24,1.801-3.021,3.698-3.021
			c1.479,0,3.699,0.423,3.699,0.423L202.751,574.748z"/>
		<path fill="#55EB73" d="M212.991,580.769c0.041,0.58,0.381,0.82,1,0.898l-0.08,1.461c-1.142,0-1.856-0.16-2.541-0.74
			c0,0-1.681,0.763-3.379,0.763c-1.902,0-2.902-1.103-2.902-3.144c0-2.039,1.104-2.819,3.201-2.979l2.801-0.263v-0.737
			c0-1.121-0.521-1.621-1.577-1.621c-1.384,0-3.765,0.24-3.765,0.24l-0.08-1.439c0,0,2.422-0.479,4.041-0.479
			c2.185,0,3.281,1.038,3.281,3.301V580.769z M208.514,578.388c-1.041,0.101-1.5,0.58-1.5,1.58s0.42,1.603,1.34,1.603
			c1.16,0,2.737-0.5,2.737-0.5v-2.941L208.514,578.388z"/>
		<path fill="#55EB73" d="M224.23,572.947v9.981h-1.899v-0.58c0,0-1.562,0.802-2.801,0.802c-2.843,0-3.423-1.4-3.423-5.002v-5.201
			h1.9v5.182c0,2.441,0.182,3.301,1.861,3.301c1.121,0,2.461-0.6,2.461-0.6v-7.883H224.23L224.23,572.947z"/>
		<path fill="#55EB73" d="M227.089,580.587h2.062l-1.143,4.803h-1.881L227.089,580.587z"/>
		<path fill="#55EB73" d="M235.989,569.046h3.28l4.961,11.521h0.398v-11.521h1.941v13.883h-3.201l-5.041-11.521h-0.4v11.521h-1.938
			V569.046z"/>
		<path fill="#55EB73" d="M257.148,581.229l0.041,1.5c0,0-2.28,0.422-3.979,0.422c-3.002-0.021-4.082-1.683-4.082-5.144
			c0-3.721,1.604-5.281,4.265-5.281c2.76,0,4.141,1.421,4.141,4.621l-0.121,1.381h-6.361c0,1.802,0.641,2.683,2.422,2.683
			C255.009,581.41,257.148,581.229,257.148,581.229z M255.648,577.248c0-2.08-0.659-2.84-2.26-2.84c-1.561,0-2.342,0.819-2.361,2.84
			H255.648z"/>
		<path fill="#55EB73" d="M259.986,582.929v-9.981h1.861v0.602c0,0,1.021-0.58,2.141-0.721c0.38-0.062,0.761-0.08,1.062-0.062
			c0.938,0.039,1.58,0.32,2.039,0.841c0.724-0.279,2.265-0.881,3.562-0.881c2.722,0,3.423,1.381,3.423,4.981v5.221h-1.882v-4.541
			c0-2.858-0.118-3.899-1.881-3.899c-1.182,0-2.459,0.58-2.5,0.621c0.121,0.299,0.197,1.559,0.197,2.641v5.18h-1.879v-5.141
			c0-2.441-0.238-3.301-1.881-3.301c-1.1,0-2.381,0.6-2.381,0.6v7.842L259.986,582.929L259.986,582.929z"/>
		<path fill="#55EB73" d="M283.489,573.046l-0.08,1.642c0,0-1.58-0.181-2.341-0.181c-2.182,0-2.721,0.859-2.721,3.281
			c0,2.66,0.439,3.561,2.74,3.561c0.76,0,2.34-0.159,2.34-0.159l0.062,1.641c0,0-1.939,0.32-2.921,0.32
			c-3.12,0-4.141-1.5-4.141-5.361c0-3.621,1.199-5.062,4.18-5.062C281.607,572.726,283.489,573.046,283.489,573.046z
			 M277.009,568.046h2.062l1.261,1.521l1.239-1.521h2.062l-2.541,3.119h-1.561L277.009,568.046z"/>
		<path fill="#55EB73" d="M285.771,568.906h1.897v2.102h-1.897V568.906z M285.771,572.947h1.897v9.981h-1.897V572.947z"/>
		<path fill="#55EB73" d="M290.891,572.947h1.897v9.662c0,2.561-0.722,3.461-3.422,4.819l-0.82-1.58
			c1.922-1.1,2.345-1.541,2.345-3.26V572.947z M290.891,568.806h1.897v2.08h-1.897V568.806z"/>
		<path fill="#55EB73" d="M303.13,580.769c0.039,0.58,0.379,0.82,1,0.898l-0.08,1.461c-1.141,0-1.858-0.16-2.541-0.74
			c0,0-1.68,0.763-3.381,0.763c-1.897,0-2.897-1.103-2.897-3.144c0-2.039,1.1-2.819,3.198-2.979l2.804-0.263v-0.737
			c0-1.121-0.521-1.621-1.582-1.621c-1.382,0-3.76,0.24-3.76,0.24l-0.08-1.439c0,0,2.42-0.479,4.038-0.479
			c2.183,0,3.281,1.038,3.281,3.301V580.769L303.13,580.769z M298.647,578.388c-1.039,0.101-1.501,0.58-1.501,1.58
			s0.421,1.603,1.341,1.603c1.16,0,2.741-0.5,2.741-0.5v-2.941L298.647,578.388z"/>
	</g>
</g>
</svg>
