<?xml version="1.0" encoding="utf-8"?>
<!-- Generator: Adobe Illustrator 16.0.4, SVG Export Plug-In . SVG Version: 6.00 Build 0)  -->
<!DOCTYPE svg PUBLIC "-//W3C//DTD SVG 1.1//EN" "http://www.w3.org/Graphics/SVG/1.1/DTD/svg11.dtd">
<svg version="1.1" id="Ebene_1" xmlns="http://www.w3.org/2000/svg" xmlns:xlink="http://www.w3.org/1999/xlink" x="0px" y="0px"
	 width="306px" height="177px" viewBox="-0.472 632.443 306 177" enable-background="new -0.472 632.443 306 177"
	 xml:space="preserve">
<g>
	<g>
		<g>
			<rect x="0.636" y="786.833" fill="#55EB73" width="303.562" height="21.664"/>
		</g>
	</g>
	<g>
		<path fill="#55EB73" d="M13.487,634.216h21.588l12.359,56.855H36.065l-2.555-9.561H14.395l-2.144,9.561H0.88L13.487,634.216z
			 M16.784,670.554h14.584l-5.354-25.873h-3.709L16.784,670.554z"/>
		<path fill="#55EB73" d="M52.958,633.392h11.041v57.682H52.958V633.392z"/>
		<path fill="#55EB73" d="M73.393,649.957h11.041v1.895c0,0,5.272-2.885,9.311-2.885c10.877,0,16.232,5.357,16.232,21.178
			c0,17.553-6.099,21.918-18.705,21.918c-3.047,0-6.838-0.658-6.838-0.658v16.975H73.393V649.957z M84.434,660.667v21.012
			c0,0,3.707,0.412,6.016,0.412c6.592,0,8.322-3.213,8.322-11.947c0-8.32-2.804-11.041-7.17-11.041
			C88.8,659.101,84.434,660.667,84.434,660.667z"/>
		<path fill="#55EB73" d="M123.983,634.216l8.567,45.154h1.236l8.57-45.154h12.937l8.57,45.154h1.234l8.566-45.154h11.945
			l-12.688,56.855h-16.891l-7.252-40.127l-7.168,40.127H124.72l-12.689-56.855H123.983z"/>
		<path fill="#55EB73" d="M219.812,681.183l0.164,8.568c0,0-9.476,2.309-17.14,2.309c-12.44,0-17.715-6.182-17.715-21.012
			c0-14.668,6.18-22.084,18.209-22.084c12.112,0,17.963,6.102,17.963,18.541l-0.823,7.744h-24.226
			c0.082,4.697,2.391,6.674,8.321,6.674C211.325,681.923,219.812,681.183,219.812,681.183z M210.419,666.763
			c0-5.85-1.896-7.991-7.086-7.991c-5.271,0-7.086,2.558-7.168,7.991H210.419z"/>
		<path fill="#55EB73" d="M259.939,681.183l0.164,8.568c0,0-9.476,2.309-17.14,2.309c-12.44,0-17.715-6.182-17.715-21.012
			c0-14.668,6.181-22.084,18.209-22.084c12.112,0,17.963,6.102,17.963,18.541l-0.823,7.744h-24.226
			c0.082,4.697,2.392,6.674,8.321,6.674C251.452,681.923,259.939,681.183,259.939,681.183z M250.546,666.763
			c0-5.85-1.896-7.991-7.086-7.991c-5.271,0-7.086,2.558-7.168,7.991H250.546z"/>
		<path fill="#55EB73" d="M268.018,691.072v-57.682h11.041v32.221l4.2-0.824l8.158-14.83h12.359l-10.632,19.445l11.206,21.67
			h-12.439l-8.404-15.49l-4.448,0.824v14.666H268.018L268.018,691.072z"/>
		<path fill="#55EB73" d="M11.411,709.378h7.697l10.457,36.947h-3.291l-3.078-10.033H7.059l-2.974,10.086H0.794L11.411,709.378z
			 M7.854,733.162h14.598l-5.893-20.756h-2.761L7.854,733.162z"/>
		<path fill="#55EB73" d="M35.878,708.05h3.187v38.328h-3.187V708.05z"/>
		<path fill="#55EB73" d="M48.616,719.835h3.187v2.019c0,0,4.141-2.493,8.387-2.493c6.637,0,9.449,4.088,9.449,13.432
			c0,10.191-3.291,14.121-11.466,14.121c-2.653,0-5.469-0.48-6.37-0.691v12.104h-3.187V719.835z M51.803,724.615v18.793
			c0.901,0.158,3.717,0.637,6.211,0.637c6.211,0,8.334-3.133,8.334-11.361c0-7.695-2.39-10.457-6.478-10.457
			C55.995,722.224,51.803,724.615,51.803,724.615z"/>
		<path fill="#55EB73" d="M94.159,723.076c0,0-5.731-0.854-9.184-0.854c-3.345,0-6.265,0.902-6.265,4.516
			c0,2.762,1.326,3.605,6.9,4.459c6.955,1.111,9.557,2.389,9.557,7.482c0,6.211-3.875,8.23-10.246,8.23
			c-3.237,0-9.131-0.957-9.131-0.957l0.213-2.812c0,0,5.945,0.902,8.652,0.902c4.619,0,7.273-1.062,7.273-5.203
			c0-3.186-1.595-3.822-7.273-4.725c-6.369-1.008-9.184-2.178-9.184-7.271c0-5.787,4.725-7.484,9.344-7.484
			c4.033,0,9.449,0.9,9.449,0.9L94.159,723.076z"/>
		<path fill="#55EB73" d="M132.43,717.394c0,5.1-2.494,7.537-8.334,9.98l8.493,8.44c0.584-1.909,1.222-4.728,1.539-7.382
			l3.131,0.057c-0.477,3.557-1.272,7.008-2.229,9.445l7.061,6.852l-2.018,2.229l-6.582-6.37c-2.867,4.517-6.477,6.427-11.945,6.427
			c-8.918,0-12.369-4.355-12.369-11.572c0-6.264,2.921-8.865,8.337-10.725c-2.39-2.764-2.709-4.564-2.709-7.594
			c0-4.725,3.079-7.908,8.812-7.908C129.723,709.271,132.43,712.458,132.43,717.394z M131.104,738.521L119.637,727
			c-5.097,1.539-7.222,3.664-7.222,8.441c0,5.52,2.709,8.6,9.238,8.6C125.952,744.042,128.872,742.451,131.104,738.521z
			 M120.378,723.66l1.646,1.645c5.147-2.016,7.166-3.715,7.166-7.75c0-3.396-1.592-5.309-5.574-5.309
			c-3.609,0-5.627,1.699-5.627,5.203C117.989,719.625,118.415,721.695,120.378,723.66z"/>
		<path fill="#55EB73" d="M160.134,733.533v12.848h-3.235v-37h13.431c7.91,0,11.467,3.662,11.467,11.572
			c0,7.908-3.557,12.58-11.467,12.58H160.134L160.134,733.533z M170.325,730.402c5.733,0,8.123-3.611,8.123-9.449
			c0-5.787-2.39-8.494-8.123-8.494h-10.191v17.943H170.325z"/>
		<path fill="#55EB73" d="M207.374,743.511l0.106,2.654c0,0-6,0.744-10.142,0.744c-7.907-0.057-10.299-4.832-10.299-13.697
			c0-10.244,4.461-13.854,10.937-13.854c6.851,0,10.459,3.607,10.459,12.525l-0.104,2.547h-18.052c0,6.27,1.808,9.561,7.38,9.561
			C201.536,743.992,207.374,743.511,207.374,743.511z M205.251,731.781c0-7.006-2.283-9.607-7.271-9.607
			c-4.83,0-7.697,2.707-7.697,9.607H205.251z"/>
		<path fill="#55EB73" d="M236.195,732.738c0,9.502-2.178,14.174-11.043,14.174c-8.918,0-11.2-4.195-11.2-14.23
			c0-9.395,2.978-13.32,11.2-13.32C232.854,719.359,236.195,723.447,236.195,732.738z M232.904,732.738
			c0-7.596-2.336-10.516-7.752-10.516c-6.104,0-7.963,2.553-7.963,10.457c0,8.07,1.115,11.361,7.963,11.361
			C232.003,744.042,232.904,740.328,232.904,732.738z"/>
		<path fill="#55EB73" d="M243.941,719.835h3.187v2.019c0,0,4.144-2.493,8.39-2.493c6.635,0,9.446,4.088,9.446,13.432
			c0,10.191-3.291,14.121-11.467,14.121c-2.654,0-5.468-0.48-6.369-0.691v12.104h-3.187V719.835L243.941,719.835z M247.128,724.615
			v18.793c0.901,0.158,3.715,0.637,6.211,0.637c6.211,0,8.334-3.133,8.334-11.361c0-7.695-2.389-10.457-6.478-10.457
			C251.32,722.224,247.128,724.615,247.128,724.615z"/>
		<path fill="#55EB73" d="M272.443,708.05h3.187v38.328h-3.187V708.05z"/>
		<path fill="#55EB73" d="M303.497,743.511l0.105,2.654c0,0-6,0.744-10.141,0.744c-7.907-0.057-10.299-4.832-10.299-13.697
			c0-10.244,4.461-13.854,10.937-13.854c6.851,0,10.458,3.607,10.458,12.525l-0.104,2.547h-18.052c0,6.27,1.808,9.561,7.38,9.561
			C297.659,743.992,303.497,743.511,303.497,743.511z M301.374,731.781c0-7.006-2.283-9.607-7.271-9.607
			c-4.83,0-7.697,2.707-7.697,9.607H301.374z"/>
		<path fill="#55EB73" d="M4.614,765.093h1.773v12.871h-1.89v-10.688l-3.121,2.066l-0.877-1.502L4.614,765.093z"/>
		<path fill="#55EB73" d="M14.948,765.093h1.775v12.871H14.83v-10.688l-3.119,2.066l-0.879-1.502L14.948,765.093z"/>
		<path fill="#55EB73" d="M33.723,771.824v1.676h-9.75v-1.676H33.723z"/>
		<path fill="#55EB73" d="M43.282,765.093h1.773v12.871h-1.892v-10.688l-3.121,2.066l-0.877-1.502L43.282,765.093z"/>
		<path fill="#55EB73" d="M57.575,765.076v1.834h-5.908l-0.332,3.525c0,0,1.424-0.604,2.517-0.604c2.672,0,4.192,1.092,4.192,3.9
			c0,2.887-1.619,4.428-4.35,4.428c-1.988,0-4.367-0.566-4.367-0.566l0.213-1.717c0,0,2.398,0.469,4.097,0.469
			c1.463,0,2.456-0.916,2.456-2.516c0-1.639-0.993-2.223-2.418-2.223c-1.403,0-2.633,0.604-2.633,0.604L49.54,771.9l0.41-6.826
			L57.575,765.076L57.575,765.076z"/>
		<path fill="#55EB73" d="M60.091,775.39H62.1v2.574h-2.009V775.39z"/>
		<path fill="#55EB73" d="M68.788,765.093h1.773v12.871H68.67v-10.688l-3.121,2.066l-0.877-1.502L68.788,765.093z"/>
		<path fill="#55EB73" d="M83.938,771.685c0,4.914-1.773,6.494-4.816,6.494c-3.021,0-4.797-1.561-4.797-6.494
			c0-5.146,1.756-6.807,4.797-6.807C82.204,764.878,83.938,766.539,83.938,771.685z M76.354,771.707c0,3.725,0.918,4.66,2.789,4.66
			c1.873,0,2.77-0.938,2.77-4.684c0-3.896-0.817-4.988-2.77-4.988C77.212,766.695,76.354,767.765,76.354,771.707z"/>
		<path fill="#55EB73" d="M85.598,775.39h2.008v2.574h-2.008V775.39z"/>
		<path fill="#55EB73" d="M90.218,777.964v-1.736l3.373-3.447c1.601-1.643,2.652-2.711,2.652-4.139c0-1.385-0.838-1.891-2.574-1.891
			c-1.403,0-3.217,0.369-3.217,0.369l-0.137-1.734c0,0,1.949-0.508,3.764-0.508c2.789,0,4.113,1.111,4.113,3.529
			c0,1.951-0.818,3.062-2.65,4.895l-2.789,2.852h5.732v1.812L90.218,777.964L90.218,777.964z"/>
		<path fill="#55EB73" d="M109.444,771.685c0,4.914-1.773,6.494-4.816,6.494c-3.021,0-4.797-1.561-4.797-6.494
			c0-5.146,1.756-6.807,4.797-6.807C107.71,764.878,109.444,766.539,109.444,771.685z M101.858,771.707
			c0,3.725,0.918,4.66,2.789,4.66c1.873,0,2.77-0.938,2.77-4.684c0-3.896-0.817-4.988-2.77-4.988
			C102.718,766.695,101.858,767.765,101.858,771.707z"/>
		<path fill="#55EB73" d="M114.964,765.093h1.773v12.871h-1.891v-10.688l-3.121,2.066l-0.877-1.502L114.964,765.093z"/>
		<path fill="#55EB73" d="M129.335,766.949c0,0-1.834-0.254-3.471-0.254c-2.088,0-3.18,1.322-3.18,3.818
			c0,0.021,1.717-0.664,2.965-0.664c2.867,0,4.367,1.271,4.367,4.037c0,2.812-1.695,4.291-4.582,4.291
			c-3.275,0-4.699-2.418-4.699-6.67c0-4.875,1.988-6.631,5.129-6.631c1.637,0,3.646,0.332,3.646,0.332L129.335,766.949z
			 M122.665,772.171c0.021,2.361,0.742,4.213,2.771,4.213c1.696,0,2.612-0.814,2.612-2.496c0-1.6-0.936-2.301-2.534-2.301
			C124.167,771.646,122.665,772.171,122.665,772.171z"/>
		<path fill="#55EB73" d="M139.571,763.729h1.891v17.396h-1.891V763.729z"/>
		<path fill="#55EB73" d="M157.861,770.984h3.765v6.729c0,0-2.771,0.469-4.428,0.469c-4.133,0-5.305-2.533-5.305-6.98
			c0-4.604,1.23-6.98,5.246-6.98c2.049,0,4.486,0.545,4.486,0.545l-0.078,1.658c0,0-2.379-0.352-4.154-0.352
			c-2.848,0-3.549,1.48-3.549,5.129c0,3.588,0.604,5.146,3.49,5.146c1.033,0,2.359-0.215,2.418-0.215v-3.451h-1.891V770.984
			L157.861,770.984z"/>
		<path fill="#55EB73" d="M164.314,768.236h1.834v1.146c0,0,1.384-1.035,3.179-1.385v1.949c-1.795,0.352-3.179,1.188-3.179,1.188
			v6.826h-1.834V768.236z"/>
		<path fill="#55EB73" d="M178.314,775.859c0.039,0.562,0.371,0.801,0.978,0.879l-0.078,1.424c-1.108,0-1.812-0.156-2.478-0.725
			c0,0-1.639,0.74-3.297,0.74c-1.853,0-2.825-1.07-2.825-3.061s1.071-2.75,3.118-2.906l2.729-0.252v-0.723
			c0-1.096-0.508-1.58-1.541-1.58c-1.346,0-3.666,0.23-3.666,0.23l-0.078-1.4c0,0,2.359-0.471,3.939-0.471
			c2.125,0,3.196,1.018,3.196,3.221v4.623H178.314z M173.948,773.539c-1.015,0.098-1.464,0.564-1.464,1.541
			c0,0.975,0.41,1.561,1.308,1.561c1.131,0,2.672-0.486,2.672-0.486v-2.865L173.948,773.539z"/>
		<path fill="#55EB73" d="M188.124,769.99c0,0-2.242-0.312-3.451-0.312c-1.17,0-1.873,0.293-1.873,1.248
			c0,0.742,0.449,0.957,2.228,1.248c2.574,0.41,3.451,0.996,3.451,2.906c0,2.281-1.463,3.102-3.845,3.102
			c-1.307,0-3.526-0.41-3.526-0.41l0.078-1.578c0,0,2.301,0.312,3.295,0.312c1.479,0,2.146-0.312,2.146-1.365
			c0-0.816-0.408-1.014-2.146-1.286c-2.438-0.409-3.528-0.896-3.528-2.888c0-2.184,1.756-2.942,3.606-2.942
			c1.44,0,3.604,0.407,3.604,0.407L188.124,769.99z"/>
		<path fill="#55EB73" d="M197.698,769.99c0,0-2.242-0.312-3.451-0.312c-1.17,0-1.873,0.293-1.873,1.248
			c0,0.742,0.449,0.957,2.228,1.248c2.571,0.41,3.448,0.996,3.448,2.906c0,2.281-1.463,3.102-3.842,3.102
			c-1.308,0-3.526-0.41-3.526-0.41l0.075-1.578c0,0,2.304,0.312,3.298,0.312c1.479,0,2.146-0.312,2.146-1.365
			c0-0.816-0.408-1.014-2.146-1.286c-2.438-0.409-3.529-0.896-3.529-2.888c0-2.184,1.757-2.942,3.604-2.942
			c1.443,0,3.606,0.407,3.606,0.407L197.698,769.99z"/>
		<path fill="#55EB73" d="M207.686,775.859c0.039,0.562,0.371,0.801,0.976,0.879l-0.078,1.424c-1.11,0-1.812-0.156-2.478-0.725
			c0,0-1.642,0.74-3.295,0.74c-1.854,0-2.828-1.07-2.828-3.061s1.072-2.75,3.121-2.906l2.729-0.252v-0.723
			c0-1.096-0.506-1.58-1.539-1.58c-1.346,0-3.666,0.23-3.666,0.23l-0.078-1.4c0,0,2.359-0.471,3.938-0.471
			c2.128,0,3.199,1.018,3.199,3.221v4.623H207.686z M203.312,773.539c-1.015,0.098-1.461,0.564-1.461,1.541
			c0,0.975,0.407,1.561,1.306,1.561c1.133,0,2.672-0.486,2.672-0.486v-2.865L203.312,773.539z"/>
		<path fill="#55EB73" d="M218.645,768.236v9.729h-1.854V777.4c0,0-1.521,0.777-2.729,0.777c-2.771,0-3.334-1.361-3.334-4.877
			v-5.064h1.854v5.051c0,2.379,0.174,3.217,1.812,3.217c1.092,0,2.396-0.586,2.396-0.586v-7.682H218.645z"/>
		<path fill="#55EB73" d="M221.432,775.683h2.01l-1.11,4.684h-1.834L221.432,775.683z"/>
		<path fill="#55EB73" d="M235.587,770.984h3.767v6.729c0,0-2.771,0.469-4.431,0.469c-4.133,0-5.305-2.533-5.305-6.98
			c0-4.604,1.229-6.98,5.246-6.98c2.049,0,4.485,0.545,4.485,0.545l-0.078,1.658c0,0-2.379-0.352-4.153-0.352
			c-2.849,0-3.55,1.48-3.55,5.129c0,3.588,0.604,5.146,3.49,5.146c1.032,0,2.358-0.215,2.418-0.215v-3.451h-1.892L235.587,770.984
			L235.587,770.984z"/>
		<path fill="#55EB73" d="M249.157,776.306l0.038,1.464c0,0-2.223,0.409-3.881,0.409c-2.924-0.02-3.978-1.639-3.978-5.012
			c0-3.627,1.56-5.148,4.151-5.148c2.691,0,4.037,1.389,4.037,4.508l-0.116,1.346h-6.201c0,1.756,0.625,2.613,2.358,2.613
			C247.07,776.484,249.157,776.306,249.157,776.306z M247.693,772.425c0-2.023-0.644-2.77-2.202-2.77
			c-1.521,0-2.281,0.801-2.302,2.77H247.693z"/>
		<path fill="#55EB73" d="M251.927,768.236h1.837v1.146c0,0,1.383-1.035,3.178-1.385v1.949c-1.795,0.352-3.178,1.188-3.178,1.188
			v6.826h-1.834v-9.729h-0.003V768.236z"/>
		<path fill="#55EB73" d="M258.907,777.964v-9.729h1.813v0.584c0,0,0.993-0.564,2.086-0.701c0.37-0.062,0.739-0.078,1.032-0.062
			c0.916,0.039,1.541,0.312,1.988,0.818c0.702-0.273,2.205-0.857,3.473-0.857c2.652,0,3.334,1.35,3.334,4.855v5.09H270.8v-4.428
			c0-2.787-0.114-3.803-1.832-3.803c-1.149,0-2.397,0.564-2.438,0.604c0.117,0.293,0.195,1.521,0.195,2.574v5.051h-1.834v-5.012
			c0-2.379-0.233-3.22-1.832-3.22c-1.072,0-2.32,0.587-2.32,0.587v7.645h-1.832L258.907,777.964L258.907,777.964z"/>
		<path fill="#55EB73" d="M282.657,775.859c0.038,0.562,0.37,0.801,0.977,0.879l-0.075,1.424c-1.11,0-1.813-0.156-2.479-0.725
			c0,0-1.641,0.74-3.297,0.74c-1.854,0-2.826-1.07-2.826-3.061s1.07-2.75,3.119-2.906l2.729-0.252v-0.723
			c0-1.096-0.508-1.58-1.541-1.58c-1.346,0-3.666,0.23-3.666,0.23l-0.078-1.4c0,0,2.359-0.471,3.939-0.471
			c2.125,0,3.197,1.018,3.197,3.221L282.657,775.859L282.657,775.859z M278.29,773.539c-1.015,0.098-1.463,0.564-1.463,1.541
			c0,0.975,0.409,1.561,1.307,1.561c1.134,0,2.675-0.486,2.675-0.486v-2.865L278.29,773.539z"/>
		<path fill="#55EB73" d="M285.854,777.964v-9.729h1.834v0.623c0,0,1.482-0.842,2.811-0.842c2.711,0,3.354,1.467,3.354,4.855v5.09
			h-1.854v-5.129c0-2.203-0.254-3.16-1.873-3.16c-1.248,0-2.438,0.586-2.438,0.586v7.703L285.854,777.964L285.854,777.964z"/>
		<path fill="#55EB73" d="M297.517,768.236l2.203,7.955h0.586l2.227-7.955h1.832l-3.84,13.979h-1.814l1.15-4.25h-1.521l-2.651-9.729
			H297.517z"/>
	</g>
</g>
</svg>
