<?xml version="1.0" encoding="utf-8"?>
<!-- Generator: Adobe Illustrator 16.0.4, SVG Export Plug-In . SVG Version: 6.00 Build 0)  -->
<!DOCTYPE svg PUBLIC "-//W3C//DTD SVG 1.1//EN" "http://www.w3.org/Graphics/SVG/1.1/DTD/svg11.dtd">
<svg version="1.1" id="Ebene_1" xmlns="http://www.w3.org/2000/svg" xmlns:xlink="http://www.w3.org/1999/xlink" x="0px" y="0px"
	 width="306px" height="132px" viewBox="-0.803 299.27 306 132" enable-background="new -0.803 299.27 306 132"
	 xml:space="preserve">
<g>
	<g>
		<g>
			<rect x="0.636" y="408.921" fill="#55EB73" width="303.562" height="21.662"/>
		</g>
	</g>
	<g>
		<path fill="#FFFFFF" d="M18.868,306.316c0,0-5.979-0.678-8.438-0.678c-3.138,0-4.621,0.934-4.621,2.842
			c0,1.821,1.145,2.502,5.979,4.026c6.234,1.993,8.144,3.731,8.144,8.819c0,5.979-4.283,8.904-10.263,8.904
			c-3.223,0-8.905-1.188-8.905-1.188l0.594-5.216c0,0,5.258,0.722,8.27,0.722c3.14,0,4.494-0.849,4.494-3.096
			c0-1.781-1.018-2.629-5.172-3.816c-6.49-1.863-8.949-4.068-8.949-9.072c0-5.599,3.984-8.607,10.431-8.607
			c3.266,0,8.905,1.146,8.905,1.146L18.868,306.316z"/>
		<path fill="#FFFFFF" d="M40.534,324.634l0.084,4.41c0,0-4.875,1.188-8.82,1.188c-6.401,0-9.114-3.183-9.114-10.813
			c0-7.548,3.18-11.362,9.371-11.362c6.231,0,9.243,3.139,9.243,9.541l-0.424,3.984H28.407c0.041,2.417,1.229,3.436,4.281,3.436
			C36.167,325.018,40.534,324.634,40.534,324.634z M35.7,317.214c0-3.011-0.975-4.112-3.646-4.112c-2.716,0-3.646,1.313-3.689,4.112
			H35.7z"/>
		<path fill="#FFFFFF" d="M51.516,313.696v8.014c0,2.12,0,3.097,1.778,3.097c1.188,0,3.226-0.084,3.226-0.084l0.254,4.877
			c0,0-2.842,0.635-4.326,0.635c-5.131,0-6.615-1.949-6.615-8.058v-8.479H43.33v-5.132h2.502v-5.938h5.685v5.938h5.215v5.132
			L51.516,313.696L51.516,313.696z"/>
		<path fill="#FFFFFF" d="M64.659,313.696v8.014c0,2.12,0,3.097,1.779,3.097c1.188,0,3.225-0.084,3.225-0.084l0.254,4.877
			c0,0-2.842,0.635-4.326,0.635c-5.131,0-6.614-1.949-6.614-8.058v-8.479h-2.502v-5.132h2.502v-5.938h5.684v5.938h5.215v5.132
			L64.659,313.696L64.659,313.696z"/>
		<path fill="#FFFFFF" d="M73.52,299.999h5.684v5.812H73.52V299.999z M73.52,308.564h5.684v21.16H73.52V308.564z"/>
		<path fill="#FFFFFF" d="M84.882,329.725v-21.16h5.64v1.019c0,0,1.399-0.679,2.885-1.146c0.721-0.213,1.525-0.383,2.119-0.383
			c2.375,0,4.029,0.594,5.174,1.738c2.162-0.806,4.961-1.738,7.252-1.738c5.766,0,7.463,3.352,7.463,10.603v11.067h-5.684v-8.735
			c0-5.343,0.086-7.634-2.967-7.634c-1.697,0-3.943,0.807-3.943,0.807s0.168,2.926,0.168,4.58v10.982h-5.682v-10.897
			c0-3.816-0.341-5.472-2.97-5.472c-1.397,0-3.772,0.722-3.772,0.722v15.647H84.882z"/>
		<path fill="#FFFFFF" d="M137.288,323.958c0.086,1.188,0.213,1.78,1.4,1.992l-0.17,4.282c-2.843,0-4.283-0.297-6.064-1.483
			c0,0-3.053,1.483-6.231,1.483c-4.453,0-6.572-2.459-6.572-6.953c0-4.793,2.756-6.148,7.42-6.488l4.537-0.339v-1.103
			c0-1.526-0.805-2.291-2.502-2.291c-2.799,0-7.931,0.34-7.931,0.34l-0.17-4.112c0,0,5.345-1.229,8.82-1.229
			c4.834,0,7.463,2.162,7.463,7.295V323.958L137.288,323.958z M127.747,320.734c-1.481,0.127-2.373,0.849-2.373,2.375
			c0,1.482,0.551,2.459,2.076,2.459c1.4,0,4.156-0.637,4.156-0.637v-4.537L127.747,320.734z"/>
		<path fill="#FFFFFF" d="M143.182,329.725v-21.16h5.682v1.188c0,0,2.842-1.695,5.259-1.695c5.938,0,7.463,3.731,7.463,10.603
			v11.067h-5.682v-11.279c0-3.223-0.424-5.301-3.181-5.301c-1.994,0-3.859,0.764-3.859,0.764v15.816L143.182,329.725
			L143.182,329.725z"/>
		<path fill="#FFFFFF" d="M183.462,323.958c0.084,1.188,0.211,1.78,1.397,1.992l-0.168,4.282c-2.842,0-4.282-0.297-6.063-1.483
			c0,0-3.053,1.483-6.231,1.483c-4.451,0-6.572-2.459-6.572-6.953c0-4.793,2.756-6.148,7.422-6.488l4.537-0.339v-1.103
			c0-1.526-0.807-2.291-2.502-2.291c-2.799,0-7.93,0.34-7.93,0.34l-0.17-4.112c0,0,5.344-1.229,8.817-1.229
			c4.834,0,7.463,2.162,7.463,7.295V323.958z M173.921,320.734c-1.481,0.127-2.375,0.849-2.375,2.375
			c0,1.482,0.554,2.459,2.078,2.459c1.397,0,4.156-0.637,4.156-0.637v-4.537L173.921,320.734z"/>
		<path fill="#FFFFFF" d="M196.395,300.464h11.108l6.358,29.261h-5.852l-1.314-4.92h-9.838l-1.102,4.92h-5.854L196.395,300.464z
			 M198.089,319.166h7.509l-2.761-13.314h-1.905L198.089,319.166z"/>
		<path fill="#FFFFFF" d="M217.378,300.042h5.687v29.685h-5.687V300.042z"/>
		<path fill="#FFFFFF" d="M228.57,308.564h5.683v0.976c0,0,2.715-1.483,4.791-1.483c5.601,0,8.354,2.758,8.354,10.897
			c0,9.032-3.139,11.278-9.627,11.278c-1.567,0-3.52-0.338-3.52-0.338v8.733h-5.682V308.564L228.57,308.564z M234.253,314.077
			v10.813c0,0,1.908,0.211,3.099,0.211c3.393,0,4.28-1.652,4.28-6.147c0-4.283-1.438-5.683-3.688-5.683
			C236.501,313.271,234.253,314.077,234.253,314.077z"/>
		<path fill="#FFFFFF" d="M251.552,299.999h5.685v5.812h-5.685V299.999z M251.552,308.564h5.685v21.16h-5.685V308.564z"/>
		<path fill="#FFFFFF" d="M262.743,329.725v-21.16h5.684v1.188c0,0,2.843-1.695,5.261-1.695c5.936,0,7.463,3.731,7.463,10.603
			v11.067h-5.685v-11.279c0-3.223-0.424-5.301-3.182-5.301c-1.992,0-3.856,0.764-3.856,0.764v15.816L262.743,329.725
			L262.743,329.725z"/>
		<path fill="#FFFFFF" d="M302.854,323.958c0.087,1.188,0.214,1.78,1.4,1.992l-0.17,4.282c-2.842,0-4.283-0.297-6.064-1.483
			c0,0-3.053,1.483-6.231,1.483c-4.453,0-6.572-2.459-6.572-6.953c0-4.793,2.759-6.148,7.423-6.488l4.534-0.339v-1.103
			c0-1.526-0.805-2.291-2.502-2.291c-2.799,0-7.93,0.34-7.93,0.34l-0.171-4.112c0,0,5.345-1.229,8.82-1.229
			c4.834,0,7.463,2.162,7.463,7.295V323.958z M293.312,320.734c-1.481,0.127-2.373,0.849-2.373,2.375
			c0,1.482,0.552,2.459,2.076,2.459c1.4,0,4.156-0.637,4.156-0.637v-4.537L293.312,320.734z"/>
		<path fill="#FFFFFF" d="M0.848,372.461v-29.684h2.598v27.171h13.543v2.513H0.848z"/>
		<path fill="#FFFFFF" d="M37.514,370.163l0.086,2.13c0,0-4.812,0.598-8.136,0.598c-6.346-0.043-8.262-3.875-8.262-10.988
			c0-8.219,3.578-11.114,8.773-11.114c5.494,0,8.389,2.896,8.389,10.051l-0.084,2.044H23.8c0,5.025,1.449,7.666,5.921,7.666
			C32.829,370.545,37.514,370.163,37.514,370.163z M35.811,360.75c0-5.621-1.83-7.708-5.834-7.708c-3.875,0-6.177,2.172-6.177,7.708
			H35.811z"/>
		<path fill="#FFFFFF" d="M58.637,342.779h6.174l8.391,29.641h-2.641l-2.472-8.049H55.145l-2.386,8.092h-2.641L58.637,342.779z
			 M55.782,361.857h11.711l-4.727-16.65H60.55L55.782,361.857z"/>
		<path fill="#FFFFFF" d="M78.268,341.713h2.555v30.748h-2.555V341.713z"/>
		<path fill="#FFFFFF" d="M88.487,351.167h2.555v1.618c0,0,3.322-2.001,6.729-2.001c5.324,0,7.58,3.278,7.58,10.774
			c0,8.176-2.64,11.326-9.197,11.326c-2.131,0-4.387-0.383-5.111-0.554v9.71h-2.555L88.487,351.167L88.487,351.167z M91.042,355
			v15.076c0.726,0.128,2.98,0.511,4.982,0.511c4.981,0,6.688-2.513,6.688-9.112c0-6.177-1.918-8.391-5.196-8.391
			C94.407,353.084,91.042,355,91.042,355z"/>
		<path fill="#FFFFFF" d="M111.186,342.65h2.555v3.193h-2.555V342.65z M111.186,351.167h2.555v21.294h-2.555V351.167z"/>
		<path fill="#FFFFFF" d="M144.741,349.208c0,4.089-2.002,6.048-6.686,8.007l6.813,6.771c0.469-1.533,0.979-3.791,1.234-5.92
			l2.512,0.043c-0.383,2.853-1.021,5.621-1.787,7.58l5.664,5.494l-1.619,1.786l-5.281-5.108c-2.299,3.619-5.194,5.152-9.582,5.152
			c-7.153,0-9.922-3.492-9.922-9.283c0-5.025,2.343-7.112,6.687-8.604c-1.916-2.215-2.172-3.662-2.172-6.09
			c0-3.79,2.471-6.347,7.069-6.347C142.569,342.693,144.741,345.25,144.741,349.208z M143.677,366.16l-9.198-9.241
			c-4.088,1.233-5.791,2.938-5.791,6.771c0,4.431,2.172,6.898,7.41,6.898C139.546,370.587,141.889,369.311,143.677,366.16z
			 M135.075,354.234l1.32,1.32c4.131-1.617,5.748-2.98,5.748-6.219c0-2.727-1.277-4.259-4.472-4.259
			c-2.896,0-4.516,1.362-4.516,4.174C133.157,350.999,133.499,352.66,135.075,354.234z"/>
		<path fill="#FFFFFF" d="M164.927,341.713h2.558v30.748h-2.558V341.713z"/>
		<path fill="#FFFFFF" d="M189.413,368.926c0.129,1.235,1.362,1.704,2.771,1.874l-0.129,2.044c-2.088,0-3.662-0.426-4.812-1.701
			c0,0-4.002,1.746-8.007,1.746c-3.747,0-5.834-2.174-5.834-6.433c0-3.918,1.959-5.792,6.261-6.218l7.239-0.725v-1.916
			c0-3.193-1.446-4.474-4.174-4.474c-3.065,0-8.049,0.599-8.049,0.599l-0.127-2.089c0,0,4.896-0.852,8.346-0.852
			c4.431,0,6.517,2.215,6.517,6.812v11.329h-0.002V368.926z M179.96,362.242c-2.854,0.255-3.918,1.617-3.918,4.173
			c0,2.728,1.19,4.259,3.533,4.259c3.364,0,7.325-1.445,7.325-1.445v-7.709L179.96,362.242z"/>
		<path fill="#FFFFFF" d="M203.809,375.998c0-2.6,1.233-3.705,3.489-5.366c-0.766-0.469-1.104-1.575-1.104-2.896
			c0-0.726,1.361-3.321,1.361-3.321c-1.83-0.767-3.449-2.429-3.449-6.431c0-5.196,3.021-7.24,7.666-7.24
			c2.215,0,4.472,0.554,4.472,0.554l6.133-0.128v2.258l-4.174-0.086c0.896,0.896,1.491,2.131,1.491,4.645
			c0,5.451-2.598,7.111-8.049,7.111c-0.387,0-1.705-0.087-2.172-0.172c0,0-0.854,2.088-0.854,2.643c0,1.83,0.342,2.087,5.409,2.087
			c5.791,0,8.007,1.021,8.007,6.175c0,4.771-3.193,6.729-9.326,6.729C205.854,382.555,203.809,380.938,203.809,375.998z
			 M209.044,371.739c-2.043,1.446-2.683,2.257-2.683,4.088c0,3.321,1.148,4.515,6.388,4.515c4.646,0,6.646-1.277,6.646-4.43
			c0-3.619-1.533-4.003-5.537-4.003C212.239,371.909,209.044,371.739,209.044,371.739z M217.098,357.982
			c0-4.131-1.406-5.109-5.324-5.109c-3.406,0-5.111,1.32-5.111,5.109c0,3.365,1.193,4.981,4.984,4.981
			C215.562,362.964,217.098,361.688,217.098,357.982z"/>
		<path fill="#FFFFFF" d="M242.091,370.163l0.086,2.13c0,0-4.811,0.598-8.135,0.598c-6.347-0.043-8.262-3.875-8.262-10.988
			c0-8.219,3.577-11.114,8.772-11.114c5.494,0,8.389,2.896,8.389,10.051l-0.084,2.044h-14.479c0,5.025,1.449,7.666,5.92,7.666
			C237.407,370.545,242.091,370.163,242.091,370.163z M240.391,360.75c0-5.621-1.83-7.708-5.834-7.708
			c-3.875,0-6.179,2.172-6.179,7.708H240.391z"/>
		<path fill="#FFFFFF" d="M248.989,372.461v-21.294h2.557v1.576c0,0,3.576-1.959,6.897-1.959c5.834,0,7.111,2.683,7.111,10.604
			v11.071h-2.512v-11.07c0-6.219-0.682-8.306-4.941-8.306c-3.319,0-6.557,1.788-6.557,1.788v17.589L248.989,372.461L248.989,372.461
			z"/>
		<path fill="#FFFFFF" d="M276.329,353.51v10.35c0,5.324,0.342,6.688,3.364,6.688c1.191,0,3.961-0.299,3.961-0.299l0.128,2.258
			c0,0-2.812,0.428-4.302,0.428c-4.174,0-5.707-1.576-5.707-7.709v-11.713h-3.151v-2.343h3.151v-6.687h2.556v6.687h7.112v2.343
			L276.329,353.51L276.329,353.51z"/>
		<path fill="#FFFFFF" d="M303.542,370.163l0.086,2.13c0,0-4.811,0.598-8.135,0.598c-6.347-0.043-8.263-3.875-8.263-10.988
			c0-8.219,3.578-11.114,8.773-11.114c5.494,0,8.389,2.896,8.389,10.051l-0.084,2.044h-14.479c0,5.025,1.448,7.666,5.92,7.666
			C298.858,370.545,303.542,370.163,303.542,370.163z M301.839,360.75c0-5.621-1.83-7.708-5.834-7.708
			c-3.875,0-6.176,2.172-6.176,7.708H301.839z"/>
		<path fill="#FFFFFF" d="M4.55,387.378h1.748v12.669H4.436v-10.52l-3.07,2.035l-0.863-1.479L4.55,387.378z"/>
		<path fill="#FFFFFF" d="M14.727,387.378h1.748v12.669h-1.863v-10.52l-3.07,2.035l-0.862-1.479L14.727,387.378z"/>
		<path fill="#FFFFFF" d="M33.194,394v1.65h-9.598V394H33.194z"/>
		<path fill="#FFFFFF" d="M42.622,387.378h1.748v12.669h-1.863v-10.52l-3.069,2.035l-0.863-1.479L42.622,387.378z"/>
		<path fill="#FFFFFF" d="M56.694,387.359v1.806H50.88l-0.327,3.476c0,0,1.401-0.597,2.477-0.597c2.631,0,4.127,1.075,4.127,3.84
			c0,2.843-1.592,4.357-4.279,4.357c-1.959,0-4.301-0.558-4.301-0.558l0.211-1.688c0,0,2.361,0.461,4.031,0.461
			c1.438,0,2.42-0.902,2.42-2.478c0-1.611-0.98-2.188-2.381-2.188c-1.383,0-2.592,0.595-2.592,0.595l-1.479-0.307l0.404-6.72H56.694
			z"/>
		<path fill="#FFFFFF" d="M59.173,397.514h1.979v2.533h-1.979V397.514z"/>
		<path fill="#FFFFFF" d="M67.735,387.378h1.748v12.669H67.62v-10.52l-3.07,2.035l-0.862-1.479L67.735,387.378z"/>
		<path fill="#FFFFFF" d="M82.653,393.868c0,4.837-1.746,6.392-4.742,6.392c-2.975,0-4.721-1.533-4.721-6.392
			c0-5.068,1.727-6.699,4.721-6.699C80.944,387.167,82.653,388.798,82.653,393.868z M75.188,393.885c0,3.667,0.901,4.59,2.744,4.59
			c1.844,0,2.727-0.923,2.727-4.606c0-3.841-0.807-4.914-2.727-4.914C76.03,388.954,75.188,390.008,75.188,393.885z"/>
		<path fill="#FFFFFF" d="M84.286,397.514h1.979v2.533h-1.979V397.514z"/>
		<path fill="#FFFFFF" d="M88.837,400.047v-1.708l3.322-3.397c1.572-1.611,2.609-2.668,2.609-4.068c0-1.362-0.824-1.861-2.533-1.861
			c-1.383,0-3.168,0.364-3.168,0.364l-0.135-1.708c0,0,1.92-0.499,3.705-0.499c2.745,0,4.051,1.095,4.051,3.476
			c0,1.92-0.808,3.014-2.611,4.816l-2.744,2.805h5.644v1.783L88.837,400.047L88.837,400.047z"/>
		<path fill="#FFFFFF" d="M107.768,393.868c0,4.837-1.746,6.392-4.742,6.392c-2.976,0-4.721-1.533-4.721-6.392
			c0-5.068,1.727-6.699,4.721-6.699C106.059,387.167,107.768,388.798,107.768,393.868z M100.3,393.885
			c0,3.667,0.902,4.59,2.744,4.59c1.845,0,2.728-0.923,2.728-4.606c0-3.841-0.808-4.914-2.728-4.914
			C101.145,388.954,100.3,390.008,100.3,393.885z"/>
		<path fill="#FFFFFF" d="M113.2,387.378h1.748v12.669h-1.863v-10.52l-3.069,2.035l-0.863-1.479L113.2,387.378z"/>
		<path fill="#FFFFFF" d="M127.352,389.203c0,0-1.806-0.249-3.418-0.249c-2.054,0-3.129,1.305-3.129,3.762
			c0,0.021,1.688-0.651,2.918-0.651c2.821,0,4.301,1.248,4.301,3.975c0,2.764-1.67,4.223-4.512,4.223
			c-3.226,0-4.625-2.38-4.625-6.562c0-4.799,1.956-6.526,5.047-6.526c1.612,0,3.59,0.326,3.59,0.326L127.352,389.203z
			 M120.786,394.348c0.019,2.32,0.729,4.146,2.726,4.146c1.67,0,2.571-0.808,2.571-2.457c0-1.574-0.922-2.267-2.496-2.267
			C122.264,393.829,120.786,394.348,120.786,394.348z"/>
		<path fill="#FFFFFF" d="M137.145,386.036h1.86v17.122h-1.86V386.036z"/>
		<path fill="#FFFFFF" d="M154.96,393.175h3.705v6.622c0,0-2.728,0.461-4.354,0.461c-4.071,0-5.226-2.494-5.226-6.872
			c0-4.528,1.211-6.87,5.164-6.87c2.019,0,4.416,0.536,4.416,0.536l-0.078,1.634c0,0-2.342-0.348-4.088-0.348
			c-2.803,0-3.494,1.459-3.494,5.048c0,3.532,0.597,5.068,3.438,5.068c1.017,0,2.322-0.212,2.38-0.212v-3.397h-1.861v-1.67H154.96
			L154.96,393.175z"/>
		<path fill="#FFFFFF" d="M161.314,390.469h1.806v1.133c0,0,1.362-1.019,3.129-1.361v1.919c-1.767,0.346-3.129,1.171-3.129,1.171
			v6.719h-1.806V390.469z"/>
		<path fill="#FFFFFF" d="M175.102,397.975c0.039,0.558,0.362,0.786,0.961,0.863l-0.076,1.401c-1.096,0-1.785-0.154-2.439-0.712
			c0,0-1.611,0.729-3.244,0.729c-1.822,0-2.783-1.056-2.783-3.014s1.058-2.706,3.072-2.86l2.688-0.249v-0.71
			c0-1.074-0.5-1.556-1.518-1.556c-1.324,0-3.607,0.229-3.607,0.229l-0.077-1.383c0,0,2.323-0.461,3.879-0.461
			c2.092,0,3.146,0.998,3.146,3.168V397.975L175.102,397.975z M170.8,395.691c-0.998,0.096-1.438,0.557-1.438,1.517
			s0.402,1.535,1.285,1.535c1.111,0,2.631-0.479,2.631-0.479v-2.822L170.8,395.691z"/>
		<path fill="#FFFFFF" d="M184.757,392.198c0,0-2.207-0.308-3.396-0.308c-1.15,0-1.842,0.286-1.842,1.229
			c0,0.729,0.438,0.939,2.188,1.229c2.535,0.402,3.398,0.979,3.398,2.859c0,2.246-1.439,3.052-3.781,3.052
			c-1.287,0-3.475-0.401-3.475-0.401l0.073-1.557c0,0,2.269,0.309,3.244,0.309c1.459,0,2.11-0.309,2.11-1.344
			c0-0.808-0.401-0.998-2.11-1.268c-2.396-0.403-3.476-0.884-3.476-2.842c0-2.149,1.729-2.898,3.554-2.898
			c1.42,0,3.551,0.403,3.551,0.403L184.757,392.198z"/>
		<path fill="#FFFFFF" d="M194.188,392.198c0,0-2.209-0.308-3.398-0.308c-1.152,0-1.844,0.286-1.844,1.229
			c0,0.729,0.443,0.939,2.188,1.229c2.533,0.402,3.396,0.979,3.396,2.859c0,2.246-1.439,3.052-3.781,3.052
			c-1.285,0-3.475-0.401-3.475-0.401l0.078-1.557c0,0,2.264,0.309,3.244,0.309c1.459,0,2.11-0.309,2.11-1.344
			c0-0.808-0.404-0.998-2.11-1.268c-2.4-0.403-3.476-0.884-3.476-2.842c0-2.149,1.728-2.898,3.551-2.898
			c1.42,0,3.552,0.403,3.552,0.403L194.188,392.198z"/>
		<path fill="#FFFFFF" d="M204.016,397.975c0.039,0.558,0.362,0.786,0.961,0.863l-0.076,1.401c-1.096,0-1.785-0.154-2.439-0.712
			c0,0-1.611,0.729-3.244,0.729c-1.822,0-2.783-1.056-2.783-3.014s1.058-2.706,3.072-2.86l2.688-0.249v-0.71
			c0-1.074-0.5-1.556-1.518-1.556c-1.324,0-3.607,0.229-3.607,0.229l-0.077-1.383c0,0,2.323-0.461,3.879-0.461
			c2.092,0,3.146,0.998,3.146,3.168V397.975L204.016,397.975z M199.714,395.691c-0.998,0.096-1.438,0.557-1.438,1.517
			s0.4,1.535,1.285,1.535c1.111,0,2.631-0.479,2.631-0.479v-2.822L199.714,395.691z"/>
		<path fill="#FFFFFF" d="M214.807,390.469v9.578h-1.824v-0.557c0,0-1.496,0.768-2.689,0.768c-2.725,0-3.281-1.344-3.281-4.799
			v-4.99h1.822v4.973c0,2.343,0.174,3.168,1.785,3.168c1.076,0,2.361-0.576,2.361-0.576v-7.562h1.826V390.469L214.807,390.469z"/>
		<path fill="#FFFFFF" d="M217.55,397.801h1.979l-1.094,4.607h-1.807L217.55,397.801z"/>
		<path fill="#FFFFFF" d="M231.296,393.175h3.705v6.622c0,0-2.728,0.461-4.354,0.461c-4.07,0-5.226-2.494-5.226-6.872
			c0-4.528,1.211-6.87,5.164-6.87c2.019,0,4.416,0.536,4.416,0.536l-0.078,1.634c0,0-2.342-0.348-4.088-0.348
			c-2.803,0-3.494,1.459-3.494,5.048c0,3.532,0.599,5.068,3.438,5.068c1.017,0,2.322-0.212,2.38-0.212v-3.397h-1.861v-1.67H231.296
			L231.296,393.175z"/>
		<path fill="#FFFFFF" d="M244.659,398.417l0.036,1.438c0,0-2.188,0.402-3.819,0.402c-2.879-0.019-3.914-1.611-3.914-4.933
			c0-3.571,1.535-5.068,4.088-5.068c2.648,0,3.976,1.363,3.976,4.437l-0.115,1.324h-6.104c0,1.728,0.612,2.57,2.319,2.57
			C242.604,398.588,244.659,398.417,244.659,398.417z M243.218,394.598c0-1.998-0.633-2.729-2.168-2.729
			c-1.498,0-2.243,0.787-2.266,2.729H243.218z"/>
		<path fill="#FFFFFF" d="M247.389,390.469h1.805v1.133c0,0,1.363-1.019,3.129-1.361v1.919c-1.766,0.346-3.129,1.171-3.129,1.171
			v6.719h-1.805V390.469z"/>
		<path fill="#FFFFFF" d="M254.259,400.047v-9.578h1.785v0.575c0,0,0.979-0.558,2.058-0.688c0.362-0.06,0.729-0.078,1.018-0.06
			c0.902,0.038,1.516,0.308,1.957,0.808c0.691-0.271,2.17-0.847,3.418-0.847c2.609,0,3.281,1.325,3.281,4.78v5.01h-1.808v-4.355
			c0-2.745-0.11-3.743-1.803-3.743c-1.133,0-2.358,0.557-2.397,0.595c0.112,0.288,0.188,1.498,0.188,2.534v4.972h-1.804v-4.934
			c0-2.342-0.229-3.167-1.805-3.167c-1.057,0-2.285,0.575-2.285,0.575v7.523H254.259z"/>
		<path fill="#FFFFFF" d="M277.646,397.975c0.039,0.558,0.362,0.786,0.959,0.863l-0.076,1.401c-1.094,0-1.785-0.154-2.439-0.712
			c0,0-1.611,0.729-3.242,0.729c-1.824,0-2.783-1.056-2.783-3.014s1.056-2.706,3.068-2.86l2.689-0.249v-0.71
			c0-1.074-0.498-1.556-1.516-1.556c-1.324,0-3.609,0.229-3.609,0.229l-0.076-1.383c0,0,2.322-0.461,3.877-0.461
			c2.092,0,3.148,0.998,3.148,3.168V397.975L277.646,397.975z M273.343,395.691c-0.995,0.096-1.438,0.557-1.438,1.517
			s0.404,1.535,1.287,1.535c1.113,0,2.629-0.479,2.629-0.479v-2.822L273.343,395.691z"/>
		<path fill="#FFFFFF" d="M280.794,400.047v-9.578h1.808v0.614c0,0,1.459-0.826,2.764-0.826c2.668,0,3.301,1.44,3.301,4.78v5.01
			h-1.822V395c0-2.169-0.25-3.107-1.844-3.107c-1.229,0-2.398,0.574-2.398,0.574v7.582L280.794,400.047L280.794,400.047z"/>
		<path fill="#FFFFFF" d="M291.564,386.591h1.822v2.017h-1.822V386.591z M291.564,390.469h1.822v9.578h-1.822V390.469z"/>
		<path fill="#FFFFFF" d="M303.312,397.975c0.039,0.558,0.365,0.786,0.96,0.863l-0.076,1.401c-1.095,0-1.785-0.154-2.438-0.712
			c0,0-1.613,0.729-3.244,0.729c-1.824,0-2.783-1.056-2.783-3.014s1.056-2.706,3.07-2.86l2.688-0.249v-0.71
			c0-1.074-0.498-1.556-1.517-1.556c-1.323,0-3.608,0.229-3.608,0.229l-0.076-1.383c0,0,2.322-0.461,3.877-0.461
			c2.092,0,3.148,0.998,3.148,3.168L303.312,397.975L303.312,397.975z M299.013,395.691c-0.998,0.096-1.438,0.557-1.438,1.517
			s0.401,1.535,1.287,1.535c1.11,0,2.629-0.479,2.629-0.479v-2.822L299.013,395.691z"/>
	</g>
</g>
</svg>
