<?xml version="1.0" encoding="utf-8"?>
<!-- Generator: Adobe Illustrator 16.0.4, SVG Export Plug-In . SVG Version: 6.00 Build 0)  -->
<!DOCTYPE svg PUBLIC "-//W3C//DTD SVG 1.1//EN" "http://www.w3.org/Graphics/SVG/1.1/DTD/svg11.dtd">
<svg version="1.1" id="Ebene_1" xmlns="http://www.w3.org/2000/svg" xmlns:xlink="http://www.w3.org/1999/xlink" x="0px" y="0px"
	 width="306px" height="127px" viewBox="-0.541 154.838 306 127" enable-background="new -0.541 154.838 306 127"
	 xml:space="preserve">
<g>
	<g>
		<g>
			<rect x="0.636" y="259.38" fill="#55EB73" width="303.562" height="21.664"/>
		</g>
	</g>
	<g>
		<path fill="#FFFFFF" d="M21.518,162.834c0,0-6.769-0.77-9.554-0.77c-3.551,0-5.231,1.058-5.231,3.218
			c0,2.062,1.297,2.832,6.77,4.561c7.058,2.257,9.218,4.224,9.218,9.984c0,6.769-4.851,10.081-11.617,10.081
			c-3.648,0-10.082-1.344-10.082-1.344l0.674-5.905c0,0,5.951,0.815,9.359,0.815c3.553,0,5.09-0.959,5.09-3.504
			c0-2.017-1.152-2.977-5.857-4.32c-7.344-2.111-10.129-4.608-10.129-10.272c0-6.337,4.512-9.745,11.809-9.745
			c3.697,0,10.082,1.297,10.082,1.297L21.518,162.834z"/>
		<path fill="#FFFFFF" d="M45.563,183.572l0.098,4.992c0,0-5.521,1.345-9.986,1.345c-7.247,0-10.319-3.601-10.319-12.241
			c0-8.545,3.6-12.865,10.608-12.865c7.058,0,10.466,3.553,10.466,10.801l-0.48,4.514H31.835c0.049,2.736,1.394,3.889,4.849,3.889
			C40.62,184.004,45.563,183.572,45.563,183.572z M40.091,175.171c0-3.407-1.104-4.655-4.127-4.655
			c-3.071,0-4.129,1.487-4.178,4.655H40.091z"/>
		<path fill="#FFFFFF" d="M50.745,189.333v-23.954h6.385v1.152c0,0,1.584-0.771,3.267-1.297c0.815-0.239,1.727-0.433,2.399-0.433
			c2.688,0,4.562,0.673,5.855,1.97c2.449-0.912,5.617-1.97,8.209-1.97c6.529,0,8.449,3.792,8.449,12.001v12.529h-6.435v-9.889
			c0-6.049,0.097-8.642-3.358-8.642c-1.92,0-4.466,0.912-4.466,0.912s0.191,3.312,0.191,5.185v12.434h-6.432v-12.337
			c0-4.32-0.386-6.192-3.361-6.192c-1.584,0-4.271,0.815-4.271,0.815v17.714L50.745,189.333L50.745,189.333z"/>
		<path fill="#FFFFFF" d="M109.596,182.805c0.096,1.344,0.239,2.016,1.584,2.256l-0.191,4.849c-3.217,0-4.85-0.336-6.865-1.681
			c0,0-3.457,1.681-7.057,1.681c-5.041,0-7.441-2.784-7.441-7.873c0-5.425,3.121-6.96,8.402-7.345l5.135-0.385v-1.248
			c0-1.729-0.912-2.592-2.832-2.592c-3.168,0-8.977,0.385-8.977,0.385l-0.191-4.656c0,0,6.049-1.394,9.984-1.394
			c5.473,0,8.449,2.448,8.449,8.257V182.805z M98.794,179.156c-1.68,0.144-2.688,0.96-2.688,2.688c0,1.68,0.625,2.784,2.354,2.784
			c1.584,0,4.703-0.721,4.703-0.721v-5.136L98.794,179.156z"/>
		<path fill="#FFFFFF" d="M115.784,155.682h6.434v6.576h-6.434V155.682z M115.784,165.378h6.434v23.954h-6.434V165.378z"/>
		<path fill="#FFFFFF" d="M128.167,189.333v-23.954h6.435v1.344c0,0,3.217-1.92,5.953-1.92c6.721,0,8.446,4.225,8.446,12.002v12.528
			h-6.432v-12.771c0-3.646-0.48-6-3.6-6c-2.259,0-4.369,0.864-4.369,0.864v17.905L128.167,189.333L128.167,189.333z"/>
		<path fill="#FFFFFF" d="M173.288,183.572l0.101,4.992c0,0-5.521,1.345-9.986,1.345c-7.248,0-10.32-3.601-10.32-12.241
			c0-8.545,3.6-12.865,10.609-12.865c7.057,0,10.465,3.553,10.465,10.801l-0.48,4.514h-14.113c0.049,2.736,1.394,3.889,4.849,3.889
			C168.348,184.004,173.288,183.572,173.288,183.572z M167.814,175.171c0-3.407-1.104-4.655-4.127-4.655
			c-3.071,0-4.129,1.487-4.178,4.655H167.814z"/>
		<path fill="#FFFFFF" d="M185.77,156.209h12.573l7.201,33.123h-6.625l-1.485-5.568h-11.14l-1.248,5.568h-6.625L185.77,156.209z
			 M187.688,177.379h8.496l-3.119-15.072h-2.16L187.688,177.379z"/>
		<path fill="#FFFFFF" d="M209.236,155.73h6.433v33.603h-6.433V155.73z"/>
		<path fill="#FFFFFF" d="M221.62,165.378h6.435v1.104c0,0,3.069-1.682,5.426-1.682c6.336,0,9.457,3.12,9.457,12.338
			c0,10.226-3.556,12.77-10.898,12.77c-1.775,0-3.984-0.385-3.984-0.385v9.89h-6.432v-34.035H221.62L221.62,165.378z
			 M228.052,171.619v12.24c0,0,2.16,0.24,3.509,0.24c3.84,0,4.848-1.871,4.848-6.961c0-4.848-1.633-6.433-4.176-6.433
			C230.6,170.707,228.052,171.619,228.052,171.619z"/>
		<path fill="#FFFFFF" d="M247.35,155.682h6.434v6.576h-6.434V155.682z M247.35,165.378h6.434v23.954h-6.434V165.378z"/>
		<path fill="#FFFFFF" d="M258.771,189.333v-23.954h6.432v1.344c0,0,3.217-1.92,5.953-1.92c6.721,0,8.449,4.225,8.449,12.002v12.528
			h-6.435v-12.771c0-3.646-0.479-6-3.601-6c-2.256,0-4.368,0.864-4.368,0.864v17.905L258.771,189.333L258.771,189.333z"/>
		<path fill="#FFFFFF" d="M303.892,183.572l0.099,4.992c0,0-5.521,1.345-9.984,1.345c-7.25,0-10.322-3.601-10.322-12.241
			c0-8.545,3.603-12.865,10.609-12.865c7.057,0,10.465,3.553,10.465,10.801l-0.479,4.514h-14.111
			c0.047,2.736,1.394,3.889,4.851,3.889C298.946,184.004,303.892,183.572,303.892,183.572z M298.419,175.171
			c0-3.407-1.104-4.655-4.129-4.655c-3.069,0-4.127,1.487-4.176,4.655H298.419z"/>
		<path fill="#FFFFFF" d="M0.667,226.918v-23.345h8.408c6.43,0,8.305,4.989,8.305,11.319c0,6.364-1.842,12.024-8.305,12.024
			L0.667,226.918L0.667,226.918z M9.075,205.516H2.71v19.461h6.365c4.889,0,6.162-5.125,6.162-10.082S13.964,205.516,9.075,205.516z
			"/>
		<path fill="#FFFFFF" d="M33.764,225.109l0.065,1.676c0,0-3.783,0.469-6.396,0.469c-4.99-0.033-6.498-3.048-6.498-8.643
			c0-6.463,2.813-8.74,6.899-8.74c4.32,0,6.599,2.277,6.599,7.904l-0.066,1.606H22.979c0,3.952,1.139,6.029,4.655,6.029
			C30.079,225.412,33.764,225.109,33.764,225.109z M32.423,217.708c0-4.421-1.438-6.062-4.588-6.062
			c-3.049,0-4.856,1.707-4.856,6.062H32.423z"/>
		<path fill="#FFFFFF" d="M49.811,212.215c0,0-3.617-0.535-5.795-0.535c-2.109,0-3.951,0.568-3.951,2.846
			c0,1.742,0.836,2.277,4.354,2.813c4.39,0.703,6.029,1.507,6.029,4.724c0,3.918-2.445,5.19-6.465,5.19
			c-2.043,0-5.76-0.603-5.76-0.603l0.133-1.775c0,0,3.752,0.568,5.459,0.568c2.914,0,4.59-0.67,4.59-3.281
			c0-2.01-1.006-2.412-4.59-2.98c-4.019-0.637-5.793-1.373-5.793-4.589c0-3.651,2.979-4.723,5.895-4.723
			c2.545,0,5.961,0.569,5.961,0.569L49.811,212.215z"/>
		<path fill="#FFFFFF" d="M68.671,203.574h4.855l6.598,23.312h-2.076l-1.942-6.329H65.923l-1.875,6.362h-2.075L68.671,203.574z
			 M66.428,218.579h9.209l-3.718-13.097h-1.741L66.428,218.579z"/>
		<path fill="#FFFFFF" d="M84.114,202.736h2.01v24.183h-2.01V202.736z"/>
		<path fill="#FFFFFF" d="M92.153,210.172h2.01v1.271c0,0,2.611-1.573,5.291-1.573c4.188,0,5.963,2.579,5.963,8.474
			c0,6.432-2.078,8.909-7.233,8.909c-1.677,0-3.451-0.302-4.021-0.437v7.638h-2.01V210.172L92.153,210.172z M94.163,213.186v11.856
			c0.568,0.101,2.344,0.401,3.918,0.401c3.92,0,5.258-1.977,5.258-7.168c0-4.855-1.506-6.598-4.086-6.598
			C96.811,211.68,94.163,213.186,94.163,213.186z"/>
		<path fill="#FFFFFF" d="M121.831,225.109l0.066,1.676c0,0-3.783,0.469-6.396,0.469c-4.989-0.033-6.498-3.048-6.498-8.643
			c0-6.463,2.814-8.74,6.9-8.74c4.32,0,6.598,2.277,6.598,7.904l-0.065,1.606h-11.39c0,3.952,1.14,6.029,4.656,6.029
			C118.147,225.412,121.831,225.109,121.831,225.109z M120.491,217.708c0-4.421-1.439-6.062-4.588-6.062
			c-3.049,0-4.857,1.707-4.857,6.062H120.491z"/>
		<path fill="#FFFFFF" d="M137.878,212.215c0,0-3.616-0.535-5.795-0.535c-2.108,0-3.951,0.568-3.951,2.846
			c0,1.742,0.836,2.277,4.354,2.813c4.389,0.703,6.029,1.507,6.029,4.724c0,3.918-2.445,5.19-6.466,5.19
			c-2.043,0-5.76-0.603-5.76-0.603l0.133-1.775c0,0,3.752,0.568,5.459,0.568c2.914,0,4.591-0.67,4.591-3.281
			c0-2.01-1.007-2.412-4.591-2.98c-4.018-0.637-5.793-1.373-5.793-4.589c0-3.651,2.98-4.723,5.896-4.723
			c2.545,0,5.961,0.569,5.961,0.569L137.878,212.215z"/>
		<path fill="#FFFFFF" d="M162.7,208.631c0,3.215-1.574,4.756-5.259,6.297l5.357,5.325c0.369-1.206,0.771-2.981,0.973-4.655
			l1.976,0.033c-0.302,2.244-0.804,4.421-1.406,5.962l4.455,4.32l-1.271,1.407l-4.152-4.021c-1.809,2.847-4.086,4.054-7.537,4.054
			c-5.628,0-7.804-2.746-7.804-7.303c0-3.951,1.842-5.593,5.259-6.766c-1.509-1.741-1.708-2.881-1.708-4.789
			c0-2.98,1.942-4.991,5.56-4.991C160.991,203.506,162.7,205.516,162.7,208.631z M161.861,221.961l-7.233-7.268
			c-3.215,0.971-4.555,2.311-4.555,5.324c0,3.483,1.707,5.426,5.827,5.426C158.614,225.445,160.456,224.439,161.861,221.961z
			 M155.1,212.583l1.039,1.038c3.245-1.271,4.52-2.346,4.52-4.891c0-2.144-1.006-3.35-3.518-3.35c-2.277,0-3.552,1.072-3.552,3.282
			C153.589,210.038,153.858,211.344,155.1,212.583z"/>
		<path fill="#FFFFFF" d="M191.743,226.918h-2.011v-1.206c0,0-2.646,1.541-5.358,1.541c-2.812,0-5.858-1.005-5.858-8.573
			c0-5.828,1.739-8.81,7-8.81c1.475,0,3.584,0.302,4.221,0.401v-6.799h2.01v23.445H191.743z M189.732,223.971v-11.924
			c-0.67-0.066-2.812-0.367-4.151-0.367c-3.983,0-5.06,2.444-5.06,7.066c0,5.861,2.111,6.631,4.054,6.665
			C187.057,225.377,189.732,223.971,189.732,223.971z"/>
		<path fill="#FFFFFF" d="M209.464,225.109l0.065,1.676c0,0-3.782,0.469-6.396,0.469c-4.987-0.033-6.495-3.048-6.495-8.643
			c0-6.463,2.812-8.74,6.897-8.74c4.319,0,6.598,2.277,6.598,7.904l-0.063,1.606h-11.389c0,3.952,1.139,6.029,4.653,6.029
			C205.779,225.412,209.464,225.109,209.464,225.109z M208.124,217.708c0-4.421-1.438-6.062-4.588-6.062
			c-3.05,0-4.854,1.707-4.854,6.062H208.124z"/>
		<path fill="#FFFFFF" d="M225.514,212.215c0,0-3.617-0.535-5.798-0.535c-2.106,0-3.948,0.568-3.948,2.846
			c0,1.742,0.836,2.277,4.354,2.813c4.389,0.703,6.029,1.507,6.029,4.724c0,3.918-2.445,5.19-6.465,5.19
			c-2.043,0-5.763-0.603-5.763-0.603l0.136-1.775c0,0,3.752,0.568,5.459,0.568c2.914,0,4.59-0.67,4.59-3.281
			c0-2.01-1.006-2.412-4.59-2.98c-4.021-0.637-5.793-1.373-5.793-4.589c0-3.651,2.979-4.723,5.895-4.723
			c2.545,0,5.961,0.569,5.961,0.569L225.514,212.215z"/>
		<path fill="#FFFFFF" d="M238.312,229.699c0-2.043,0.971-2.914,2.746-4.221c-0.604-0.369-0.871-1.239-0.871-2.277
			c0-0.569,1.069-2.612,1.069-2.612c-1.438-0.603-2.713-1.909-2.713-5.058c0-4.086,2.379-5.693,6.029-5.693
			c1.741,0,3.518,0.436,3.518,0.436l4.822-0.101v1.774l-3.283-0.066c0.703,0.703,1.177,1.676,1.177,3.65
			c0,4.287-2.048,5.594-6.332,5.594c-0.304,0-1.341-0.066-1.707-0.135c0,0-0.67,1.642-0.67,2.076c0,1.44,0.268,1.642,4.254,1.642
			c4.555,0,6.297,0.806,6.297,4.856c0,3.752-2.515,5.291-7.336,5.291C239.917,234.855,238.312,233.583,238.312,229.699z
			 M242.432,226.35c-1.607,1.139-2.109,1.774-2.109,3.215c0,2.612,0.904,3.551,5.021,3.551c3.652,0,5.228-1.006,5.228-3.483
			c0-2.847-1.205-3.147-4.355-3.147C244.941,226.482,242.432,226.35,242.432,226.35z M248.759,215.531
			c0-3.249-1.104-4.021-4.186-4.021c-2.681,0-4.021,1.039-4.021,4.021c0,2.646,0.938,3.919,3.918,3.919
			C247.557,219.45,248.759,218.445,248.759,215.531z"/>
		<path fill="#FFFFFF" d="M268.423,225.109l0.066,1.676c0,0-3.783,0.469-6.396,0.469c-4.99-0.033-6.498-3.048-6.498-8.643
			c0-6.463,2.812-8.74,6.898-8.74c4.32,0,6.6,2.277,6.6,7.904l-0.066,1.606h-11.387c0,3.952,1.139,6.029,4.653,6.029
			C264.739,225.412,268.423,225.109,268.423,225.109z M267.083,217.708c0-4.421-1.438-6.062-4.588-6.062
			c-3.05,0-4.854,1.707-4.854,6.062H267.083z"/>
		<path fill="#FFFFFF" d="M273.854,226.918v-16.746h2.011v1.239c0,0,2.811-1.541,5.426-1.541c4.588,0,5.594,2.11,5.594,8.34v8.708
			h-1.977v-8.708c0-4.892-0.535-6.531-3.886-6.531c-2.612,0-5.157,1.406-5.157,1.406v13.833H273.854z"/>
		<path fill="#FFFFFF" d="M303.562,212.215c0,0-3.616-0.535-5.793-0.535c-2.11,0-3.953,0.568-3.953,2.846
			c0,1.742,0.838,2.277,4.355,2.813c4.387,0.703,6.027,1.507,6.027,4.724c0,3.918-2.445,5.19-6.463,5.19
			c-2.043,0-5.762-0.603-5.762-0.603l0.135-1.775c0,0,3.75,0.568,5.459,0.568c2.914,0,4.588-0.67,4.588-3.281
			c0-2.01-1.004-2.412-4.588-2.98c-4.021-0.637-5.795-1.373-5.795-4.589c0-3.651,2.979-4.723,5.895-4.723
			c2.547,0,5.963,0.569,5.963,0.569L303.562,212.215z"/>
		<path fill="#FFFFFF" d="M4.452,238.158h1.701v12.347H4.339v-10.252l-2.991,1.983l-0.843-1.44L4.452,238.158z"/>
		<path fill="#FFFFFF" d="M14.362,238.158h1.703v12.347h-1.814v-10.252l-2.994,1.983l-0.842-1.44L14.362,238.158z"/>
		<path fill="#FFFFFF" d="M32.327,244.611v1.608h-9.354v-1.608H32.327z"/>
		<path fill="#FFFFFF" d="M41.534,238.158h1.701v12.347h-1.814v-10.252l-2.991,1.983l-0.843-1.44L41.534,238.158z"/>
		<path fill="#FFFFFF" d="M55.243,238.139v1.758h-5.668l-0.318,3.388c0,0,1.365-0.58,2.412-0.58c2.564,0,4.023,1.048,4.023,3.741
			c0,2.769-1.553,4.246-4.172,4.246c-1.908,0-4.191-0.543-4.191-0.543l0.207-1.646c0,0,2.301,0.449,3.928,0.449
			c1.402,0,2.357-0.879,2.357-2.413c0-1.571-0.955-2.133-2.32-2.133c-1.348,0-2.524,0.58-2.524,0.58l-1.439-0.301l0.394-6.547
			H55.243z"/>
		<path fill="#FFFFFF" d="M57.651,248.035h1.928v2.47h-1.928V248.035z"/>
		<path fill="#FFFFFF" d="M65.993,238.158h1.703v12.347h-1.814v-10.252l-2.993,1.983l-0.843-1.44L65.993,238.158z"/>
		<path fill="#FFFFFF" d="M80.526,244.48c0,4.715-1.703,6.229-4.621,6.229c-2.9,0-4.602-1.497-4.602-6.229
			c0-4.938,1.684-6.528,4.602-6.528C78.86,237.952,80.526,239.542,80.526,244.48z M73.249,244.5c0,3.573,0.879,4.471,2.674,4.471
			c1.798,0,2.658-0.896,2.658-4.488c0-3.742-0.787-4.789-2.658-4.789C74.071,239.691,73.249,240.72,73.249,244.5z"/>
		<path fill="#FFFFFF" d="M82.112,248.035h1.926v2.47h-1.926V248.035z"/>
		<path fill="#FFFFFF" d="M86.544,250.504v-1.665l3.236-3.312c1.533-1.571,2.545-2.601,2.545-3.967c0-1.328-0.805-1.813-2.471-1.813
			c-1.347,0-3.086,0.354-3.086,0.354l-0.131-1.664c0,0,1.87-0.486,3.61-0.486c2.674,0,3.945,1.066,3.945,3.386
			c0,1.871-0.785,2.938-2.543,4.696l-2.676,2.73h5.5v1.739L86.544,250.504L86.544,250.504z"/>
		<path fill="#FFFFFF" d="M104.985,244.48c0,4.715-1.701,6.229-4.621,6.229c-2.898,0-4.602-1.497-4.602-6.229
			c0-4.938,1.684-6.528,4.602-6.528C103.321,237.952,104.985,239.542,104.985,244.48z M97.708,244.5
			c0,3.573,0.879,4.471,2.676,4.471c1.796,0,2.656-0.896,2.656-4.488c0-3.742-0.785-4.789-2.656-4.789
			C98.532,239.691,97.708,240.72,97.708,244.5z"/>
		<path fill="#FFFFFF" d="M110.276,238.158h1.701v12.347h-1.814v-10.252l-2.992,1.983l-0.842-1.44L110.276,238.158z"/>
		<path fill="#FFFFFF" d="M124.061,239.936c0,0-1.759-0.244-3.33-0.244c-2.002,0-3.049,1.271-3.049,3.666
			c0,0.02,1.646-0.635,2.844-0.635c2.75,0,4.188,1.215,4.188,3.871c0,2.694-1.627,4.116-4.396,4.116
			c-3.144,0-4.508-2.319-4.508-6.397c0-4.678,1.907-6.36,4.92-6.36c1.571,0,3.498,0.317,3.498,0.317L124.061,239.936z
			 M117.661,244.949c0.021,2.263,0.711,4.04,2.656,4.04c1.629,0,2.508-0.785,2.508-2.396c0-1.532-0.897-2.207-2.432-2.207
			C119.104,244.443,117.661,244.949,117.661,244.949z"/>
		<path fill="#FFFFFF" d="M134.249,236.848h1.814v16.688h-1.814V236.848z"/>
		<path fill="#FFFFFF" d="M151.229,243.807h3.611v6.454c0,0-2.656,0.449-4.246,0.449c-3.968,0-5.091-2.433-5.091-6.696
			c0-4.416,1.181-6.697,5.033-6.697c1.965,0,4.304,0.522,4.304,0.522l-0.074,1.591c0,0-2.283-0.337-3.983-0.337
			c-2.732,0-3.406,1.423-3.406,4.921c0,3.441,0.58,4.938,3.351,4.938c0.989,0,2.265-0.206,2.317-0.206v-3.312h-1.813
			L151.229,243.807L151.229,243.807z"/>
		<path fill="#FFFFFF" d="M157.419,241.169h1.758v1.104c0,0,1.328-0.991,3.052-1.328v1.871c-1.724,0.336-3.052,1.141-3.052,1.141
			v6.548h-1.758V241.169z"/>
		<path fill="#FFFFFF" d="M170.85,248.484c0.034,0.543,0.354,0.768,0.936,0.842l-0.074,1.365c-1.066,0-1.74-0.149-2.377-0.691
			c0,0-1.57,0.711-3.16,0.711c-1.777,0-2.713-1.029-2.713-2.938c0-1.909,1.029-2.639,2.992-2.787l2.619-0.243v-0.692
			c0-1.048-0.486-1.516-1.479-1.516c-1.288,0-3.518,0.225-3.518,0.225l-0.074-1.347c0,0,2.267-0.449,3.776-0.449
			c2.039,0,3.068,0.974,3.068,3.087v4.434H170.85z M166.657,246.258c-0.974,0.094-1.404,0.542-1.404,1.479
			c0,0.936,0.396,1.496,1.254,1.496c1.086,0,2.562-0.469,2.562-0.469v-2.75L166.657,246.258z"/>
		<path fill="#FFFFFF" d="M180.253,242.854c0,0-2.147-0.299-3.312-0.299c-1.123,0-1.797,0.279-1.797,1.196
			c0,0.711,0.433,0.916,2.133,1.197c2.47,0.393,3.312,0.954,3.312,2.786c0,2.188-1.399,2.976-3.685,2.976
			c-1.254,0-3.387-0.394-3.387-0.394l0.074-1.516c0,0,2.207,0.299,3.162,0.299c1.422,0,2.059-0.299,2.059-1.31
			c0-0.785-0.395-0.974-2.059-1.233c-2.338-0.394-3.387-0.86-3.387-2.77c0-2.096,1.684-2.825,3.461-2.825
			c1.385,0,3.461,0.394,3.461,0.394L180.253,242.854z"/>
		<path fill="#FFFFFF" d="M189.438,242.854c0,0-2.15-0.299-3.312-0.299c-1.123,0-1.797,0.279-1.797,1.196
			c0,0.711,0.432,0.916,2.133,1.197c2.471,0.393,3.312,0.954,3.312,2.786c0,2.188-1.402,2.976-3.687,2.976
			c-1.254,0-3.387-0.394-3.387-0.394l0.073-1.516c0,0,2.207,0.299,3.162,0.299c1.422,0,2.06-0.299,2.06-1.31
			c0-0.785-0.396-0.974-2.06-1.233c-2.338-0.394-3.387-0.86-3.387-2.77c0-2.096,1.684-2.825,3.461-2.825
			c1.385,0,3.461,0.394,3.461,0.394L189.438,242.854z"/>
		<path fill="#FFFFFF" d="M199.009,248.484c0.037,0.543,0.355,0.768,0.938,0.842l-0.074,1.365c-1.066,0-1.74-0.149-2.377-0.691
			c0,0-1.57,0.711-3.16,0.711c-1.777,0-2.713-1.029-2.713-2.938c0-1.909,1.029-2.639,2.992-2.787l2.619-0.243v-0.692
			c0-1.048-0.486-1.516-1.479-1.516c-1.291,0-3.519,0.225-3.519,0.225l-0.073-1.347c0,0,2.264-0.449,3.776-0.449
			c2.039,0,3.068,0.974,3.068,3.087L199.009,248.484L199.009,248.484z M194.818,246.258c-0.973,0.094-1.403,0.542-1.403,1.479
			c0,0.936,0.396,1.496,1.254,1.496c1.086,0,2.562-0.469,2.562-0.469v-2.75L194.818,246.258z"/>
		<path fill="#FFFFFF" d="M209.521,241.169v9.335h-1.777v-0.543c0,0-1.459,0.749-2.619,0.749c-2.656,0-3.199-1.31-3.199-4.677
			v-4.864h1.777v4.845c0,2.283,0.17,3.088,1.74,3.088c1.049,0,2.301-0.562,2.301-0.562v-7.371H209.521z"/>
		<path fill="#FFFFFF" d="M212.189,248.316h1.927l-1.066,4.488h-1.758L212.189,248.316z"/>
		<path fill="#FFFFFF" d="M222.962,237.521h3.726l3.291,12.965h-1.832l-0.842-2.899h-5.054l-0.805,2.918h-1.814L222.962,237.521z
			 M222.646,245.846h4.283l-1.664-6.641h-0.918L222.646,245.846z"/>
		<path fill="#FFFFFF" d="M231.917,237.186h1.776v13.318h-1.776V237.186z"/>
		<path fill="#FFFFFF" d="M236.609,237.186h1.777v13.318h-1.777V237.186z"/>
		<path fill="#FFFFFF" d="M248.188,248.915l0.037,1.401c0,0-2.133,0.395-3.723,0.395c-2.807-0.02-3.816-1.57-3.816-4.809
			c0-3.479,1.498-4.938,3.984-4.938c2.582,0,3.873,1.328,3.873,4.321l-0.111,1.291h-5.949c0,1.684,0.599,2.507,2.265,2.507
			C246.188,249.083,248.188,248.915,248.188,248.915z M246.786,245.191c0-1.945-0.617-2.656-2.115-2.656
			c-1.459,0-2.188,0.768-2.207,2.656H246.786z"/>
		<path fill="#FFFFFF" d="M250.841,250.504v-9.335h1.74v0.562c0,0,0.953-0.543,2.002-0.674c0.354-0.056,0.711-0.074,0.99-0.056
			c0.881,0.037,1.479,0.299,1.907,0.785c0.675-0.263,2.115-0.823,3.33-0.823c2.545,0,3.199,1.291,3.199,4.658v4.883h-1.758v-4.246
			c0-2.676-0.113-3.648-1.76-3.648c-1.104,0-2.301,0.543-2.338,0.58c0.113,0.28,0.188,1.459,0.188,2.471v4.845h-1.758v-4.808
			c0-2.282-0.225-3.088-1.76-3.088c-1.029,0-2.227,0.562-2.227,0.562v7.333L250.841,250.504L250.841,250.504z"/>
		<path fill="#FFFFFF" d="M273.62,248.484c0.037,0.543,0.354,0.768,0.938,0.842l-0.076,1.365c-1.066,0-1.738-0.149-2.375-0.691
			c0,0-1.572,0.711-3.162,0.711c-1.777,0-2.713-1.029-2.713-2.938c0-1.909,1.026-2.639,2.994-2.787l2.616-0.243v-0.692
			c0-1.048-0.483-1.516-1.479-1.516c-1.29,0-3.518,0.225-3.518,0.225l-0.074-1.347c0,0,2.265-0.449,3.779-0.449
			c2.039,0,3.068,0.974,3.068,3.087L273.62,248.484L273.62,248.484z M269.432,246.258c-0.976,0.094-1.402,0.542-1.402,1.479
			c0,0.936,0.393,1.496,1.254,1.496c1.084,0,2.561-0.469,2.561-0.469v-2.75L269.432,246.258z"/>
		<path fill="#FFFFFF" d="M275.977,252.132c0-1.011,0.483-1.571,1.438-2.302c-0.354-0.243-0.58-0.768-0.58-1.348
			c0-0.393,0.674-1.478,0.674-1.478c-0.746-0.394-1.422-1.104-1.422-2.807c0-2.339,1.533-3.236,3.648-3.236
			c0.897,0,1.926,0.243,1.926,0.243l2.771-0.074v1.459l-1.572-0.074c0.301,0.336,0.543,0.842,0.543,1.684
			c0,2.507-1.254,3.199-3.723,3.199c-0.189,0-0.677-0.037-0.861-0.075c0,0-0.279,0.729-0.279,0.974c0,0.654,0.168,0.768,2.113,0.768
			c2.824,0,3.76,0.58,3.76,2.769s-1.684,3.05-4.246,3.05C277.282,254.882,275.977,254.264,275.977,252.132z M278.593,250.504
			c-0.637,0.486-0.858,0.823-0.858,1.459c0,1.029,0.58,1.439,2.451,1.439c1.645,0,2.432-0.43,2.432-1.478
			c0-1.179-0.523-1.31-2.113-1.327C279.882,250.598,278.593,250.504,278.593,250.504z M281.645,244.2
			c0-1.384-0.523-1.833-1.908-1.833c-1.273,0-1.871,0.543-1.871,1.833c0,1.196,0.467,1.813,1.834,1.813
			C281.079,246.014,281.645,245.491,281.645,244.2z"/>
		<path fill="#FFFFFF" d="M286.482,250.504v-9.335h1.759v0.599c0,0,1.422-0.805,2.692-0.805c2.603,0,3.219,1.403,3.219,4.658v4.883
			h-1.776v-4.92c0-2.114-0.244-3.029-1.797-3.029c-1.197,0-2.338,0.561-2.338,0.561v7.39L286.482,250.504L286.482,250.504z"/>
		<path fill="#FFFFFF" d="M303.896,248.915l0.036,1.401c0,0-2.133,0.395-3.723,0.395c-2.808-0.02-3.815-1.57-3.815-4.809
			c0-3.479,1.495-4.938,3.983-4.938c2.582,0,3.873,1.328,3.873,4.321l-0.113,1.291h-5.948c0,1.684,0.6,2.507,2.264,2.507
			C301.894,249.083,303.896,248.915,303.896,248.915z M302.491,245.191c0-1.945-0.617-2.656-2.113-2.656
			c-1.459,0-2.188,0.768-2.207,2.656H302.491z"/>
	</g>
</g>
</svg>
