<?xml version="1.0" encoding="utf-8"?>
<!-- Generator: Adobe Illustrator 16.0.4, SVG Export Plug-In . SVG Version: 6.00 Build 0)  -->
<!DOCTYPE svg PUBLIC "-//W3C//DTD SVG 1.1//EN" "http://www.w3.org/Graphics/SVG/1.1/DTD/svg11.dtd">
<svg version="1.1" id="Ebene_1" xmlns="http://www.w3.org/2000/svg" xmlns:xlink="http://www.w3.org/1999/xlink" x="0px" y="0px"
	 width="306px" height="115px" viewBox="0.097 -0.451 306 115" enable-background="new 0.097 -0.451 306 115" xml:space="preserve">
<g>
	<g>
		<path fill="#0098BA" d="M10.281,1.503h15.381l8.806,40.502h-8.103l-1.819-6.809H10.927L9.4,42.005H1.3L10.281,1.503z
			 M12.628,27.391h10.391L19.205,8.955h-2.643L12.628,27.391z"/>
		<path fill="#0098BA" d="M39.218,0.915h7.867v41.09h-7.867V0.915z"/>
		<path fill="#0098BA" d="M54.597,12.714h7.867v1.354c0,0,3.756-2.059,6.633-2.059c7.748,0,11.563,3.816,11.563,15.086
			c0,12.508-4.344,15.615-13.325,15.615c-2.173,0-4.871-0.471-4.871-0.471v12.094h-7.867V12.714L54.597,12.714z M62.464,20.345
			v14.973c0,0,2.641,0.293,4.284,0.293c4.695,0,5.929-2.289,5.929-8.516c0-5.928-1.996-7.861-5.107-7.861
			C65.575,19.232,62.464,20.345,62.464,20.345z"/>
		<path fill="#0098BA" d="M107.779,20.052c0,0-7.279-0.938-10.684-0.938c-3.405,0-4.109,0.705-4.109,2.291
			c0,1.35,1.115,1.701,5.519,2.406c7.809,1.229,10.272,3.463,10.272,9.393c0,6.867-4.52,9.508-11.856,9.508
			c-4.345,0-11.271-1.407-11.271-1.407l0.236-6.634c0,0,7.276,0.939,10.271,0.939c3.758,0,4.756-0.705,4.756-2.23
			c0-1.291-0.646-1.762-4.756-2.467c-7.631-1.291-11.035-3.051-11.035-9.332c0-6.811,5.226-9.567,11.388-9.567
			c4.227,0,11.389,1.47,11.389,1.47L107.779,20.052z"/>
		<path fill="#0098BA" d="M115.115,42.005V0.915h7.865v22.951l2.994-0.586l5.811-10.566h8.808l-7.572,13.854l7.982,15.438h-8.863
			l-5.988-11.035l-3.17,0.59v10.445L115.115,42.005L115.115,42.005z"/>
		<path fill="#0098BA" d="M145.166,0.857h7.867V8.9h-7.867V0.857z M145.166,12.714h7.867v29.291h-7.867V12.714z"/>
		<path fill="#0098BA" d="M160.721,1.503h29.355v7.809H179.51v32.693h-8.102V9.312H160.72L160.721,1.503L160.721,1.503z"/>
		<path fill="#0098BA" d="M211.203,34.962l0.117,6.104c0,0-6.75,1.645-12.211,1.645c-8.863,0-12.619-4.4-12.619-14.969
			c0-10.449,4.4-15.732,12.973-15.732c8.629,0,12.797,4.348,12.797,13.209l-0.588,5.521h-17.258c0.059,3.346,1.703,4.756,5.93,4.756
			C205.158,35.492,211.203,34.962,211.203,34.962z M204.51,24.691c0-4.168-1.35-5.695-5.047-5.695c-3.758,0-5.049,1.82-5.104,5.695
			H204.51z"/>
		<path fill="#0098BA" d="M242.254,42.005h-7.865v-1.174c0,0-4.051,1.82-7.045,1.82c-8.863,0-11.441-5.342-11.441-15.615
			c0-10.625,4.168-15.027,12.146-15.027c2.172,0,6.34,0.768,6.34,0.768V0.917h7.865V42.005z M234.389,34.55V19.644
			c0,0-3.229-0.529-5.752-0.529c-2.936,0-4.756,2.113-4.756,7.926c0,5.928,1.115,8.217,4.814,8.336
			C230.988,35.316,234.389,34.55,234.389,34.55z"/>
		<path fill="#0098BA" d="M272.602,34.962l0.117,6.104c0,0-6.75,1.645-12.211,1.645c-8.863,0-12.619-4.4-12.619-14.969
			c0-10.449,4.402-15.732,12.978-15.732c8.629,0,12.797,4.348,12.797,13.209l-0.588,5.521h-17.263
			c0.062,3.346,1.703,4.756,5.935,4.756C266.555,35.492,272.602,34.962,272.602,34.962z M265.908,24.691
			c0-4.168-1.35-5.695-5.047-5.695c-3.758,0-5.049,1.82-5.105,5.695H265.908z"/>
		<path fill="#0098BA" d="M279.174,42.005V12.714h7.865v1.646c0,0,3.934-2.352,7.279-2.352c8.219,0,10.33,5.166,10.33,14.678v15.318
			h-7.865v-15.61c0-4.461-0.586-7.34-4.402-7.34c-2.758,0-5.342,1.059-5.342,1.059v21.896h-7.865V42.005L279.174,42.005z"/>
		<path fill="#0098BA" d="M12.851,59.171h8.504l11.551,40.813h-3.635L25.869,88.9H8.041l-3.282,11.144H1.121L12.851,59.171z
			 M8.923,85.443h16.125l-6.511-22.928h-3.048L8.923,85.443z"/>
		<path fill="#0098BA" d="M39.88,57.706h3.518v42.338H39.88V57.706z"/>
		<path fill="#0098BA" d="M53.95,70.727h3.521v2.227c0,0,4.574-2.756,9.266-2.756c7.328,0,10.438,4.516,10.438,14.836
			c0,11.26-3.638,15.598-12.666,15.598c-2.935,0-6.041-0.522-7.037-0.762v13.371h-3.521L53.95,70.727L53.95,70.727z M57.47,76.001
			v20.758c0.996,0.181,4.104,0.705,6.86,0.705c6.859,0,9.205-3.461,9.205-12.549c0-8.504-2.639-11.553-7.153-11.553
			C62.103,73.365,57.47,76.001,57.47,76.001z"/>
		<path fill="#0098BA" d="M105.902,96.876l0.117,2.937c0,0-6.627,0.817-11.199,0.817c-8.738-0.06-11.377-5.336-11.377-15.129
			c0-11.314,4.926-15.305,12.08-15.305c7.564,0,11.551,3.985,11.551,13.838l-0.117,2.813H87.019c0,6.92,1.994,10.558,8.152,10.558
			C99.45,97.406,105.902,96.876,105.902,96.876z M103.556,83.917c0-7.74-2.521-10.612-8.033-10.612
			c-5.336,0-8.504,2.989-8.504,10.612H103.556z"/>
		<path fill="#0098BA" d="M148.937,68.027c0,5.631-2.756,8.328-9.205,11.021l9.381,9.324c0.646-2.111,1.351-5.22,1.701-8.148
			l3.458,0.059c-0.523,3.93-1.403,7.74-2.46,10.438l7.8,7.564l-2.229,2.463l-7.271-7.037c-3.168,4.984-7.154,7.1-13.195,7.1
			c-9.852,0-13.661-4.812-13.661-12.785c0-6.917,3.225-9.791,9.207-11.848c-2.64-3.049-2.992-5.043-2.992-8.385
			c0-5.219,3.401-8.734,9.733-8.734C145.947,59.054,148.937,62.574,148.937,68.027z M147.472,91.367l-12.666-12.725
			c-5.631,1.697-7.978,4.045-7.978,9.32c0,6.103,2.992,9.5,10.203,9.5C141.783,97.464,145.009,95.704,147.472,91.367z
			 M135.626,74.947l1.817,1.813c5.688-2.227,7.916-4.104,7.916-8.561c0-3.752-1.76-5.863-6.158-5.863
			c-3.985,0-6.215,1.875-6.215,5.746C132.988,70.49,133.455,72.777,135.626,74.947z"/>
		<path fill="#0098BA" d="M176.783,57.706h3.521v42.338h-3.521V57.706z"/>
		<path fill="#0098BA" d="M191.207,70.727h3.518v28.791c0,6.92-1.875,9.56-9.61,13.484l-1.472-2.988
			c6.222-3.462,7.564-5.104,7.564-10.557V70.727L191.207,70.727z M191.207,58.878h3.518v4.398h-3.518V58.878z"/>
		<path fill="#0098BA" d="M226.916,70.727v29.316h-3.459V97.99c0,0-4.574,2.639-9.031,2.639c-8.146,0-9.793-3.574-9.793-14.602
			V70.723h3.461V85.91c0,8.797,0.879,11.553,6.742,11.553c4.398,0,8.621-2.463,8.621-2.463V70.727H226.916L226.916,70.727z"/>
		<path fill="#0098BA" d="M258.699,100.044h-3.521v-2.108c0,0-4.631,2.694-9.381,2.694c-4.926,0-10.262-1.76-10.262-15.012
			c0-10.203,3.049-15.422,12.254-15.422c2.58,0,6.273,0.526,7.389,0.703V58.995h3.521V100.044z M255.176,94.884V74.007
			c-1.172-0.113-4.926-0.645-7.27-0.645c-6.98,0-8.855,4.281-8.855,12.373c0,10.263,3.693,11.607,7.096,11.671
			C250.488,97.348,255.176,94.884,255.176,94.884z"/>
		<path fill="#0098BA" d="M269.832,70.727h3.518v28.791c0,6.92-1.875,9.56-9.61,13.484l-1.472-2.988
			c6.222-3.462,7.564-5.104,7.564-10.557V70.727z M269.832,58.878h3.518v4.398h-3.518V58.878z"/>
		<path fill="#0098BA" d="M303.898,96.876l0.118,2.937c0,0-6.626,0.817-11.196,0.817c-8.736-0.06-11.375-5.336-11.375-15.129
			c0-11.314,4.924-15.305,12.074-15.305c7.563,0,11.553,3.985,11.553,13.838l-0.113,2.813H285.02c0,6.92,1.994,10.558,8.15,10.558
			C297.451,97.406,303.898,96.876,303.898,96.876z M301.555,83.917c0-7.74-2.52-10.612-8.035-10.612
			c-5.336,0-8.502,2.989-8.502,10.612H301.555z"/>
	</g>
</g>
</svg>
