<?xml version="1.0" encoding="utf-8"?>
<!-- Generator: Adobe Illustrator 16.0.4, SVG Export Plug-In . SVG Version: 6.00 Build 0)  -->
<!DOCTYPE svg PUBLIC "-//W3C//DTD SVG 1.1//EN" "http://www.w3.org/Graphics/SVG/1.1/DTD/svg11.dtd">
<svg version="1.1" id="Ebene_1" xmlns="http://www.w3.org/2000/svg" xmlns:xlink="http://www.w3.org/1999/xlink" x="0px" y="0px"
	 width="306px" height="93px" viewBox="-0.361 -1.309 306 93" enable-background="new -0.361 -1.309 306 93" xml:space="preserve">
<g>
	<g>
		<path fill="#0098BA" d="M9.641,0.584h15.325l8.775,40.367h-8.072l-1.813-6.786H10.282l-1.521,6.786H0.688L9.641,0.584z
			 M11.979,26.384h10.354L18.532,8.015h-2.633L11.979,26.384z"/>
		<path fill="#0098BA" d="M37.659,0h7.84v40.952h-7.84V0z"/>
		<path fill="#0098BA" d="M52.167,11.758h7.84v1.346c0,0,3.744-2.047,6.611-2.047c7.721,0,11.523,3.803,11.523,15.034
			c0,12.461-4.328,15.562-13.279,15.562c-2.164,0-4.855-0.468-4.855-0.468v12.052h-7.84V11.758z M60.006,19.364v14.918
			c0,0,2.634,0.292,4.271,0.292c4.682,0,5.91-2.281,5.91-8.482c0-5.908-1.99-7.839-5.09-7.839
			C63.105,18.252,60.006,19.364,60.006,19.364z"/>
		<path fill="#0098BA" d="M105.693,33.931l0.117,6.084c0,0-6.728,1.638-12.168,1.638c-8.834,0-12.578-4.388-12.578-14.918
			c0-10.414,4.389-15.679,12.93-15.679c8.601,0,12.754,4.328,12.754,13.162l-0.586,5.499H88.963c0.06,3.334,1.695,4.739,5.908,4.739
			C99.668,34.458,105.693,33.931,105.693,33.931z M99.025,23.693c0-4.153-1.346-5.674-5.031-5.674c-3.744,0-5.031,1.812-5.09,5.674
			H99.025z"/>
		<path fill="#0098BA" d="M111.428,40.952V11.758h7.838v1.639c0,0,3.92-2.34,7.256-2.34c8.188,0,10.295,5.147,10.295,14.625v15.269
			h-7.838V25.39c0-4.446-0.586-7.313-4.39-7.313c-2.75,0-5.323,1.053-5.323,1.053v21.821L111.428,40.952L111.428,40.952z"/>
		<path fill="#0098BA" d="M149.393,0.584l6.085,32.061h0.877l6.084-32.061h9.187l6.084,32.061h0.877l6.086-32.061h8.481
			l-9.01,40.367H172.15l-5.148-28.491l-5.09,28.491h-11.995L140.91,0.584H149.393z"/>
		<path fill="#0098BA" d="M220,26.326c0,9.009-3.271,15.328-13.455,15.328c-10.18,0-13.455-6.318-13.455-15.328
			c0-9.01,3.275-15.269,13.455-15.269C216.729,11.057,220,17.317,220,26.326z M212.043,26.326c0-5.382-1.17-8.19-5.498-8.19
			c-4.33,0-5.5,2.809-5.5,8.19c0,5.381,1.17,8.249,5.5,8.249C210.873,34.575,212.043,31.708,212.043,26.326z"/>
		<path fill="#0098BA" d="M244.629,12.286l-0.23,6.729c0,0-4.621-0.469-6.85-0.469c-5.611,0-6.668,1.932-6.668,7.488
			c0,6.26,1.111,8.132,6.73,8.132c2.225,0,6.787-0.468,6.787-0.468l0.229,6.728c0,0-6.26,1.229-9.537,1.229
			c-8.717,0-12.168-4.622-12.168-15.62c0-10.354,3.633-14.977,12.35-14.977C238.66,11.057,244.629,12.286,244.629,12.286z"/>
		<path fill="#0098BA" d="M249.131,40.952V0h7.844v12.578c0,0,4.504-1.521,7.254-1.521c8.188,0,10.297,5.147,10.297,14.566v15.328
			h-7.84V25.624c0-4.388-0.584-7.254-4.1-7.254c-1.93,0-5.611,0.702-5.611,0.702v21.88H249.131z"/>
		<path fill="#0098BA" d="M303.535,33.931l0.117,6.084c0,0-6.729,1.638-12.168,1.638c-8.834,0-12.578-4.388-12.578-14.918
			c0-10.414,4.389-15.679,12.93-15.679c8.602,0,12.754,4.328,12.754,13.162l-0.586,5.499h-17.195
			c0.062,3.334,1.691,4.739,5.904,4.739C297.51,34.458,303.535,33.931,303.535,33.931z M296.867,23.693
			c0-4.153-1.346-5.674-5.031-5.674c-3.744,0-5.027,1.812-5.09,5.674H296.867z"/>
		<path fill="#0098BA" d="M8.5,54.534h5.638l7.659,27.06h-2.411l-2.255-7.348H5.312l-2.176,7.387H0.725L8.5,54.534z M5.896,71.952
			h10.69L12.271,56.75H10.25L5.896,71.952z"/>
		<path fill="#0098BA" d="M26.424,53.562h2.334v28.07h-2.334V53.562z"/>
		<path fill="#0098BA" d="M35.756,62.194h2.332v1.477c0,0,3.033-1.827,6.146-1.827c4.858,0,6.92,2.994,6.92,9.838
			c0,7.465-2.41,10.342-8.398,10.342c-1.942,0-4.004-0.352-4.666-0.506v8.864h-2.332L35.756,62.194L35.756,62.194z M38.088,65.693
			v13.763c0.662,0.117,2.724,0.466,4.552,0.466c4.549,0,6.104-2.293,6.104-8.318c0-5.64-1.75-7.66-4.744-7.66
			C41.161,63.943,38.088,65.693,38.088,65.693z"/>
		<path fill="#0098BA" d="M70.206,79.534l0.078,1.944c0,0-4.395,0.543-7.428,0.543c-5.793-0.039-7.541-3.537-7.541-10.03
			c0-7.504,3.266-10.147,8.008-10.147c5.016,0,7.66,2.646,7.66,9.176l-0.078,1.865H57.688c0,4.59,1.321,6.999,5.403,6.999
			C65.93,79.883,70.206,79.534,70.206,79.534z M68.65,70.941c0-5.132-1.672-7.041-5.328-7.041c-3.537,0-5.637,1.983-5.637,7.041
			H68.65z"/>
		<path fill="#0098BA" d="M76.504,81.632V62.194h2.332v1.438c0,0,3.269-1.789,6.3-1.789c5.325,0,6.493,2.449,6.493,9.683v10.106
			h-2.295V71.525c0-5.677-0.621-7.583-4.51-7.583c-3.033,0-5.988,1.633-5.988,1.633v16.057H76.504L76.504,81.632z"/>
		<path fill="#0098BA" d="M120.4,60.405c0,3.732-1.828,5.521-6.104,7.309l6.222,6.183c0.428-1.396,0.893-3.459,1.127-5.4
			l2.293,0.039c-0.351,2.604-0.933,5.132-1.633,6.921l5.172,5.015l-1.479,1.637l-4.819-4.666c-2.101,3.306-4.744,4.705-8.748,4.705
			c-6.531,0-9.06-3.188-9.06-8.479c0-4.588,2.14-6.493,6.104-7.854c-1.75-2.022-1.982-3.345-1.982-5.561
			c0-3.46,2.256-5.793,6.453-5.793C118.418,54.457,120.4,56.79,120.4,60.405z M119.43,75.878l-8.398-8.437
			c-3.732,1.127-5.287,2.683-5.287,6.182c0,4.043,1.982,6.298,6.766,6.298C115.657,79.921,117.795,78.755,119.43,75.878z
			 M111.575,64.993l1.205,1.206c3.771-1.478,5.25-2.722,5.25-5.676c0-2.488-1.168-3.889-4.084-3.889
			c-2.643,0-4.121,1.244-4.121,3.811C109.825,62.038,110.139,63.554,111.575,64.993z"/>
		<path fill="#0098BA" d="M136.771,54.534h4.354l8.476,23.6l8.517-23.6h4.313v27.099h-2.371V57.216h-0.545l-8.557,23.522h-2.799
			l-8.477-23.522h-0.543v24.416h-2.373L136.771,54.534L136.771,54.534z"/>
		<path fill="#0098BA" d="M183.117,79.534l0.078,1.944c0,0-4.396,0.543-7.428,0.543c-5.793-0.039-7.541-3.537-7.541-10.03
			c0-7.504,3.266-10.147,8.008-10.147c5.016,0,7.66,2.646,7.66,9.176l-0.078,1.865H170.6c0,4.59,1.32,6.999,5.402,6.999
			C178.84,79.883,183.117,79.534,183.117,79.534z M181.562,70.941c0-5.132-1.672-7.041-5.328-7.041
			c-3.537,0-5.637,1.983-5.637,7.041H181.562z"/>
		<path fill="#0098BA" d="M189.416,81.632V62.194h2.332v1.438c0,0,3.271-1.789,6.299-1.789c5.326,0,6.494,2.449,6.494,9.683v10.106
			h-2.295V71.525c0-5.677-0.621-7.583-4.51-7.583c-3.033,0-5.988,1.633-5.988,1.633v16.057H189.416L189.416,81.632z"/>
		<path fill="#0098BA" d="M223.904,64.565c0,0-4.199-0.622-6.729-0.622c-2.446,0-4.588,0.661-4.588,3.305
			c0,2.021,0.976,2.645,5.058,3.268c5.094,0.814,6.998,1.75,6.998,5.48c0,4.549-2.838,6.025-7.504,6.025
			c-2.371,0-6.688-0.699-6.688-0.699l0.155-2.062c0,0,4.354,0.661,6.338,0.661c3.384,0,5.326-0.776,5.326-3.81
			c0-2.334-1.166-2.799-5.326-3.461c-4.666-0.738-6.729-1.594-6.729-5.326c0-4.238,3.466-5.482,6.847-5.482
			c2.955,0,6.922,0.661,6.922,0.661L223.904,64.565z"/>
		<path fill="#0098BA" d="M242.062,62.31l-0.078,2.061c0,0-3.111-0.35-4.588-0.35c-4.666,0-6.027,1.982-6.027,7.542
			c0,6.025,0.973,8.28,6.027,8.28c1.477,0,4.627-0.35,4.627-0.35l0.115,2.062c0,0-3.498,0.467-5.173,0.467
			c-6.299,0-7.971-2.799-7.971-10.459c0-7.111,2.217-9.721,8.01-9.721C238.684,61.843,242.062,62.31,242.062,62.31z"/>
		<path fill="#0098BA" d="M247.473,81.632v-28.07h2.328v9.642c0,0,3.309-1.361,6.303-1.361c5.322,0,6.488,2.449,6.488,9.683v10.106
			h-2.328V71.562c0-5.681-0.623-7.583-4.438-7.583c-2.916,0-6.025,1.283-6.025,1.283V81.63h-2.328V81.632z"/>
		<path fill="#0098BA" d="M282.854,79.534l0.078,1.944c0,0-4.396,0.543-7.43,0.543c-5.793-0.039-7.543-3.537-7.543-10.03
			c0-7.504,3.27-10.147,8.014-10.147c5.019,0,7.654,2.646,7.654,9.176l-0.072,1.865H270.33c0,4.59,1.322,6.999,5.404,6.999
			C278.574,79.883,282.854,79.534,282.854,79.534z M281.295,70.941c0-5.132-1.672-7.041-5.322-7.041
			c-3.539,0-5.643,1.983-5.643,7.041H281.295z"/>
		<path fill="#0098BA" d="M289.15,81.632V62.194h2.332v1.438c0,0,3.266-1.789,6.299-1.789c5.326,0,6.492,2.449,6.492,9.683v10.106
			h-2.293V71.525c0-5.677-0.623-7.583-4.51-7.583c-3.033,0-5.988,1.633-5.988,1.633v16.057H289.15L289.15,81.632z"/>
	</g>
</g>
</svg>
