<?xml version="1.0" encoding="utf-8"?>
<!-- Generator: Adobe Illustrator 16.0.4, SVG Export Plug-In . SVG Version: 6.00 Build 0)  -->
<!DOCTYPE svg PUBLIC "-//W3C//DTD SVG 1.1//EN" "http://www.w3.org/Graphics/SVG/1.1/DTD/svg11.dtd">
<svg version="1.1" id="Ebene_1" xmlns="http://www.w3.org/2000/svg" xmlns:xlink="http://www.w3.org/1999/xlink" x="0px" y="0px"
	 width="306px" height="127px" viewBox="0.147 -0.085 306 127" enable-background="new 0.147 -0.085 306 127" xml:space="preserve">
<g>
	<g>
		<path fill="#0098BA" d="M13.959,1.772h21.588l12.359,56.855H36.537l-2.555-9.562H14.867l-2.144,9.562H1.352L13.959,1.772z
			 M17.256,38.11H31.84l-5.354-25.873h-3.709L17.256,38.11z"/>
		<path fill="#0098BA" d="M53.43,0.948h11.041v57.683H53.43V0.948z"/>
		<path fill="#0098BA" d="M73.865,17.514h11.041v1.895c0,0,5.272-2.885,9.311-2.885c10.877,0,16.232,5.357,16.232,21.178
			c0,17.554-6.099,21.918-18.705,21.918c-3.047,0-6.838-0.657-6.838-0.657v16.975H73.865V17.514z M84.906,28.224v21.012
			c0,0,3.707,0.412,6.016,0.412c6.592,0,8.322-3.213,8.322-11.947c0-8.319-2.804-11.041-7.17-11.041
			C89.272,26.657,84.906,28.224,84.906,28.224z"/>
		<path fill="#0098BA" d="M124.455,1.772l8.567,45.154h1.236l8.57-45.154h12.938l8.57,45.154h1.234l8.563-45.154h11.945
			l-12.688,56.855H156.5L149.247,18.5l-7.168,40.127H125.19L112.503,1.772H124.455z"/>
		<path fill="#0098BA" d="M220.285,48.739l0.164,8.568c0,0-9.477,2.309-17.141,2.309c-12.439,0-17.716-6.182-17.716-21.012
			c0-14.668,6.181-22.084,18.209-22.084c12.111,0,17.964,6.103,17.964,18.541l-0.822,7.744h-24.228
			c0.082,4.697,2.392,6.674,8.32,6.674C211.797,49.479,220.285,48.739,220.285,48.739z M210.891,34.319
			c0-5.85-1.895-7.991-7.086-7.991c-5.27,0-7.086,2.559-7.168,7.991H210.891z"/>
		<path fill="#0098BA" d="M260.412,48.739l0.164,8.568c0,0-9.477,2.309-17.141,2.309c-12.439,0-17.716-6.182-17.716-21.012
			c0-14.668,6.183-22.084,18.21-22.084c12.11,0,17.963,6.103,17.963,18.541l-0.822,7.744h-24.228
			c0.082,4.697,2.394,6.674,8.32,6.674C251.924,49.479,260.412,48.739,260.412,48.739z M251.018,34.319
			c0-5.85-1.895-7.991-7.086-7.991c-5.27,0-7.086,2.559-7.168,7.991H251.018z"/>
		<path fill="#0098BA" d="M268.49,58.629V0.946h11.041v32.222l4.199-0.824l8.158-14.83h12.358l-10.631,19.445l11.205,21.67h-12.439
			l-8.403-15.49l-4.447,0.824v14.666H268.49L268.49,58.629z"/>
		<path fill="#0098BA" d="M11.883,76.935h7.697l10.457,36.947h-3.291l-3.078-10.032H7.531l-2.974,10.086H1.266L11.883,76.935z
			 M8.326,100.719h14.598l-5.893-20.756H14.27L8.326,100.719z"/>
		<path fill="#0098BA" d="M36.35,75.606h3.187v38.328H36.35V75.606z"/>
		<path fill="#0098BA" d="M49.088,87.392h3.187v2.019c0,0,4.141-2.492,8.387-2.492c6.637,0,9.449,4.088,9.449,13.433
			c0,10.19-3.291,14.121-11.466,14.121c-2.653,0-5.469-0.48-6.37-0.691v12.104h-3.187V87.392z M52.275,92.172v18.793
			c0.901,0.158,3.717,0.637,6.211,0.637c6.211,0,8.334-3.133,8.334-11.36c0-7.694-2.39-10.457-6.478-10.457
			C56.467,89.78,52.275,92.172,52.275,92.172z"/>
		<path fill="#0098BA" d="M94.631,90.633c0,0-5.731-0.854-9.184-0.854c-3.345,0-6.265,0.902-6.265,4.517
			c0,2.763,1.326,3.604,6.9,4.459c6.955,1.11,9.557,2.39,9.557,7.481c0,6.211-3.875,8.229-10.246,8.229
			c-3.237,0-9.131-0.957-9.131-0.957l0.213-2.812c0,0,5.945,0.902,8.652,0.902c4.619,0,7.273-1.062,7.273-5.203
			c0-3.187-1.595-3.822-7.273-4.726c-6.369-1.009-9.184-2.179-9.184-7.271c0-5.787,4.725-7.483,9.344-7.483
			c4.033,0,9.449,0.899,9.449,0.899L94.631,90.633z"/>
		<path fill="#0098BA" d="M132.902,84.95c0,5.101-2.494,7.536-8.334,9.979l8.493,8.44c0.584-1.909,1.222-4.729,1.539-7.384
			l3.131,0.059c-0.477,3.557-1.272,7.008-2.229,9.444l7.061,6.853l-2.018,2.229l-6.582-6.369c-2.867,4.518-6.477,6.428-11.945,6.428
			c-8.918,0-12.369-4.355-12.369-11.572c0-6.264,2.921-8.865,8.337-10.725c-2.39-2.766-2.709-4.564-2.709-7.595
			c0-4.725,3.079-7.907,8.812-7.907C130.195,76.828,132.902,80.015,132.902,84.95z M131.576,106.078l-11.467-11.521
			c-5.097,1.539-7.222,3.664-7.222,8.441c0,5.52,2.709,8.6,9.238,8.6C126.424,111.6,129.344,110.008,131.576,106.078z
			 M120.85,91.217l1.646,1.645c5.147-2.016,7.166-3.715,7.166-7.75c0-3.396-1.592-5.309-5.574-5.309
			c-3.609,0-5.627,1.699-5.627,5.203C118.461,87.182,118.887,89.252,120.85,91.217z"/>
		<path fill="#0098BA" d="M160.605,101.09v12.848h-3.234v-37h13.432c7.91,0,11.467,3.662,11.467,11.572
			c0,7.908-3.557,12.58-11.467,12.58H160.605L160.605,101.09z M170.797,97.959c5.734,0,8.123-3.611,8.123-9.449
			c0-5.787-2.389-8.494-8.123-8.494h-10.191v17.943H170.797z"/>
		<path fill="#0098BA" d="M207.846,111.066l0.107,2.654c0,0-6,0.744-10.143,0.744c-7.906-0.058-10.3-4.832-10.3-13.697
			c0-10.244,4.462-13.854,10.938-13.854c6.85,0,10.459,3.605,10.459,12.523l-0.105,2.547h-18.051c0,6.271,1.807,9.562,7.379,9.562
			C202.008,111.549,207.846,111.066,207.846,111.066z M205.723,99.338c0-7.006-2.283-9.607-7.27-9.607
			c-4.83,0-7.697,2.707-7.697,9.607H205.723z"/>
		<path fill="#0098BA" d="M236.668,100.295c0,9.502-2.178,14.174-11.043,14.174c-8.918,0-11.201-4.195-11.201-14.229
			c0-9.396,2.979-13.319,11.201-13.319C233.326,86.916,236.668,91.004,236.668,100.295z M233.377,100.295
			c0-7.597-2.336-10.518-7.752-10.518c-6.105,0-7.963,2.555-7.963,10.457c0,8.07,1.115,11.361,7.963,11.361
			C232.475,111.6,233.377,107.885,233.377,100.295z"/>
		<path fill="#0098BA" d="M244.414,87.392h3.186v2.019c0,0,4.146-2.492,8.392-2.492c6.635,0,9.444,4.088,9.444,13.433
			c0,10.19-3.291,14.121-11.467,14.121c-2.654,0-5.467-0.48-6.369-0.691v12.104h-3.186V87.392L244.414,87.392z M247.6,92.172v18.793
			c0.902,0.158,3.715,0.637,6.211,0.637c6.211,0,8.334-3.133,8.334-11.36c0-7.694-2.389-10.457-6.477-10.457
			C251.793,89.78,247.6,92.172,247.6,92.172z"/>
		<path fill="#0098BA" d="M272.916,75.606h3.186v38.328h-3.186V75.606z"/>
		<path fill="#0098BA" d="M303.969,111.066l0.105,2.654c0,0-6,0.744-10.141,0.744c-7.906-0.058-10.3-4.832-10.3-13.697
			c0-10.244,4.462-13.854,10.938-13.854c6.85,0,10.457,3.605,10.457,12.523l-0.104,2.547h-18.053c0,6.271,1.81,9.562,7.381,9.562
			C298.131,111.549,303.969,111.066,303.969,111.066z M301.846,99.338c0-7.006-2.282-9.607-7.27-9.607
			c-4.83,0-7.697,2.707-7.697,9.607H301.846z"/>
	</g>
</g>
</svg>
