<?xml version="1.0" encoding="utf-8"?>
<!-- Generator: Adobe Illustrator 16.0.4, SVG Export Plug-In . SVG Version: 6.00 Build 0)  -->
<!DOCTYPE svg PUBLIC "-//W3C//DTD SVG 1.1//EN" "http://www.w3.org/Graphics/SVG/1.1/DTD/svg11.dtd">
<svg version="1.1" id="Ebene_1" xmlns="http://www.w3.org/2000/svg" xmlns:xlink="http://www.w3.org/1999/xlink" x="0px" y="0px"
	 width="306px" height="480px" viewBox="-0.621 -0.543 306 480" enable-background="new -0.621 -0.543 306 480"
	 xml:space="preserve">
<g>
	<g>
		<g>
			<rect x="0.669" y="59.853" fill="#FFFFFF" width="303.563" height="19.662"/>
		</g>
	</g>
	<g>
		<g>
			<rect x="0.639" y="149.346" fill="#FFFFFF" width="303.562" height="19.662"/>
		</g>
	</g>
	<g>
		<g>
			<rect x="0.639" y="231.828" fill="#FFFFFF" width="303.562" height="19.659"/>
		</g>
	</g>
	<g>
		<g>
			<rect x="0.639" y="334.172" fill="#FFFFFF" width="303.562" height="19.661"/>
		</g>
	</g>
	<g>
		<g>
			<rect x="0.639" y="459.253" fill="#FFFFFF" width="303.562" height="19.661"/>
		</g>
	</g>
	<g>
		<path fill="#FFFFFF" d="M9.757,0.584h15.328l8.775,40.365h-8.074l-1.812-6.786H10.401L8.88,40.949H0.807L9.757,0.584z
			 M12.098,26.382h10.355L18.649,8.013h-2.633L12.098,26.382z"/>
		<path fill="#FFFFFF" d="M37.778,0h7.838v40.949h-7.838V0z"/>
		<path fill="#FFFFFF" d="M52.287,11.757h7.838v1.345c0,0,3.744-2.047,6.611-2.047c7.723,0,11.525,3.803,11.525,15.035
			c0,12.461-4.33,15.562-13.281,15.562c-2.164,0-4.855-0.469-4.855-0.469v12.053h-7.838V11.757z M60.125,19.362V34.28
			c0,0,2.633,0.292,4.271,0.292c4.68,0,5.908-2.281,5.908-8.482c0-5.909-1.988-7.839-5.09-7.839
			C63.227,18.251,60.125,19.362,60.125,19.362z"/>
		<path fill="#FFFFFF" d="M105.813,33.929l0.117,6.084c0,0-6.729,1.639-12.168,1.639c-8.834,0-12.578-4.388-12.578-14.918
			c0-10.414,4.387-15.679,12.928-15.679c8.6,0,12.754,4.329,12.754,13.163l-0.584,5.499H89.082c0.059,3.335,1.697,4.739,5.91,4.739
			C99.789,34.456,105.813,33.929,105.813,33.929z M99.145,23.69c0-4.152-1.346-5.674-5.031-5.674c-3.744,0-5.031,1.813-5.09,5.674
			H99.145z"/>
		<path fill="#FFFFFF" d="M111.544,40.949V11.757h7.84v1.638c0,0,3.92-2.34,7.254-2.34c8.189,0,10.297,5.147,10.297,14.626V40.95
			h-7.84V25.388c0-4.446-0.584-7.312-4.387-7.312c-2.75,0-5.324,1.053-5.324,1.053V40.95L111.544,40.949L111.544,40.949z"/>
		<path fill="#FFFFFF" d="M149.509,0.584l6.084,32.058h0.879l6.084-32.058h9.186l6.084,32.058h0.877l6.084-32.058h8.482
			l-9.01,40.365h-11.992l-5.148-28.49l-5.09,28.49h-11.992l-9.01-40.365H149.509z"/>
		<path fill="#FFFFFF" d="M220.121,26.323c0,9.01-3.277,15.328-13.457,15.328s-13.455-6.318-13.455-15.328
			c0-9.009,3.275-15.269,13.455-15.269S220.121,17.314,220.121,26.323z M212.164,26.323c0-5.382-1.17-8.189-5.5-8.189
			c-4.328,0-5.498,2.808-5.498,8.189c0,5.383,1.17,8.249,5.498,8.249C210.994,34.572,212.164,31.706,212.164,26.323z"/>
		<path fill="#FFFFFF" d="M244.748,12.283l-0.234,6.728c0,0-4.621-0.468-6.844-0.468c-5.617,0-6.67,1.931-6.67,7.488
			c0,6.26,1.111,8.132,6.729,8.132c2.223,0,6.785-0.469,6.785-0.469l0.234,6.729c0,0-6.26,1.229-9.535,1.229
			c-8.717,0-12.168-4.622-12.168-15.62c0-10.354,3.627-14.977,12.344-14.977C238.781,11.055,244.748,12.283,244.748,12.283z"/>
		<path fill="#FFFFFF" d="M249.252,40.949V0h7.838v12.576c0,0,4.506-1.521,7.256-1.521c8.189,0,10.295,5.147,10.295,14.567v15.327
			h-7.838V25.622c0-4.389-0.586-7.255-4.096-7.255c-1.932,0-5.617,0.702-5.617,0.702v21.88H249.252z"/>
		<path fill="#FFFFFF" d="M303.656,33.929l0.117,6.084c0,0-6.73,1.639-12.168,1.639c-8.834,0-12.578-4.388-12.578-14.918
			c0-10.414,4.387-15.679,12.928-15.679c8.6,0,12.754,4.329,12.754,13.163l-0.584,5.499h-17.201c0.059,3.335,1.697,4.739,5.91,4.739
			C297.631,34.456,303.656,33.929,303.656,33.929z M296.986,23.69c0-4.152-1.346-5.674-5.031-5.674c-3.744,0-5.031,1.813-5.09,5.674
			H296.986z"/>
	</g>
	<g>
		<path fill="#FFFFFF" d="M21.52,104.25c0,0-6.77-0.768-9.553-0.768c-3.553,0-5.232,1.057-5.232,3.217
			c0,2.062,1.295,2.832,6.768,4.561c7.057,2.256,9.217,4.223,9.217,9.984c0,6.768-4.848,10.08-11.617,10.08
			c-3.648,0-10.08-1.344-10.08-1.344l0.672-5.904c0,0,5.953,0.816,9.361,0.816c3.553,0,5.088-0.961,5.088-3.504
			c0-2.018-1.152-2.977-5.855-4.322c-7.346-2.111-10.129-4.607-10.129-10.271c0-6.338,4.512-9.746,11.809-9.746
			c3.695,0,10.08,1.297,10.08,1.297L21.52,104.25z"/>
		<path fill="#FFFFFF" d="M45.565,124.988l0.096,4.992c0,0-5.52,1.344-9.984,1.344c-7.25,0-10.322-3.6-10.322-12.24
			c0-8.545,3.602-12.865,10.609-12.865c7.057,0,10.465,3.553,10.465,10.801l-0.479,4.512H31.837
			c0.047,2.736,1.391,3.889,4.848,3.889C40.621,125.42,45.565,124.988,45.565,124.988z M40.093,116.588
			c0-3.408-1.104-4.656-4.129-4.656c-3.072,0-4.127,1.488-4.176,4.656H40.093z"/>
		<path fill="#FFFFFF" d="M50.748,130.748v-23.953h6.385v1.152c0,0,1.584-0.771,3.264-1.297c0.816-0.24,1.729-0.432,2.4-0.432
			c2.688,0,4.561,0.672,5.857,1.969c2.447-0.912,5.615-1.969,8.207-1.969c6.529,0,8.449,3.791,8.449,12v12.529h-6.432v-9.889
			c0-6.049,0.096-8.641-3.361-8.641c-1.92,0-4.463,0.912-4.463,0.912s0.191,3.312,0.191,5.186v12.432h-6.434v-12.336
			c0-4.32-0.383-6.193-3.359-6.193c-1.584,0-4.273,0.816-4.273,0.816v17.713L50.748,130.748L50.748,130.748z"/>
		<path fill="#FFFFFF" d="M109.596,124.221c0.098,1.344,0.24,2.016,1.584,2.256l-0.191,4.848c-3.217,0-4.848-0.336-6.865-1.68
			c0,0-3.455,1.68-7.057,1.68c-5.039,0-7.439-2.783-7.439-7.873c0-5.424,3.119-6.959,8.4-7.344l5.137-0.385v-1.248
			c0-1.729-0.912-2.592-2.832-2.592c-3.168,0-8.977,0.385-8.977,0.385l-0.193-4.656c0,0,6.049-1.393,9.986-1.393
			c5.473,0,8.447,2.447,8.447,8.256V124.221z M98.794,120.572c-1.68,0.143-2.688,0.959-2.688,2.688c0,1.68,0.623,2.785,2.352,2.785
			c1.584,0,4.705-0.721,4.705-0.721v-5.137L98.794,120.572z"/>
		<path fill="#FFFFFF" d="M115.787,97.098h6.432v6.576h-6.432V97.098z M115.787,106.795h6.432v23.953h-6.432V106.795z"/>
		<path fill="#FFFFFF" d="M128.169,130.748v-23.953h6.432v1.344c0,0,3.217-1.92,5.953-1.92c6.721,0,8.449,4.225,8.449,12v12.529
			h-6.434v-12.77c0-3.646-0.479-6-3.6-6c-2.256,0-4.369,0.865-4.369,0.865v17.904L128.169,130.748L128.169,130.748z"/>
		<path fill="#FFFFFF" d="M173.291,124.988l0.096,4.992c0,0-5.52,1.344-9.984,1.344c-7.25,0-10.322-3.6-10.322-12.24
			c0-8.545,3.604-12.865,10.609-12.865c7.057,0,10.465,3.553,10.465,10.801l-0.479,4.512h-14.113
			c0.047,2.736,1.391,3.889,4.848,3.889C168.346,125.42,173.291,124.988,173.291,124.988z M167.818,116.588
			c0-3.408-1.105-4.656-4.129-4.656c-3.072,0-4.127,1.488-4.176,4.656H167.818z"/>
		<path fill="#FFFFFF" d="M185.768,97.625h12.578l7.199,33.123h-6.623l-1.488-5.568h-11.137l-1.248,5.568h-6.625L185.768,97.625z
			 M187.688,118.795h8.498l-3.121-15.072h-2.16L187.688,118.795z"/>
		<path fill="#FFFFFF" d="M209.238,97.146h6.434v33.602h-6.434V97.146z"/>
		<path fill="#FFFFFF" d="M221.621,106.795h6.434v1.104c0,0,3.072-1.68,5.424-1.68c6.338,0,9.457,3.119,9.457,12.336
			c0,10.227-3.553,12.77-10.896,12.77c-1.773,0-3.982-0.383-3.982-0.383v9.889h-6.436V106.795L221.621,106.795z M228.055,113.035
			v12.24c0,0,2.16,0.24,3.504,0.24c3.84,0,4.85-1.871,4.85-6.961c0-4.848-1.633-6.432-4.178-6.432
			C230.6,112.123,228.055,113.035,228.055,113.035z"/>
		<path fill="#FFFFFF" d="M247.35,97.098h6.432v6.576h-6.432V97.098z M247.35,106.795h6.432v23.953h-6.432V106.795z"/>
		<path fill="#FFFFFF" d="M258.771,130.748v-23.953h6.434v1.344c0,0,3.217-1.92,5.953-1.92c6.721,0,8.447,4.225,8.447,12v12.529
			h-6.434v-12.77c0-3.646-0.479-6-3.6-6c-2.258,0-4.369,0.865-4.369,0.865v17.904L258.771,130.748L258.771,130.748z"/>
		<path fill="#FFFFFF" d="M303.893,124.988l0.098,4.992c0,0-5.521,1.344-9.986,1.344c-7.248,0-10.318-3.6-10.318-12.24
			c0-8.545,3.6-12.865,10.607-12.865c7.057,0,10.465,3.553,10.465,10.801l-0.479,4.512h-14.113c0.049,2.736,1.393,3.889,4.848,3.889
			C298.949,125.42,303.893,124.988,303.893,124.988z M298.42,116.588c0-3.408-1.104-4.656-4.127-4.656
			c-3.072,0-4.129,1.488-4.178,4.656H298.42z"/>
	</g>
	<g>
		<path fill="#FFFFFF" d="M18.869,190.627c0,0-5.979-0.679-8.438-0.679c-3.139,0-4.623,0.934-4.623,2.842
			c0,1.823,1.146,2.502,5.98,4.028c6.232,1.993,8.141,3.731,8.141,8.819c0,5.979-4.283,8.905-10.262,8.905
			c-3.223,0-8.904-1.188-8.904-1.188l0.594-5.216c0,0,5.258,0.722,8.268,0.722c3.139,0,4.496-0.849,4.496-3.096
			c0-1.781-1.018-2.629-5.174-3.816C2.458,200.083,0,197.878,0,192.874c0-5.597,3.986-8.607,10.432-8.607
			c3.266,0,8.904,1.145,8.904,1.145L18.869,190.627z"/>
		<path fill="#FFFFFF" d="M40.535,208.945l0.086,4.41c0,0-4.877,1.188-8.82,1.188c-6.402,0-9.117-3.181-9.117-10.813
			c0-7.548,3.18-11.364,9.371-11.364c6.234,0,9.244,3.139,9.244,9.541l-0.424,3.986H28.408c0.043,2.417,1.23,3.435,4.283,3.435
			C36.167,209.327,40.535,208.945,40.535,208.945z M35.701,201.525c0-3.011-0.975-4.113-3.646-4.113
			c-2.713,0-3.646,1.314-3.689,4.113H35.701z"/>
		<path fill="#FFFFFF" d="M51.516,198.006v8.014c0,2.12,0,3.096,1.781,3.096c1.188,0,3.223-0.085,3.223-0.085l0.254,4.877
			c0,0-2.84,0.636-4.324,0.636c-5.131,0-6.615-1.95-6.615-8.057v-8.48h-2.502v-5.132h2.502v-5.937h5.682v5.937h5.217v5.132
			L51.516,198.006L51.516,198.006z"/>
		<path fill="#FFFFFF" d="M64.66,198.006v8.014c0,2.12,0,3.096,1.781,3.096c1.188,0,3.223-0.085,3.223-0.085l0.254,4.877
			c0,0-2.84,0.636-4.324,0.636c-5.131,0-6.615-1.95-6.615-8.057v-8.48h-2.502v-5.132h2.502v-5.937h5.682v5.937h5.217v5.132
			L64.66,198.006L64.66,198.006z"/>
		<path fill="#FFFFFF" d="M73.521,184.309h5.682v5.81h-5.682V184.309z M73.521,192.874h5.682v21.16h-5.682V192.874z"/>
		<path fill="#FFFFFF" d="M84.882,214.034v-21.16h5.641v1.019c0,0,1.398-0.679,2.883-1.146c0.721-0.212,1.527-0.382,2.121-0.382
			c2.375,0,4.027,0.594,5.174,1.739c2.162-0.806,4.961-1.739,7.25-1.739c5.768,0,7.463,3.351,7.463,10.602v11.067h-5.682v-8.735
			c0-5.343,0.084-7.633-2.969-7.633c-1.695,0-3.943,0.806-3.943,0.806s0.17,2.926,0.17,4.58v10.982h-5.682v-10.897
			c0-3.816-0.34-5.471-2.969-5.471c-1.4,0-3.773,0.721-3.773,0.721v15.647H84.882z"/>
		<path fill="#FFFFFF" d="M137.291,208.268c0.084,1.187,0.211,1.78,1.398,1.992l-0.168,4.283c-2.842,0-4.283-0.297-6.064-1.484
			c0,0-3.053,1.484-6.234,1.484c-4.451,0-6.572-2.459-6.572-6.954c0-4.792,2.756-6.148,7.422-6.488l4.537-0.339v-1.103
			c0-1.526-0.807-2.29-2.502-2.29c-2.799,0-7.93,0.34-7.93,0.34l-0.17-4.113c0,0,5.344-1.23,8.82-1.23
			c4.834,0,7.463,2.163,7.463,7.294V208.268z M127.75,205.045c-1.484,0.127-2.375,0.848-2.375,2.374c0,1.484,0.551,2.46,2.078,2.46
			c1.398,0,4.156-0.637,4.156-0.637v-4.537L127.75,205.045z"/>
		<path fill="#FFFFFF" d="M143.182,214.034v-21.16h5.684v1.188c0,0,2.84-1.696,5.257-1.696c5.938,0,7.463,3.732,7.463,10.602v11.067
			h-5.682v-11.279c0-3.223-0.424-5.301-3.182-5.301c-1.992,0-3.857,0.764-3.857,0.764v15.816L143.182,214.034L143.182,214.034z"/>
		<path fill="#FFFFFF" d="M183.463,208.268c0.086,1.187,0.213,1.78,1.4,1.992l-0.17,4.283c-2.842,0-4.283-0.297-6.064-1.484
			c0,0-3.053,1.484-6.232,1.484c-4.453,0-6.572-2.459-6.572-6.954c0-4.792,2.756-6.148,7.42-6.488l4.537-0.339v-1.103
			c0-1.526-0.805-2.29-2.502-2.29c-2.799,0-7.93,0.34-7.93,0.34l-0.17-4.113c0,0,5.344-1.23,8.82-1.23
			c4.834,0,7.463,2.163,7.463,7.294V208.268z M173.922,205.045c-1.482,0.127-2.373,0.848-2.373,2.374c0,1.484,0.551,2.46,2.078,2.46
			c1.398,0,4.154-0.637,4.154-0.637v-4.537L173.922,205.045z"/>
		<path fill="#FFFFFF" d="M196.395,184.775h11.109l6.361,29.259h-5.852l-1.314-4.919h-9.838l-1.105,4.919h-5.852L196.395,184.775z
			 M198.09,203.476h7.506l-2.756-13.315h-1.908L198.09,203.476z"/>
		<path fill="#FFFFFF" d="M217.381,184.352h5.682v29.683h-5.682V184.352z"/>
		<path fill="#FFFFFF" d="M228.572,192.874h5.684v0.976c0,0,2.713-1.484,4.791-1.484c5.598,0,8.354,2.757,8.354,10.898
			c0,9.032-3.139,11.279-9.625,11.279c-1.57,0-3.52-0.339-3.52-0.339v8.735h-5.684V192.874z M234.256,198.387V209.2
			c0,0,1.908,0.212,3.096,0.212c3.391,0,4.281-1.653,4.281-6.148c0-4.283-1.441-5.683-3.688-5.683
			C236.502,197.581,234.256,198.387,234.256,198.387z"/>
		<path fill="#FFFFFF" d="M251.553,184.309h5.684v5.81h-5.684V184.309z M251.553,192.874h5.684v21.16h-5.684V192.874z"/>
		<path fill="#FFFFFF" d="M262.746,214.034v-21.16h5.682v1.188c0,0,2.842-1.696,5.258-1.696c5.938,0,7.463,3.732,7.463,10.602
			v11.067h-5.682v-11.279c0-3.223-0.424-5.301-3.18-5.301c-1.994,0-3.859,0.764-3.859,0.764v15.816L262.746,214.034L262.746,214.034
			z"/>
		<path fill="#FFFFFF" d="M302.857,208.268c0.084,1.187,0.211,1.78,1.396,1.992l-0.168,4.283c-2.842,0-4.283-0.297-6.062-1.484
			c0,0-3.053,1.484-6.234,1.484c-4.451,0-6.572-2.459-6.572-6.954c0-4.792,2.756-6.148,7.422-6.488l4.537-0.339v-1.103
			c0-1.526-0.807-2.29-2.502-2.29c-2.799,0-7.93,0.34-7.93,0.34l-0.17-4.113c0,0,5.344-1.23,8.82-1.23
			c4.832,0,7.463,2.163,7.463,7.294V208.268z M293.316,205.045c-1.484,0.127-2.375,0.848-2.375,2.374c0,1.484,0.551,2.46,2.078,2.46
			c1.396,0,4.154-0.637,4.154-0.637v-4.537L293.316,205.045z"/>
	</g>
	<g>
		<path fill="#FFFFFF" d="M9.854,271.733h15.379l8.805,40.505h-8.1l-1.82-6.812h-13.62l-1.525,6.812H0.871L9.854,271.733z
			 M12.201,297.621h10.391l-3.816-18.433h-2.641L12.201,297.621z"/>
		<path fill="#FFFFFF" d="M38.791,271.146h7.865v41.093h-7.865V271.146z"/>
		<path fill="#FFFFFF" d="M54.169,282.944h7.865v1.353c0,0,3.758-2.055,6.633-2.055c7.75,0,11.564,3.813,11.564,15.086
			c0,12.504-4.344,15.612-13.324,15.612c-2.172,0-4.873-0.469-4.873-0.469v12.092h-7.865V282.944z M62.035,290.578v14.969
			c0,0,2.643,0.293,4.285,0.293c4.697,0,5.93-2.289,5.93-8.512c0-5.931-1.996-7.865-5.107-7.865
			C65.146,289.463,62.035,290.578,62.035,290.578z"/>
		<path fill="#FFFFFF" d="M107.35,290.283c0,0-7.277-0.939-10.684-0.939c-3.404,0-4.107,0.705-4.107,2.291
			c0,1.351,1.115,1.701,5.518,2.406c7.807,1.231,10.271,3.463,10.271,9.394c0,6.866-4.52,9.508-11.857,9.508
			c-4.344,0-11.27-1.408-11.27-1.408l0.234-6.633c0,0,7.279,0.938,10.273,0.938c3.756,0,4.754-0.705,4.754-2.229
			c0-1.291-0.646-1.762-4.754-2.467c-7.633-1.291-11.037-3.052-11.037-9.332c0-6.812,5.225-9.568,11.389-9.568
			c4.227,0,11.389,1.467,11.389,1.467L107.35,290.283z"/>
		<path fill="#FFFFFF" d="M114.686,312.238v-41.093h7.867v22.955l2.994-0.589l5.811-10.565h8.805L132.59,296.8l7.984,15.439h-8.865
			l-5.986-11.037l-3.17,0.588v10.449L114.686,312.238L114.686,312.238z"/>
		<path fill="#FFFFFF" d="M144.74,271.088h7.865v8.043h-7.865V271.088z M144.74,282.944h7.865v29.294h-7.865V282.944z"/>
		<path fill="#FFFFFF" d="M160.295,271.733h29.35v7.808h-10.566v32.697h-8.1v-32.697h-10.684V271.733z"/>
		<path fill="#FFFFFF" d="M210.775,305.192l0.117,6.105c0,0-6.75,1.643-12.209,1.643c-8.863,0-12.621-4.401-12.621-14.969
			c0-10.447,4.4-15.729,12.973-15.729c8.629,0,12.797,4.344,12.797,13.207l-0.586,5.518h-17.258
			c0.059,3.347,1.701,4.757,5.928,4.757C204.73,305.724,210.775,305.192,210.775,305.192z M204.084,294.922
			c0-4.168-1.35-5.694-5.049-5.694c-3.756,0-5.047,1.819-5.107,5.694H204.084z"/>
		<path fill="#FFFFFF" d="M241.828,312.238h-7.867v-1.175c0,0-4.049,1.818-7.043,1.818c-8.863,0-11.447-5.342-11.447-15.613
			c0-10.625,4.168-15.026,12.15-15.026c2.174,0,6.34,0.764,6.34,0.764v-11.858h7.867V312.238z M233.961,304.783v-14.91
			c0,0-3.229-0.529-5.752-0.529c-2.936,0-4.754,2.113-4.754,7.927c0,5.928,1.115,8.217,4.812,8.336
			C230.557,305.547,233.961,304.783,233.961,304.783z"/>
		<path fill="#FFFFFF" d="M272.174,305.192l0.117,6.105c0,0-6.75,1.643-12.209,1.643c-8.863,0-12.621-4.401-12.621-14.969
			c0-10.447,4.402-15.729,12.973-15.729c8.629,0,12.797,4.344,12.797,13.207l-0.586,5.518h-17.258
			c0.059,3.347,1.701,4.757,5.928,4.757C266.129,305.724,272.174,305.192,272.174,305.192z M265.482,294.922
			c0-4.168-1.352-5.694-5.049-5.694c-3.758,0-5.049,1.819-5.107,5.694H265.482z"/>
		<path fill="#FFFFFF" d="M278.746,312.238v-29.294h7.867v1.646c0,0,3.932-2.348,7.279-2.348c8.217,0,10.328,5.166,10.328,14.674
			v15.322h-7.863v-15.615c0-4.461-0.588-7.338-4.402-7.338c-2.76,0-5.342,1.057-5.342,1.057v21.896H278.746z"/>
	</g>
	<g>
		<path fill="#FFFFFF" d="M13.49,376.03h21.588l12.359,56.854H36.065l-2.555-9.559H14.396l-2.143,9.559H0.882L13.49,376.03z
			 M16.785,412.368h14.584l-5.355-25.873h-3.707L16.785,412.368z"/>
		<path fill="#FFFFFF" d="M52.958,375.208H64v57.678H52.958V375.208z"/>
		<path fill="#FFFFFF" d="M73.393,391.769h11.041v1.896c0,0,5.273-2.885,9.312-2.885c10.875,0,16.232,5.354,16.232,21.176
			c0,17.551-6.098,21.918-18.705,21.918c-3.049,0-6.84-0.658-6.84-0.658v16.974h-11.04V391.769z M84.434,402.481v21.01
			c0,0,3.709,0.412,6.016,0.412c6.592,0,8.322-3.213,8.322-11.947c0-8.322-2.801-11.041-7.168-11.041
			C88.8,400.915,84.434,402.481,84.434,402.481z"/>
		<path fill="#FFFFFF" d="M123.983,376.03l8.57,45.153h1.236l8.568-45.153h12.938l8.568,45.153h1.236l8.57-45.153h11.947
			l-12.689,56.854h-16.893l-7.25-40.129l-7.168,40.129h-16.893l-12.689-56.854H123.983z"/>
		<path fill="#FFFFFF" d="M219.814,422.997l0.166,8.57c0,0-9.479,2.307-17.141,2.307c-12.441,0-17.717-6.18-17.717-21.012
			c0-14.666,6.182-22.082,18.211-22.082c12.111,0,17.963,6.098,17.963,18.539l-0.822,7.746H196.25
			c0.082,4.694,2.389,6.674,8.322,6.674C211.328,423.739,219.814,422.997,219.814,422.997z M210.422,408.577
			c0-5.85-1.895-7.992-7.086-7.992c-5.273,0-7.086,2.555-7.17,7.992H210.422z"/>
		<path fill="#FFFFFF" d="M259.941,422.997l0.166,8.57c0,0-9.479,2.307-17.141,2.307c-12.441,0-17.717-6.18-17.717-21.012
			c0-14.666,6.182-22.082,18.211-22.082c12.111,0,17.963,6.098,17.963,18.539l-0.822,7.746h-24.227
			c0.082,4.694,2.391,6.674,8.322,6.674C251.455,423.739,259.941,422.997,259.941,422.997z M250.549,408.577
			c0-5.85-1.895-7.992-7.086-7.992c-5.273,0-7.086,2.555-7.17,7.992H250.549z"/>
		<path fill="#FFFFFF" d="M268.018,432.886v-57.678h11.041v32.217l4.203-0.824l8.156-14.832h12.359l-10.629,19.445l11.207,21.672
			h-12.443l-8.404-15.49l-4.449,0.822v14.668H268.018z"/>
	</g>
</g>
</svg>
