<?xml version="1.0" encoding="utf-8"?>
<!-- Generator: Adobe Illustrator 16.0.4, SVG Export Plug-In . SVG Version: 6.00 Build 0)  -->
<!DOCTYPE svg PUBLIC "-//W3C//DTD SVG 1.1//EN" "http://www.w3.org/Graphics/SVG/1.1/DTD/svg11.dtd">
<svg version="1.1" id="Ebene_1" xmlns="http://www.w3.org/2000/svg" xmlns:xlink="http://www.w3.org/1999/xlink" x="0px" y="0px"
	 width="45px" height="31px" viewBox="2.617 7.5 45 31" enable-background="new 2.617 7.5 45 31" xml:space="preserve">
<g id="Ebene_1_1_" display="none">
	
		<polygon display="inline" fill="#FFFFFF" stroke="#000000" stroke-width="2" stroke-linecap="round" stroke-linejoin="round" points="
		24.537,28.873 29.814,38.83 39.999,38.83 24.537,9.706 9.098,38.83 20.258,38.83 	"/>
	
		<polyline display="inline" fill="#FFFFFF" stroke="#000000" stroke-width="2" stroke-linecap="round" stroke-linejoin="round" points="
		20.948,4.13 24.551,10.916 28.148,4.13 	"/>
</g>
<g id="Ebene_2" display="none">
	<g display="inline">
		<g>
			<polygon fill="#FFFFFF" stroke="#000000" stroke-width="4" stroke-linecap="round" stroke-linejoin="round" points="
				33.84,18.324 28.754,27.938 23.568,18.143 19.242,10.182 5.325,35.818 21.223,35.818 29.889,35.818 33.176,35.818 44.909,35.818 
							"/>
		</g>
		<polygon points="23.934,20.105 19.207,22.375 14.479,20.105 19.212,11.474 		"/>
	</g>
</g>
<g id="Ebene_3" display="none">
	<g display="inline">
		<path fill="none" stroke="#000000" stroke-width="3" stroke-linecap="round" stroke-linejoin="round" d="M40.25,12.398
			c-10.089-9.371-20.177,9.372-30.266,0c0,6.007,0,12.014,0,18.021c10.088,9.371,20.177-9.371,30.266,0
			C40.25,24.412,40.25,18.405,40.25,12.398z"/>
	</g>
</g>
<g id="Ebene_3_Kopie" display="none">
	<g display="inline">
		<path fill="none" stroke="#000000" stroke-width="3" stroke-linecap="round" stroke-linejoin="round" d="M40.25,12.398
			c-10.089-9.371-20.177,9.372-30.266,0c0,6.007,0,12.014,0,18.021c10.088,9.371,20.177-9.371,30.266,0
			C40.25,24.412,40.25,18.405,40.25,12.398z"/>
	</g>
	
		<line display="inline" fill="none" stroke="#000000" stroke-width="4" stroke-linecap="round" stroke-linejoin="round" x1="9.984" y1="12.398" x2="9.984" y2="41.499"/>
</g>
<g id="Ebene_5_Kopie" display="none">
	
		<rect x="8" y="7.5" display="inline" stroke="#000000" stroke-width="4" stroke-linejoin="round" stroke-miterlimit="10" width="34.25" height="34.25"/>
	<path display="inline" fill="#FFFFFF" d="M24.756,12.21c-0.033,1.316-0.064,2.629-0.099,3.95c-0.056,0-0.101,0-0.146,0
		c-0.85-0.003-1.699-0.007-2.548-0.01c-0.266-0.001-0.529,0.018-0.788,0.086c-0.435,0.116-0.724,0.381-0.844,0.821
		c-0.02,0.071-0.039,0.145-0.046,0.219c-0.021,0.215-0.046,0.43-0.047,0.646c-0.005,0.989-0.002,1.978-0.002,2.965
		c0,0.029,0,0.058,0,0.097c0.222,0.013,0.437,0.004,0.652,0.006c0.212,0.001,0.425,0,0.639,0c0.216,0,0.433,0,0.649,0
		c0.217,0,0.434,0,0.649,0c0.217,0,0.434,0,0.65,0c0.213,0,0.426,0,0.64,0c0.215,0,0.432,0,0.661,0
		c-0.063,1.416-0.133,2.822-0.198,4.238c-1.45,0-2.889,0-4.337,0c0,3.871,0,7.732,0,11.592c-0.076,0.022-4.285,0.033-4.484,0.012
		c-0.001-0.428,0-0.855-0.001-1.283c0-0.43,0-0.859,0-1.289c0-0.429,0-0.857,0-1.288c0-0.43,0-0.858,0-1.288
		c0-0.431,0-0.857,0-1.289c0-0.431,0-0.857,0-1.289c0-0.429,0-0.857,0-1.289c0-0.43,0-0.856,0-1.287c0-0.43,0-0.856,0-1.297
		c-1.025,0-2.041,0-3.062,0c0-1.416,0-2.822,0-4.239c1.019,0,2.035,0,3.062,0c0-0.048,0-0.085,0-0.123c0-1.118,0.002-2.235,0-3.353
		c0-0.723,0.099-1.43,0.355-2.107c0.505-1.339,1.43-2.273,2.74-2.834c0.525-0.225,1.074-0.363,1.639-0.446
		c0.645-0.096,1.293-0.106,1.943-0.081c0.461,0.019,0.922,0.039,1.384,0.067c0.281,0.017,0.564,0.05,0.848,0.078
		C24.693,12.193,24.723,12.202,24.756,12.21z"/>
</g>
<g id="Ebene_5_Kopie_Kopie" display="none">
	
		<rect x="8" y="7.5" display="inline" stroke="#000000" stroke-width="4" stroke-linejoin="round" stroke-miterlimit="10" width="34.25" height="34.25"/>
	<g id="_x34_q5BdL_1_" display="inline">
		<g>
			<path fill="#FFFFFF" d="M28.238,36.844c-2.135,0-4.271,0-6.406,0c-0.278-0.035-0.557-0.072-0.835-0.109
				c-1.103-0.147-2.122-0.526-3.062-1.118c-0.905-0.57-1.676-1.289-2.331-2.136c-0.635-0.818-1.093-1.729-1.376-2.725
				c-0.231-0.812-0.309-1.646-0.309-2.488c0-3.664,0-7.326,0-10.988c0-0.12,0.002-0.24,0.01-0.359
				c0.068-1.145,0.83-2.125,1.917-2.466c0.17-0.053,0.344-0.093,0.516-0.14c0.24,0,0.48,0,0.721,0
				c0.051,0.015,0.102,0.033,0.153,0.043c1.312,0.251,2.276,1.378,2.291,2.713c0.015,1.309,0.005,2.615,0.005,3.923
				c0,0.069,0,0.141,0,0.229c0.096,0,0.173,0,0.249,0c2.525,0,5.05,0.004,7.574-0.004c0.903-0.003,1.621,0.348,2.184,1.049
				c0.604,0.752,0.691,2.01,0.193,2.828c-0.543,0.894-1.325,1.348-2.381,1.344c-2.514-0.008-5.024-0.002-7.54-0.002
				c-0.048,0-0.096,0.002-0.144,0c-0.097-0.008-0.141,0.023-0.14,0.131c0.006,0.688-0.024,1.382,0.017,2.067
				c0.064,1.052,0.618,1.802,1.534,2.291c0.407,0.22,0.849,0.281,1.305,0.282c1.884,0.004,3.769-0.007,5.648,0.021
				c1.075,0.019,1.856,0.597,2.344,1.517c0.729,1.379,0.149,3.093-1.245,3.79C28.854,36.677,28.537,36.743,28.238,36.844z"/>
		</g>
	</g>
</g>
<g id="Ebene_2_Kopie">
	<g>
		<path fill="#FFFFFF" d="M30.521,28.872c-0.349,0.653-1.026,1.063-1.77,1.063c-0.738,0-1.421-0.408-1.77-1.063l-4.318-8.158
			l-3.459,1.661l-3.418-1.641l-7.1,13.084h32.59l-7.282-11.51L30.521,28.872z"/>
		<path fill="#FFFFFF" d="M46.6,34.749l-11.07-17.494c-0.381-0.603-1.062-0.961-1.768-0.929c-0.713,0.028-1.357,0.433-1.688,1.062
			l-3.319,6.272l-3.428-6.476L21,9.226c-0.35-0.644-1.024-1.045-1.757-1.045l0,0c-0.733,0-1.407,0.401-1.757,1.046L3.567,34.864
			c-0.336,0.62-0.321,1.37,0.039,1.977c0.36,0.607,1.014,0.978,1.719,0.978h39.584c0.729,0,1.399-0.396,1.752-1.033
			C47.014,36.145,46.988,35.365,46.6,34.749z M8.687,33.818l7.103-13.084l3.418,1.641l3.459-1.661l4.319,8.158
			c0.348,0.655,1.027,1.063,1.769,1.063c0.742,0,1.421-0.41,1.769-1.063l3.474-6.563l7.282,11.51H8.687L8.687,33.818z"/>
	</g>
</g>
<g id="Ebene_3_Kopie_2" display="none">
	<g display="inline">
		<path d="M16.38,34.624c-2.741,0-5.167-1.017-7.417-3.106c-0.305-0.283-0.479-0.682-0.479-1.099V12.398
			c0-0.597,0.354-1.137,0.9-1.375c0.548-0.239,1.184-0.129,1.621,0.276c1.692,1.572,3.4,2.304,5.374,2.304c0,0,0,0,0.001,0
			c2.581,0,5.264-1.247,8.104-2.565c3.012-1.398,6.125-2.845,9.369-2.845c2.74,0,5.166,1.016,7.416,3.106
			c0.308,0.284,0.479,0.682,0.479,1.099v18.021c0,0.597-0.354,1.138-0.899,1.375c-0.547,0.237-1.183,0.132-1.621-0.276
			c-1.69-1.569-3.398-2.304-5.375-2.304c-2.58,0-5.265,1.246-8.104,2.565C22.738,33.178,19.624,34.624,16.38,34.624z M11.484,29.742
			c1.538,1.281,3.107,1.882,4.896,1.882c2.581,0,5.264-1.246,8.104-2.565c3.013-1.396,6.125-2.845,9.369-2.845
			c1.748,0,3.367,0.413,4.896,1.255V13.075c-1.538-1.281-3.107-1.882-4.896-1.882c-2.58,0-5.265,1.246-8.104,2.565
			c-3.011,1.398-6.125,2.844-9.368,2.846H16.38c-1.748,0-3.367-0.414-4.895-1.255L11.484,29.742L11.484,29.742z"/>
	</g>
</g>
<g id="Ebene_3_Kopie_Kopie" display="none">
	<g display="inline">
		<path fill="#FFFFFF" d="M25.748,13.759c-3.011,1.398-6.125,2.845-9.368,2.845h-0.001c-1.56,0-3.013-0.349-4.395-1.018V30.13
			c1.38,1.013,2.801,1.494,4.396,1.494c2.581,0,5.264-1.246,8.104-2.565c3.013-1.396,6.125-2.845,9.369-2.845
			c1.748,0,3.367,0.413,4.896,1.255V13.075c-1.538-1.281-3.107-1.882-4.896-1.882C31.271,11.193,28.589,12.439,25.748,13.759z"/>
		<path fill="#FFFFFF" d="M41.271,11.299c-2.25-2.09-4.676-3.106-7.418-3.106c-3.242,0-6.356,1.446-9.369,2.845
			c-2.84,1.319-5.523,2.565-8.104,2.565c0,0,0,0-0.001,0c-1.607,0-3.037-0.495-4.427-1.524c-0.153-0.952-0.973-1.681-1.968-1.681
			c-1.104,0-2,0.896-2,2v29.101c0,1.104,0.896,2,2,2s2-0.896,2-2v-7.885c1.381,0.669,2.836,1.01,4.396,1.01
			c3.243,0,6.357-1.446,9.369-2.845c2.841-1.319,5.522-2.565,8.104-2.565c1.976,0,3.684,0.731,5.375,2.304
			c0.438,0.408,1.074,0.516,1.619,0.276c0.547-0.237,0.9-0.778,0.9-1.375V12.398C41.75,11.981,41.576,11.583,41.271,11.299z
			 M38.75,27.469c-1.527-0.842-3.148-1.255-4.896-1.255c-3.244,0-6.355,1.446-9.369,2.845c-2.84,1.319-5.523,2.565-8.104,2.565
			c-1.595,0-3.016-0.481-4.396-1.494V15.585c1.382,0.669,2.835,1.019,4.395,1.019h0.001c3.243,0,6.356-1.446,9.368-2.846
			c2.841-1.319,5.523-2.565,8.105-2.565c1.789,0,3.356,0.601,4.896,1.882L38.75,27.469L38.75,27.469z"/>
	</g>
</g>
<g id="Ebene_5_Kopie_Kopie_2" display="none">
	<g display="inline">
		<path fill="#FFFFFF" d="M42.25,5.5H8c-1.104,0-2,0.896-2,2v34.25c0,1.104,0.896,2,2,2h34.25c1.104,0,2-0.896,2-2V7.5
			C44.25,6.396,43.354,5.5,42.25,5.5z M24.579,25.229c-1.45,0-2.889,0-4.337,0c0,3.871,0,7.732,0,11.592
			c-0.076,0.022-4.285,0.033-4.484,0.012c-0.001-0.427,0-0.855-0.001-1.283c0-0.43,0-0.859,0-1.289c0-0.429,0-0.857,0-1.287
			c0-0.431,0-0.858,0-1.289s0-0.857,0-1.289c0-0.431,0-0.857,0-1.289c0-0.429,0-0.857,0-1.289c0-0.43,0-0.856,0-1.286
			c0-0.431,0-0.857,0-1.298c-1.025,0-2.041,0-3.062,0c0-1.416,0-2.822,0-4.239c1.019,0,2.035,0,3.062,0c0-0.048,0-0.085,0-0.123
			c0-1.118,0.002-2.235,0-3.353c0-0.723,0.099-1.43,0.355-2.107c0.505-1.339,1.43-2.273,2.74-2.834
			c0.525-0.225,1.074-0.363,1.639-0.446c0.645-0.096,1.293-0.106,1.943-0.081c0.461,0.019,0.922,0.039,1.384,0.067
			c0.281,0.017,0.564,0.05,0.848,0.078c0.027,0.002,0.057,0.011,0.09,0.019c-0.033,1.316-0.064,2.629-0.099,3.95
			c-0.056,0-0.101,0-0.146,0c-0.85-0.003-1.699-0.007-2.548-0.01c-0.266-0.001-0.529,0.018-0.788,0.086
			c-0.435,0.116-0.724,0.381-0.844,0.821c-0.02,0.07-0.039,0.144-0.046,0.217c-0.021,0.216-0.046,0.431-0.047,0.646
			c-0.005,0.989-0.002,1.977-0.002,2.965c0,0.029,0,0.059,0,0.098c0.222,0.012,0.437,0.003,0.652,0.005c0.212,0.001,0.425,0,0.639,0
			c0.216,0,0.433,0,0.649,0c0.217,0,0.434,0,0.649,0c0.217,0,0.434,0,0.65,0c0.213,0,0.426,0,0.64,0c0.215,0,0.432,0,0.661,0
			C24.714,22.405,24.645,23.812,24.579,25.229z"/>
	</g>
</g>
<g id="Ebene_5_Kopie_Kopie_Kopie" display="none">
	<g display="inline">
		<path fill="#FFFFFF" d="M42.25,5.5H8c-1.104,0-2,0.896-2,2v34.25c0,1.104,0.896,2,2,2h34.25c1.104,0,2-0.896,2-2V7.5
			C44.25,6.396,43.354,5.5,42.25,5.5z M29.132,36.538c-0.278,0.139-0.595,0.205-0.894,0.306c-2.135,0-4.271,0-6.406,0
			c-0.278-0.035-0.557-0.072-0.835-0.109c-1.103-0.147-2.122-0.526-3.062-1.118c-0.905-0.57-1.676-1.289-2.331-2.136
			c-0.635-0.818-1.093-1.729-1.376-2.725c-0.231-0.812-0.309-1.646-0.309-2.488c0-3.664,0-7.326,0-10.988
			c0-0.12,0.002-0.24,0.01-0.359c0.068-1.145,0.83-2.125,1.917-2.466c0.17-0.053,0.344-0.093,0.516-0.14c0.24,0,0.48,0,0.721,0
			c0.051,0.015,0.102,0.033,0.153,0.043c1.312,0.251,2.276,1.378,2.291,2.713c0.015,1.309,0.005,2.615,0.005,3.923
			c0,0.069,0,0.141,0,0.229c0.096,0,0.173,0,0.249,0c2.525,0,5.05,0.004,7.574-0.004c0.903-0.003,1.621,0.348,2.184,1.049
			c0.604,0.752,0.691,2.01,0.193,2.828c-0.543,0.894-1.325,1.348-2.381,1.344c-2.514-0.008-5.024-0.002-7.54-0.002
			c-0.048,0-0.096,0.002-0.144,0c-0.097-0.008-0.141,0.023-0.14,0.131c0.006,0.688-0.024,1.382,0.017,2.067
			c0.064,1.052,0.618,1.802,1.534,2.291c0.407,0.22,0.849,0.281,1.305,0.282c1.884,0.004,3.769-0.007,5.648,0.021
			c1.075,0.019,1.856,0.597,2.344,1.517C31.105,34.127,30.527,35.841,29.132,36.538z"/>
	</g>
</g>
</svg>
