<?xml version="1.0" encoding="utf-8"?>
<!-- Generator: Adobe Illustrator 16.0.4, SVG Export Plug-In . SVG Version: 6.00 Build 0)  -->
<!DOCTYPE svg PUBLIC "-//W3C//DTD SVG 1.1//EN" "http://www.w3.org/Graphics/SVG/1.1/DTD/svg11.dtd">
<svg version="1.1" id="Ebene_1" xmlns="http://www.w3.org/2000/svg" xmlns:xlink="http://www.w3.org/1999/xlink" x="0px" y="0px"
	 width="36px" height="47px" viewBox="6.714 0.601 36 47" enable-background="new 6.714 0.601 36 47" xml:space="preserve">
<g id="Ebene_1_1_" display="none">
	
		<polygon display="inline" fill="#FFFFFF" stroke="#000000" stroke-width="2" stroke-linecap="round" stroke-linejoin="round" points="
		24.537,28.873 29.814,38.83 39.999,38.83 24.537,9.706 9.098,38.83 20.258,38.83 	"/>
	
		<polyline display="inline" fill="#FFFFFF" stroke="#000000" stroke-width="2" stroke-linecap="round" stroke-linejoin="round" points="
		20.948,4.13 24.551,10.916 28.148,4.13 	"/>
</g>
<g id="Ebene_2" display="none">
	<g display="inline">
		<g>
			<polygon fill="#FFFFFF" stroke="#000000" stroke-width="4" stroke-linecap="round" stroke-linejoin="round" points="
				33.84,18.324 28.754,27.938 23.568,18.142 19.242,10.182 5.325,35.818 21.223,35.818 29.889,35.818 33.176,35.818 44.909,35.818 
							"/>
		</g>
		<polygon points="23.934,20.105 19.207,22.375 14.479,20.105 19.212,11.474 		"/>
	</g>
</g>
<g id="Ebene_3" display="none">
	<g display="inline">
		<path fill="none" stroke="#000000" stroke-width="3" stroke-linecap="round" stroke-linejoin="round" d="M40.25,12.398
			c-10.089-9.371-20.177,9.371-30.266,0c0,6.007,0,12.014,0,18.021c10.088,9.371,20.177-9.371,30.266,0
			C40.25,24.412,40.25,18.405,40.25,12.398z"/>
	</g>
</g>
<g id="Ebene_12" display="none">
	
		<rect x="7" y="11.45" display="inline" fill="none" stroke="#000000" stroke-width="4" stroke-linecap="round" stroke-linejoin="round" width="36.834" height="25.767"/>
	
		<polyline display="inline" fill="none" stroke="#000000" stroke-width="3" stroke-linecap="round" stroke-linejoin="round" points="
		43.834,11.45 25.417,29.866 7,11.449 	"/>
</g>
<g id="Ebene_3_Kopie" display="none">
	<g display="inline">
		<path fill="none" stroke="#000000" stroke-width="3" stroke-linecap="round" stroke-linejoin="round" d="M40.25,12.398
			c-10.089-9.371-20.177,9.371-30.266,0c0,6.007,0,12.014,0,18.021c10.088,9.371,20.177-9.371,30.266,0
			C40.25,24.412,40.25,18.405,40.25,12.398z"/>
	</g>
	
		<line display="inline" fill="none" stroke="#000000" stroke-width="4" stroke-linecap="round" stroke-linejoin="round" x1="9.984" y1="12.398" x2="9.984" y2="41.499"/>
</g>
<g id="Ebene_14_Kopie">
	<g id="y7DEnv_2_">
		<g>
			<g>
				<path fill="#FFFFFF" d="M33.542,47.008c-0.21,0-0.421-0.008-0.631-0.019c-0.396-0.021-0.795-0.056-1.188-0.104
					c-0.886-0.111-1.731-0.297-2.517-0.552c-1.619-0.519-3.133-1.272-4.492-2.245c-0.402-0.289-0.78-0.604-1.156-0.919l-0.105-0.088
					c-0.977-0.819-1.959-1.685-2.919-2.569c-0.551-0.509-1.094-1.027-1.618-1.562c-1.141-1.166-2.194-2.394-3.13-3.646
					c-0.914-1.222-1.788-2.546-2.672-4.048c-0.623-1.057-1.194-2.11-1.698-3.133c-0.804-1.633-1.453-3.184-1.982-4.742
					c-0.384-1.129-0.7-2.252-0.939-3.338c-0.152-0.685-0.262-1.292-0.337-1.857c-0.056-0.427-0.109-0.853-0.155-1.279
					c-0.002-0.02-0.004-0.04-0.006-0.06L7.885,16.81v-3.524l0.107-0.062l0.028-0.338c0.051-0.561,0.139-1.137,0.27-1.762
					c0.302-1.446,0.774-2.806,1.401-4.042c0.695-1.369,1.565-2.555,2.585-3.525c0.954-0.908,2.03-1.606,3.199-2.078
					c0.174-0.07,0.392-0.149,0.644-0.203l0.173-0.082h1.352l0.175,0.116c0.428,0.109,0.827,0.292,1.231,0.557
					c0.366,0.239,0.716,0.542,1.071,0.923c0.432,0.464,0.827,1.001,1.242,1.689c0.348,0.577,0.681,1.211,1.016,1.94
					c0.399,0.87,0.764,1.751,1.122,2.637c0.195,0.483,0.343,0.98,0.443,1.479c0.058,0.302,0.1,0.594,0.118,0.89
					c0.025,0.374,0.011,0.771-0.044,1.166c-0.085,0.608-0.281,1.197-0.581,1.749c-0.264,0.488-0.604,0.965-1.04,1.455
					c-0.36,0.405-0.748,0.782-1.137,1.158l-0.132,0.127c-0.426,0.414-0.836,0.823-1.159,1.259c-0.291,0.392-0.479,0.769-0.578,1.152
					c-0.092,0.359-0.123,0.722-0.094,1.111c0.047,0.611,0.197,1.229,0.408,1.97c0.194,0.681,0.455,1.363,0.776,2.028
					c0.083,0.172,0.174,0.336,0.264,0.5l1.198,2.222c0.027,0.049,0.062,0.104,0.101,0.158c0.629,0.873,1.299,1.729,1.813,2.375
					c0.334,0.425,0.653,0.826,0.981,1.225s0.617,0.697,0.914,0.945c0.221,0.184,0.424,0.314,0.626,0.404
					c0.185,0.079,0.37,0.12,0.558,0.12l0.102-0.004c0.352-0.026,0.71-0.092,1.07-0.19c0.396-0.111,0.785-0.252,1.175-0.39
					l0.096-0.034c0.429-0.15,0.853-0.293,1.288-0.404c0.621-0.154,1.229-0.207,1.836-0.154c0.574,0.049,1.135,0.206,1.713,0.482
					c0.502,0.238,0.986,0.556,1.523,0.996c0.418,0.34,0.84,0.717,1.328,1.186c0.531,0.514,1.039,1.043,1.51,1.576
					c0.646,0.732,1.178,1.414,1.619,2.085c0.433,0.649,0.74,1.225,0.972,1.806c0.19,0.482,0.306,0.938,0.354,1.395
					c0.059,0.529-0.004,1.05-0.188,1.539c-0.221,0.584-0.548,1.129-0.975,1.629c-0.526,0.619-1.178,1.147-1.991,1.619l-0.292,0.164
					l-1.426,0.612c-0.453,0.157-0.909,0.281-1.355,0.368c-0.318,0.062-0.641,0.109-0.966,0.143
					C34.07,46.996,33.807,47.008,33.542,47.008z M10.885,15.362l0.071,0.824c0.008,0.133,0.015,0.266,0.029,0.399
					c0.043,0.407,0.093,0.808,0.146,1.208c0.063,0.476,0.159,1,0.292,1.602c0.216,0.98,0.502,1.996,0.851,3.02
					c0.487,1.434,1.087,2.868,1.833,4.382c0.47,0.954,1.006,1.942,1.592,2.938c0.828,1.406,1.642,2.641,2.489,3.772
					c0.857,1.146,1.824,2.271,2.873,3.345c0.488,0.5,0.994,0.98,1.508,1.455c0.925,0.854,1.871,1.687,2.811,2.475l0.106,0.089
					c0.319,0.267,0.636,0.535,0.975,0.778c1.104,0.787,2.338,1.403,3.667,1.828c0.61,0.198,1.272,0.344,1.974,0.432
					c0.324,0.042,0.649,0.066,0.975,0.085c0.314,0.018,0.629,0.024,0.941-0.009c0.241-0.023,0.471-0.058,0.7-0.103
					c0.329-0.063,0.671-0.159,1.017-0.282l0.134-0.045l1-0.472c0.509-0.295,0.905-0.613,1.21-0.969
					c0.204-0.239,0.352-0.479,0.445-0.734c0.012-0.028,0.023-0.077,0.015-0.165c-0.021-0.188-0.072-0.388-0.161-0.611
					c-0.15-0.379-0.368-0.778-0.684-1.254c-0.365-0.554-0.812-1.127-1.367-1.756c-0.418-0.474-0.868-0.943-1.34-1.398
					c-0.369-0.354-0.75-0.699-1.146-1.025c-0.348-0.284-0.64-0.479-0.918-0.611c-0.245-0.117-0.465-0.183-0.672-0.199
					c-0.284-0.023-0.562,0.002-0.852,0.074c-0.34,0.086-0.681,0.203-1.021,0.322l-0.092,0.033c-0.454,0.161-0.909,0.322-1.376,0.453
					c-0.551,0.152-1.102,0.25-1.645,0.292c-0.709,0.05-1.414-0.066-2.089-0.358c-0.472-0.208-0.91-0.484-1.348-0.851
					c-0.438-0.365-0.867-0.804-1.308-1.343c-0.339-0.41-0.671-0.83-1.003-1.25c-0.546-0.688-1.245-1.58-1.91-2.504
					c-0.11-0.152-0.21-0.312-0.299-0.476l-1.192-2.211c-0.117-0.212-0.233-0.426-0.338-0.646c-0.395-0.816-0.718-1.663-0.958-2.508
					c-0.226-0.791-0.444-1.649-0.514-2.563c-0.054-0.711,0.006-1.413,0.18-2.086c0.197-0.766,0.548-1.482,1.073-2.19
					c0.456-0.615,0.981-1.14,1.48-1.625l0.136-0.131c0.335-0.324,0.67-0.646,0.979-0.994c0.279-0.314,0.49-0.606,0.645-0.892
					c0.131-0.241,0.211-0.48,0.247-0.735c0.027-0.192,0.034-0.375,0.021-0.558c-0.011-0.18-0.036-0.343-0.067-0.505
					c-0.061-0.306-0.157-0.624-0.281-0.934c-0.34-0.84-0.687-1.68-1.065-2.506c-0.287-0.624-0.568-1.161-0.858-1.641
					c-0.306-0.507-0.583-0.887-0.872-1.198c-0.19-0.204-0.354-0.348-0.516-0.455c-0.157-0.103-0.279-0.159-0.374-0.171l-0.169-0.012
					l-0.149,0.02c-0.022,0.007-0.07,0.029-0.119,0.049c-0.826,0.333-1.562,0.813-2.251,1.468c-0.783,0.745-1.43,1.632-1.978,2.71
					c-0.508,1-0.892,2.11-1.14,3.297c-0.107,0.511-0.179,0.976-0.219,1.42l-0.084,1.021c-0.007,0.091-0.02,0.177-0.038,0.258v0.926
					H10.885z"/>
			</g>
		</g>
	</g>
</g>
<g id="Ebene_5_Kopie" display="none">
	
		<rect x="8" y="7.5" display="inline" stroke="#000000" stroke-width="4" stroke-linejoin="round" stroke-miterlimit="10" width="34.25" height="34.25"/>
	<path display="inline" fill="#FFFFFF" d="M24.756,12.21c-0.033,1.316-0.065,2.629-0.099,3.95c-0.056,0-0.1,0-0.145,0
		c-0.85-0.003-1.699-0.007-2.548-0.01c-0.266-0.001-0.529,0.018-0.788,0.086c-0.435,0.116-0.724,0.381-0.844,0.821
		c-0.02,0.071-0.039,0.144-0.046,0.218c-0.021,0.215-0.046,0.43-0.047,0.646c-0.005,0.989-0.002,1.977-0.002,2.965
		c0,0.029,0,0.058,0,0.097c0.222,0.012,0.437,0.003,0.652,0.005c0.212,0.001,0.425,0,0.639,0c0.216,0,0.433,0,0.649,0
		c0.217,0,0.434,0,0.649,0c0.217,0,0.434,0,0.65,0c0.213,0,0.426,0,0.64,0c0.215,0,0.432,0,0.661,0
		c-0.063,1.416-0.133,2.823-0.198,4.239c-1.45,0-2.889,0-4.337,0c0,3.871,0,7.732,0,11.591c-0.076,0.023-4.285,0.033-4.484,0.012
		c-0.001-0.428,0-0.855-0.001-1.283c0-0.43,0-0.859,0-1.289c0-0.429,0-0.857,0-1.288c0-0.43,0-0.858,0-1.288
		c0-0.431,0-0.858,0-1.289s0-0.858,0-1.289c0-0.429,0-0.858,0-1.289c0-0.43,0-0.857,0-1.287s0-0.857,0-1.297
		c-1.025,0-2.041,0-3.062,0c0-1.417,0-2.823,0-4.24c1.019,0,2.035,0,3.062,0c0-0.047,0-0.085,0-0.123c0-1.118,0.002-2.235,0-3.352
		c0-0.723,0.099-1.43,0.355-2.108c0.505-1.339,1.43-2.273,2.74-2.834c0.525-0.225,1.074-0.363,1.639-0.446
		c0.645-0.096,1.293-0.106,1.943-0.081c0.461,0.019,0.922,0.039,1.384,0.067c0.282,0.017,0.565,0.05,0.848,0.078
		C24.694,12.193,24.723,12.202,24.756,12.21z"/>
</g>
<g id="Ebene_5_Kopie_Kopie" display="none">
	
		<rect x="8" y="7.5" display="inline" stroke="#000000" stroke-width="4" stroke-linejoin="round" stroke-miterlimit="10" width="34.25" height="34.25"/>
	<g id="_x34_q5BdL_1_" display="inline">
		<g>
			<path fill="#FFFFFF" d="M28.238,36.844c-2.135,0-4.271,0-6.406,0c-0.278-0.035-0.557-0.072-0.835-0.109
				c-1.103-0.148-2.122-0.527-3.062-1.119c-0.905-0.57-1.676-1.289-2.331-2.135c-0.635-0.819-1.093-1.729-1.376-2.725
				c-0.231-0.812-0.309-1.646-0.309-2.488c0-3.664,0-7.326,0-10.989c0-0.12,0.002-0.24,0.01-0.359
				c0.068-1.145,0.83-2.125,1.917-2.466c0.17-0.053,0.344-0.093,0.516-0.14c0.24,0,0.48,0,0.721,0
				c0.051,0.015,0.102,0.033,0.153,0.043c1.312,0.251,2.276,1.378,2.291,2.714c0.015,1.308,0.005,2.615,0.005,3.922
				c0,0.07,0,0.141,0,0.229c0.096,0,0.173,0,0.249,0c2.525,0,5.05,0.005,7.574-0.003c0.904-0.003,1.621,0.348,2.184,1.048
				c0.604,0.752,0.691,2.011,0.193,2.829c-0.543,0.893-1.325,1.347-2.381,1.343c-2.513-0.008-5.024-0.002-7.539-0.002
				c-0.048,0-0.096,0.002-0.144,0c-0.097-0.008-0.141,0.024-0.14,0.131c0.006,0.689-0.024,1.382,0.017,2.068
				c0.064,1.051,0.618,1.801,1.534,2.291c0.407,0.219,0.849,0.281,1.305,0.282c1.883,0.004,3.768-0.007,5.648,0.022
				c1.076,0.018,1.857,0.596,2.344,1.516c0.729,1.379,0.15,3.093-1.245,3.79C28.854,36.677,28.537,36.743,28.238,36.844z"/>
		</g>
	</g>
</g>
<g id="Ebene_14">
	<g id="y7DEnv_1_">
		<g>
			<g>
				<path fill="#FFFFFF" d="M33.542,47.008c-0.21,0-0.421-0.008-0.631-0.019c-0.396-0.021-0.795-0.056-1.188-0.104
					c-0.886-0.111-1.731-0.297-2.517-0.552c-1.619-0.519-3.133-1.272-4.492-2.245c-0.402-0.289-0.78-0.604-1.156-0.919l-0.105-0.088
					c-0.977-0.819-1.959-1.685-2.919-2.569c-0.551-0.509-1.094-1.027-1.618-1.562c-1.141-1.166-2.194-2.394-3.13-3.646
					c-0.914-1.222-1.788-2.546-2.672-4.048c-0.623-1.057-1.194-2.11-1.698-3.133c-0.804-1.633-1.453-3.184-1.982-4.742
					c-0.384-1.129-0.7-2.252-0.939-3.338c-0.152-0.685-0.262-1.292-0.337-1.857c-0.056-0.427-0.109-0.853-0.155-1.279
					c-0.002-0.02-0.004-0.04-0.006-0.06L7.885,16.81v-3.524l0.107-0.062l0.028-0.338c0.051-0.561,0.139-1.137,0.27-1.762
					c0.302-1.446,0.774-2.806,1.401-4.042c0.695-1.369,1.565-2.555,2.585-3.525c0.954-0.908,2.03-1.606,3.199-2.078
					c0.174-0.07,0.392-0.149,0.644-0.203l0.173-0.082h1.352l0.175,0.116c0.428,0.109,0.827,0.292,1.231,0.557
					c0.366,0.239,0.716,0.542,1.071,0.923c0.432,0.464,0.827,1.001,1.242,1.689c0.348,0.577,0.681,1.211,1.016,1.94
					c0.399,0.87,0.764,1.751,1.122,2.637c0.195,0.483,0.343,0.98,0.443,1.479c0.058,0.302,0.1,0.594,0.118,0.89
					c0.025,0.374,0.011,0.771-0.044,1.166c-0.085,0.608-0.281,1.197-0.581,1.749c-0.264,0.488-0.604,0.965-1.04,1.455
					c-0.36,0.405-0.748,0.782-1.137,1.158l-0.132,0.127c-0.426,0.414-0.836,0.823-1.159,1.259c-0.291,0.392-0.479,0.769-0.578,1.152
					c-0.092,0.359-0.123,0.722-0.094,1.111c0.047,0.611,0.197,1.229,0.408,1.97c0.194,0.681,0.455,1.363,0.776,2.028
					c0.083,0.172,0.174,0.336,0.264,0.5l1.198,2.222c0.027,0.049,0.062,0.104,0.101,0.158c0.629,0.873,1.299,1.729,1.813,2.375
					c0.334,0.425,0.653,0.826,0.981,1.225s0.617,0.697,0.914,0.945c0.221,0.184,0.424,0.314,0.626,0.404
					c0.185,0.079,0.37,0.12,0.558,0.12l0.102-0.004c0.352-0.026,0.71-0.092,1.07-0.19c0.396-0.111,0.785-0.252,1.175-0.39
					l0.096-0.034c0.429-0.15,0.853-0.293,1.288-0.404c0.621-0.154,1.229-0.207,1.836-0.154c0.574,0.049,1.135,0.206,1.713,0.482
					c0.502,0.238,0.986,0.556,1.523,0.996c0.418,0.34,0.84,0.717,1.328,1.186c0.531,0.514,1.039,1.043,1.51,1.576
					c0.646,0.732,1.178,1.414,1.619,2.085c0.433,0.649,0.74,1.225,0.972,1.806c0.19,0.482,0.306,0.938,0.354,1.395
					c0.059,0.529-0.004,1.05-0.188,1.539c-0.221,0.584-0.548,1.129-0.975,1.629c-0.526,0.619-1.178,1.147-1.991,1.619l-0.292,0.164
					l-1.426,0.612c-0.453,0.157-0.909,0.281-1.355,0.368c-0.318,0.062-0.641,0.109-0.966,0.143
					C34.07,46.996,33.807,47.008,33.542,47.008z M10.885,15.362l0.071,0.824c0.008,0.133,0.015,0.266,0.029,0.399
					c0.043,0.407,0.093,0.808,0.146,1.208c0.063,0.476,0.159,1,0.292,1.602c0.216,0.98,0.502,1.996,0.851,3.02
					c0.487,1.434,1.087,2.868,1.833,4.382c0.47,0.954,1.006,1.942,1.592,2.938c0.828,1.406,1.642,2.641,2.489,3.772
					c0.857,1.146,1.824,2.271,2.873,3.345c0.488,0.5,0.994,0.98,1.508,1.455c0.925,0.854,1.871,1.687,2.811,2.475l0.106,0.089
					c0.319,0.267,0.636,0.535,0.975,0.778c1.104,0.787,2.338,1.403,3.667,1.828c0.61,0.198,1.272,0.344,1.974,0.432
					c0.324,0.042,0.649,0.066,0.975,0.085c0.314,0.018,0.629,0.024,0.941-0.009c0.241-0.023,0.471-0.058,0.7-0.103
					c0.329-0.063,0.671-0.159,1.017-0.282l0.134-0.045l1-0.472c0.509-0.295,0.905-0.613,1.21-0.969
					c0.204-0.239,0.352-0.479,0.445-0.734c0.012-0.028,0.023-0.077,0.015-0.165c-0.021-0.188-0.072-0.388-0.161-0.611
					c-0.15-0.379-0.368-0.778-0.684-1.254c-0.365-0.554-0.812-1.127-1.367-1.756c-0.418-0.474-0.868-0.943-1.34-1.398
					c-0.369-0.354-0.75-0.699-1.146-1.025c-0.348-0.284-0.64-0.479-0.918-0.611c-0.245-0.117-0.465-0.183-0.672-0.199
					c-0.284-0.023-0.562,0.002-0.852,0.074c-0.34,0.086-0.681,0.203-1.021,0.322l-0.092,0.033c-0.454,0.161-0.909,0.322-1.376,0.453
					c-0.551,0.152-1.102,0.25-1.645,0.292c-0.709,0.05-1.414-0.066-2.089-0.358c-0.472-0.208-0.91-0.484-1.348-0.851
					c-0.438-0.365-0.867-0.804-1.308-1.343c-0.339-0.41-0.671-0.83-1.003-1.25c-0.546-0.688-1.245-1.58-1.91-2.504
					c-0.11-0.152-0.21-0.312-0.299-0.476l-1.192-2.211c-0.117-0.212-0.233-0.426-0.338-0.646c-0.395-0.816-0.718-1.663-0.958-2.508
					c-0.226-0.791-0.444-1.649-0.514-2.563c-0.054-0.711,0.006-1.413,0.18-2.086c0.197-0.766,0.548-1.482,1.073-2.19
					c0.456-0.615,0.981-1.14,1.48-1.625l0.136-0.131c0.335-0.324,0.67-0.646,0.979-0.994c0.279-0.314,0.49-0.606,0.645-0.892
					c0.131-0.241,0.211-0.48,0.247-0.735c0.027-0.192,0.034-0.375,0.021-0.558c-0.011-0.18-0.036-0.343-0.067-0.505
					c-0.061-0.306-0.157-0.624-0.281-0.934c-0.34-0.84-0.687-1.68-1.065-2.506c-0.287-0.624-0.568-1.161-0.858-1.641
					c-0.306-0.507-0.583-0.887-0.872-1.198c-0.19-0.204-0.354-0.348-0.516-0.455c-0.157-0.103-0.279-0.159-0.374-0.171l-0.169-0.012
					l-0.149,0.02c-0.022,0.007-0.07,0.029-0.119,0.049c-0.826,0.333-1.562,0.813-2.251,1.468c-0.783,0.745-1.43,1.632-1.978,2.71
					c-0.508,1-0.892,2.11-1.14,3.297c-0.107,0.511-0.179,0.976-0.219,1.42l-0.084,1.021c-0.007,0.091-0.02,0.177-0.038,0.258v0.926
					H10.885z"/>
			</g>
		</g>
	</g>
</g>
<g id="Ebene_2_Kopie" display="none">
	<g display="inline">
		<path fill="#FFFFFF" d="M30.521,28.872c-0.348,0.653-1.026,1.063-1.769,1.063c-0.739,0-1.421-0.408-1.769-1.063l-4.319-8.158
			l-3.459,1.661l-3.418-1.641L8.687,33.818h32.59l-7.282-11.51L30.521,28.872z"/>
		<path fill="#FFFFFF" d="M46.6,34.749l-11.07-17.494c-0.381-0.603-1.062-0.961-1.768-0.929c-0.713,0.028-1.357,0.433-1.689,1.063
			l-3.319,6.272l-3.428-6.475l-4.326-7.96c-0.35-0.644-1.024-1.045-1.757-1.045l0,0c-0.733,0-1.407,0.401-1.757,1.046L3.567,34.864
			c-0.336,0.62-0.321,1.37,0.039,1.977s1.014,0.978,1.719,0.978h39.584c0.729,0,1.399-0.396,1.752-1.034
			C47.014,36.145,46.988,35.365,46.6,34.749z M8.687,33.818l7.103-13.084l3.418,1.641l3.459-1.661l4.319,8.158
			c0.348,0.655,1.027,1.063,1.769,1.063s1.421-0.41,1.769-1.063l3.473-6.563l7.283,11.509H8.687L8.687,33.818z"/>
	</g>
</g>
<g id="Ebene_12_Kopie" display="none">
	<path display="inline" fill="#FFFFFF" d="M43.834,9.45H7c-1.104,0-2,0.896-2,2v25.767c0,1.104,0.896,2,2,2h36.834
		c1.104,0,2-0.896,2-2V11.45C45.834,10.345,44.938,9.45,43.834,9.45z M39.713,13.45L25.417,27.745L11.122,13.45H39.713z M9,35.217
		V15.57l15.356,15.357c0.293,0.293,0.677,0.439,1.061,0.439s0.769-0.146,1.062-0.439l15.355-15.356v19.646H9z"/>
</g>
<g id="Ebene_3_Kopie_2" display="none">
	<g display="inline">
		<path d="M16.38,34.624c-2.741,0-5.167-1.017-7.417-3.106c-0.305-0.283-0.479-0.682-0.479-1.099V12.398
			c0-0.597,0.354-1.137,0.9-1.375c0.548-0.239,1.184-0.129,1.621,0.276c1.692,1.572,3.4,2.304,5.374,2.304c0,0,0,0,0.001,0
			c2.581,0,5.264-1.247,8.104-2.565c3.012-1.398,6.125-2.845,9.37-2.845c2.74,0,5.166,1.016,7.416,3.106
			c0.307,0.284,0.479,0.682,0.479,1.099v18.021c0,0.597-0.354,1.138-0.899,1.375c-0.547,0.237-1.183,0.132-1.621-0.276
			c-1.691-1.57-3.399-2.304-5.375-2.304c-2.58,0-5.265,1.246-8.104,2.565C22.738,33.178,19.624,34.624,16.38,34.624z M11.484,29.742
			c1.538,1.281,3.107,1.882,4.896,1.882c2.581,0,5.264-1.246,8.105-2.565c3.012-1.397,6.125-2.845,9.369-2.845
			c1.748,0,3.367,0.413,4.896,1.255V13.075c-1.538-1.281-3.107-1.882-4.896-1.882c-2.58,0-5.265,1.246-8.104,2.565
			c-3.011,1.398-6.125,2.844-9.368,2.845H16.38c-1.748,0-3.367-0.413-4.895-1.255L11.484,29.742L11.484,29.742z"/>
	</g>
</g>
<g id="Ebene_3_Kopie_Kopie" display="none">
	<g display="inline">
		<path fill="#FFFFFF" d="M25.748,13.759c-3.011,1.398-6.125,2.844-9.368,2.845h-0.001c-1.56,0-3.013-0.349-4.395-1.018V30.13
			c1.38,1.013,2.801,1.494,4.396,1.494c2.581,0,5.264-1.246,8.105-2.565c3.012-1.397,6.125-2.845,9.369-2.845
			c1.748,0,3.367,0.413,4.896,1.255V13.075c-1.538-1.281-3.107-1.882-4.896-1.882C31.271,11.193,28.589,12.439,25.748,13.759z"/>
		<path fill="#FFFFFF" d="M41.271,11.299c-2.25-2.09-4.676-3.106-7.418-3.106c-3.242,0-6.356,1.446-9.369,2.845
			c-2.84,1.319-5.523,2.565-8.104,2.565c0,0,0,0-0.001,0c-1.607,0-3.037-0.495-4.427-1.524c-0.153-0.952-0.973-1.681-1.968-1.681
			c-1.104,0-2,0.896-2,2v29.101c0,1.104,0.896,2,2,2s2-0.896,2-2v-7.885c1.381,0.669,2.836,1.01,4.396,1.01
			c3.243,0,6.357-1.446,9.369-2.845c2.841-1.319,5.523-2.565,8.105-2.565c1.975,0,3.683,0.731,5.375,2.304
			c0.438,0.408,1.074,0.515,1.619,0.276c0.547-0.237,0.9-0.778,0.9-1.375V12.398C41.75,11.981,41.576,11.583,41.271,11.299z
			 M38.75,27.469c-1.527-0.842-3.148-1.255-4.896-1.255c-3.244,0-6.356,1.446-9.369,2.845c-2.841,1.319-5.524,2.565-8.105,2.565
			c-1.595,0-3.016-0.481-4.396-1.494V15.585c1.382,0.669,2.835,1.018,4.395,1.018h0.001c3.243,0,6.356-1.446,9.368-2.845
			c2.841-1.319,5.523-2.565,8.105-2.565c1.789,0,3.357,0.601,4.896,1.882L38.75,27.469L38.75,27.469z"/>
	</g>
</g>
<g id="Ebene_5_Kopie_Kopie_2" display="none">
	<g display="inline">
		<path fill="#FFFFFF" d="M42.25,5.5H8c-1.104,0-2,0.896-2,2v34.25c0,1.104,0.896,2,2,2h34.25c1.104,0,2-0.896,2-2V7.5
			C44.25,6.396,43.354,5.5,42.25,5.5z M24.579,25.229c-1.45,0-2.889,0-4.337,0c0,3.871,0,7.732,0,11.591
			c-0.076,0.023-4.285,0.033-4.484,0.012c-0.001-0.427,0-0.855-0.001-1.283c0-0.43,0-0.859,0-1.289c0-0.429,0-0.857,0-1.287
			c0-0.431,0-0.859,0-1.289c0-0.431,0-0.858,0-1.289s0-0.858,0-1.289c0-0.429,0-0.858,0-1.289c0-0.43,0-0.857,0-1.287
			s0-0.857,0-1.297c-1.025,0-2.041,0-3.062,0c0-1.417,0-2.823,0-4.24c1.019,0,2.035,0,3.062,0c0-0.047,0-0.085,0-0.123
			c0-1.118,0.002-2.235,0-3.352c0-0.723,0.099-1.43,0.355-2.108c0.505-1.339,1.43-2.273,2.74-2.834
			c0.525-0.225,1.074-0.363,1.639-0.446c0.645-0.096,1.293-0.106,1.943-0.081c0.461,0.019,0.922,0.039,1.384,0.067
			c0.282,0.017,0.565,0.05,0.848,0.078c0.028,0.002,0.057,0.011,0.09,0.019c-0.033,1.316-0.065,2.629-0.099,3.95
			c-0.056,0-0.1,0-0.145,0c-0.85-0.003-1.699-0.007-2.548-0.01c-0.266-0.001-0.529,0.018-0.788,0.086
			c-0.435,0.116-0.724,0.381-0.844,0.821c-0.02,0.071-0.039,0.144-0.046,0.218c-0.021,0.215-0.046,0.43-0.047,0.646
			c-0.005,0.989-0.002,1.977-0.002,2.965c0,0.029,0,0.058,0,0.097c0.222,0.012,0.437,0.003,0.652,0.005c0.212,0.001,0.425,0,0.639,0
			c0.216,0,0.433,0,0.649,0c0.217,0,0.434,0,0.649,0c0.217,0,0.434,0,0.65,0c0.213,0,0.426,0,0.64,0c0.215,0,0.432,0,0.661,0
			C24.714,22.405,24.645,23.812,24.579,25.229z"/>
	</g>
</g>
<g id="Ebene_5_Kopie_Kopie_Kopie" display="none">
	<g display="inline">
		<path fill="#FFFFFF" d="M42.25,5.5H8c-1.104,0-2,0.896-2,2v34.25c0,1.104,0.896,2,2,2h34.25c1.104,0,2-0.896,2-2V7.5
			C44.25,6.396,43.354,5.5,42.25,5.5z M29.132,36.538c-0.278,0.139-0.595,0.205-0.894,0.306c-2.135,0-4.271,0-6.406,0
			c-0.278-0.035-0.557-0.072-0.835-0.109c-1.103-0.148-2.122-0.527-3.062-1.119c-0.905-0.57-1.676-1.289-2.331-2.135
			c-0.635-0.819-1.093-1.729-1.376-2.725c-0.231-0.812-0.309-1.646-0.309-2.488c0-3.664,0-7.326,0-10.989
			c0-0.12,0.002-0.24,0.01-0.359c0.068-1.145,0.83-2.125,1.917-2.466c0.17-0.053,0.344-0.093,0.516-0.14c0.24,0,0.48,0,0.721,0
			c0.051,0.015,0.102,0.033,0.153,0.043c1.312,0.251,2.276,1.378,2.291,2.714c0.015,1.308,0.005,2.615,0.005,3.922
			c0,0.07,0,0.141,0,0.229c0.096,0,0.173,0,0.249,0c2.525,0,5.05,0.005,7.574-0.003c0.904-0.003,1.621,0.348,2.184,1.048
			c0.604,0.752,0.691,2.011,0.193,2.829c-0.543,0.893-1.325,1.347-2.381,1.343c-2.513-0.008-5.024-0.002-7.539-0.002
			c-0.048,0-0.096,0.002-0.144,0c-0.097-0.008-0.141,0.024-0.14,0.131c0.006,0.689-0.024,1.382,0.017,2.068
			c0.064,1.051,0.618,1.801,1.534,2.291c0.407,0.219,0.849,0.281,1.305,0.282c1.883,0.004,3.768-0.007,5.648,0.022
			c1.076,0.018,1.857,0.596,2.344,1.516C31.105,34.127,30.527,35.841,29.132,36.538z"/>
	</g>
</g>
</svg>
